<svg width="488" height="343" viewBox="0 0 488 343" fill="none" xmlns="http://www.w3.org/2000/svg">
<g clip-path="url(#clip0_284_1693)">
<mask id="mask0_284_1693" style="mask-type:luminance" maskUnits="userSpaceOnUse" x="0" y="0" width="488" height="343">
<path d="M450.542 0.224977L0.286133 58.9227L37.2439 342.417L487.5 283.719L450.542 0.224977Z" fill="white"/>
</mask>
<g mask="url(#mask0_284_1693)">
<g filter="url(#filter0_d_284_1693)">
<path d="M435.719 2.15741L15.1094 56.9902C6.92272 58.0575 1.15131 65.5593 2.21857 73.7459L35.3115 327.594C36.3788 335.78 43.8805 341.552 52.0672 340.485L472.676 285.652C480.863 284.585 486.635 277.083 485.567 268.896L452.474 15.0482C451.407 6.86157 443.905 1.09016 435.719 2.15741Z" fill="#3370F8"/>
</g>
<path d="M451.799 242.967L446.654 243.638C444.516 243.917 442.57 242.42 442.291 240.281C442.012 238.143 443.509 236.197 445.647 235.919L450.793 235.248C452.931 234.969 454.877 236.466 455.156 238.604C455.434 240.742 453.938 242.688 451.799 242.967ZM463.913 237.498C463.647 235.451 461.836 233.863 461.199 231.937C460.541 230.014 461.021 227.611 459.981 225.849C458.939 224.087 456.64 223.262 455.337 221.755C454.035 220.248 453.48 217.832 451.903 216.619C450.305 215.39 447.852 215.508 446.059 214.617C444.263 213.709 442.838 211.682 440.911 211.178C438.983 210.673 436.686 211.71 434.714 211.562C432.741 211.414 430.672 210.099 428.641 210.363C426.612 210.628 425.005 212.441 423.08 213.078C421.156 213.734 418.754 213.256 416.992 214.296C415.228 215.319 414.405 217.637 412.897 218.94C411.39 220.242 408.975 220.796 407.762 222.374C406.53 223.953 406.65 226.425 405.759 228.218C404.851 230.014 402.825 231.439 402.32 233.366C401.816 235.294 402.852 237.591 402.704 239.563C402.556 241.536 401.241 243.605 401.506 245.634C401.771 247.665 403.584 249.271 404.221 251.197C404.877 253.12 404.399 255.523 405.439 257.285C406.462 259.049 408.78 259.872 410.082 261.38C411.385 262.887 411.939 265.302 413.516 266.515C415.093 267.729 417.567 267.627 419.361 268.518C421.156 269.426 422.581 271.452 424.509 271.957C426.436 272.461 428.734 271.423 430.705 271.573C432.679 271.721 434.748 273.036 436.777 272.771C438.807 272.506 440.414 270.693 442.34 270.056C444.263 269.398 446.666 269.878 448.428 268.838C450.192 267.815 451.015 265.497 452.522 264.195C454.029 262.892 456.445 262.338 457.658 260.761C458.869 259.165 458.769 256.71 459.66 254.916C460.568 253.121 462.595 251.696 463.099 249.768C463.603 247.841 462.565 245.543 462.715 243.572C462.863 241.598 464.178 239.529 463.913 237.498ZM426.318 223.363C426.039 221.225 427.538 219.279 429.676 219C431.813 218.722 433.76 220.218 434.039 222.357L434.71 227.504C434.989 229.641 433.49 231.588 431.354 231.867C429.216 232.146 427.268 230.647 426.989 228.511L426.318 223.363ZM414.607 227.673C415.915 225.973 418.361 225.654 420.08 226.96L424.196 230.128C425.897 231.434 426.216 233.88 424.91 235.6C423.603 237.3 421.155 237.619 419.438 236.313L415.32 233.145C413.622 231.838 413.303 229.39 414.607 227.673ZM410.089 244.461C409.81 242.322 411.307 240.377 413.445 240.098L418.591 239.427C420.729 239.148 422.675 240.645 422.954 242.783C423.232 244.922 421.735 246.867 419.597 247.146L414.452 247.817C412.313 248.096 410.368 246.599 410.089 244.461ZM424.233 258.815C422.925 260.516 420.479 260.834 418.76 259.528C417.061 258.222 416.742 255.774 418.046 254.057L441.007 224.213C442.315 222.512 444.761 222.193 446.48 223.499C448.179 224.808 448.498 227.254 447.193 228.971L424.233 258.815ZM438.922 259.683C439.201 261.821 437.704 263.767 435.566 264.046C433.427 264.325 431.482 262.828 431.203 260.69L430.532 255.544C430.253 253.406 431.75 251.46 433.889 251.181C436.027 250.902 437.973 252.399 438.251 254.538L438.922 259.683ZM450.635 255.373C449.327 257.074 446.881 257.393 445.162 256.087L441.044 252.92C439.345 251.612 439.027 249.166 440.331 247.447C441.639 245.746 444.085 245.427 445.804 246.733L449.922 249.901C451.621 251.21 451.94 253.656 450.635 255.373Z" fill="white"/>
<path d="M194.391 72.8199C187.821 84.0368 182.196 95.8777 176.49 107.572C168.359 124.239 159.996 140.97 153.54 158.438C147.057 175.978 142.219 194.781 140.887 213.57C139.856 228.118 138.731 249.26 151.713 258.942C163.473 267.713 183.294 262.634 195.075 256.873C215.939 246.668 234.494 230.054 250.628 213.313C272.1 191.034 290.456 166.148 305.029 138.542C320.724 108.807 336.678 72.9791 336.011 38.1608C335.937 34.3248 336.626 27.4564 332.979 24.9326C327.351 21.0371 316.011 25.3744 310.897 27.9063C296.781 34.8923 284.463 46.0083 272.8 56.5554C248.651 78.3923 226.941 102.504 207.023 128.505C177.796 166.658 151.578 208.843 131.131 252.682C117.502 281.903 106.237 312.459 96.4621 343.269C89.6332 364.795 83.4429 386.915 82.1016 409.653C81.3774 421.929 79.6915 437.323 83.0328 449.346C84.7452 455.507 92.7427 452.938 97.5237 452.729" stroke="#FF9ECB" stroke-width="6.841" stroke-linecap="round"/>
<path d="M361.752 11.8C359.685 12.0696 357.892 12.9723 356.747 14.4595C355.603 15.9466 355.084 17.8302 355.353 19.8976C355.623 21.965 356.62 23.7464 358.095 24.7965C359.57 25.8467 361.547 26.3535 363.615 26.0839C365.682 25.8144 367.381 24.9239 368.525 23.4368C369.681 22.0437 370.283 20.0538 370.014 17.9864C369.744 15.919 368.747 14.1376 367.272 13.0875C365.797 12.0373 363.82 11.5304 361.752 11.8Z" fill="white"/>
<path d="M28.4094 85.5084C35.1755 84.6264 41.2303 89.2844 42.2104 96.8022C43.1904 104.32 38.5322 110.375 31.7661 111.257C25 112.139 18.5816 107.624 17.5893 100.012C16.597 92.4002 21.3614 86.4272 28.4094 85.5084ZM28.7208 73.2347C22.4245 74.0555 17.5868 77.2667 14.943 81.9119L14.1957 76.1796L2.73095 77.6742L10.9145 140.448L22.4732 138.941L19.6188 117.046C23.3774 120.952 28.9585 122.709 34.9727 121.925C47.2832 120.32 56.0888 109.424 54.1776 94.7644C53.2098 87.3404 50.1581 81.5261 45.66 77.8119C41.1496 74.0036 35.2988 72.3772 28.7208 73.2347Z" fill="white"/>
<path d="M97.0245 102.525L97.8579 102.321L97.523 101.218L96.5382 101.728L97.0245 102.525Z" fill="white"/>
<path d="M68.1887 88.8439C68.3605 85.7631 69.2881 83.3485 70.7836 81.6244C72.3608 79.7942 74.6 78.6421 77.2311 78.2991C82.7756 77.5763 86.8612 81.0576 88.3929 86.21L68.2826 88.8317L68.1887 88.8439ZM92.6105 72.3757C88.5575 68.4123 82.8214 66.1974 75.6793 67.1285C68.5373 68.0596 63.6057 71.283 60.2346 76.2143C56.8512 81.0514 55.4739 87.3476 56.3682 94.2076C57.3728 101.913 60.6123 107.703 65.7684 111.332C70.9244 114.96 77.7966 116.358 85.8782 115.304C90.6709 114.68 95.2838 113.409 99.198 111.179L99.7251 110.823L99.6393 110.165L97.6584 102.3L96.8126 102.411L96.445 101.789C93.503 103.415 90.1118 104.526 86.071 105.053C81.6542 105.629 77.9484 105.061 75.1539 103.418C72.6781 102.021 70.7619 99.7856 69.7121 96.8643L100.066 92.9072L99.9675 92.1555C100.09 90.897 99.9392 89.0053 99.7309 87.4077C98.9959 81.7693 96.6387 76.1513 92.5982 72.2818L92.6105 72.3757Z" fill="white"/>
<path d="M125.636 72.8341C132.402 71.9521 138.457 76.6101 139.437 84.1279C140.417 91.6459 135.759 97.7006 128.993 98.5827C122.227 99.4647 115.809 94.9496 114.816 87.3377C113.824 79.7259 118.588 73.7529 125.636 72.8341ZM125.948 60.5604C119.652 61.3812 114.814 64.5924 112.17 69.2376L111.423 63.5053L100.052 64.9877L108.235 127.762L119.794 126.255L116.94 104.359C120.698 108.265 126.279 110.023 132.294 109.239C144.604 107.634 153.41 96.7377 151.499 82.0779C150.531 74.6538 147.479 68.8396 142.981 65.1254C138.471 61.3171 132.62 59.6906 126.042 60.5482L125.948 60.5604Z" fill="white"/>
<path d="M178.357 65.9611C185.123 65.079 191.177 69.7371 192.157 77.2549C193.137 84.7729 188.48 90.8275 181.714 91.7096C174.948 92.5916 168.529 88.0765 167.537 80.4646C166.544 72.8529 171.215 66.8921 178.357 65.9611ZM178.668 53.6874C172.372 54.5082 167.534 57.7193 164.89 62.3646L164.143 56.6322L152.772 58.1146L160.956 120.889L172.515 119.382L169.66 97.4861C173.419 101.392 179 103.15 185.014 102.366C197.325 100.761 206.131 89.8645 204.22 75.2047C203.252 67.7807 200.199 61.9666 195.701 58.2524C191.191 54.4441 185.34 52.8176 178.762 53.6751L178.668 53.6874Z" fill="white"/>
<path d="M249.408 91.4935L250.041 91.2197L249.861 90.5742L249.028 90.7783L249.408 91.4935Z" fill="white"/>
<path d="M218.301 69.2587C218.472 66.1782 219.399 63.7637 220.895 62.0395C222.473 60.2091 224.712 59.0571 227.343 58.7141C232.887 57.9914 236.972 61.4728 238.505 66.6248L218.396 69.2464L218.301 69.2587ZM242.722 52.7908C238.671 48.8272 232.934 46.6124 225.791 47.5436C219.026 48.4255 213.719 51.6979 210.348 56.629C206.963 61.4666 205.586 67.7626 206.48 74.6226C207.485 82.3285 210.725 88.1182 215.881 91.7466C221.037 95.3752 227.909 96.773 235.991 95.7194C240.783 95.0947 245.396 93.8244 249.311 91.5937L248.93 90.8787L249.776 90.7684L247.876 82.7971L247.729 81.6694L246.651 82.1921C243.709 83.8182 240.319 84.9292 236.277 85.456C231.86 86.0319 228.155 85.4636 225.361 83.8208C222.884 82.4235 220.968 80.1885 219.918 77.2671L250.272 73.31L250.174 72.5581C250.297 71.2997 250.144 69.4083 249.936 67.8107C249.201 62.1723 246.844 56.5542 242.805 52.6846L242.722 52.7908Z" fill="white"/>
<path d="M262.132 48.9447L261.47 43.8701L250.099 45.3525L256.176 91.9633L267.734 90.4565L265.051 69.8763C264.402 64.8957 264.876 61.2023 266.744 58.665C268.516 56.1403 271.847 54.5593 277.121 53.9672L277.968 53.8568L277.858 53.0111L276.939 41.5669L276.816 40.6271L275.97 40.7375C269.392 41.5951 264.494 44.3363 262.108 48.7568L262.132 48.9447Z" fill="white"/>
<path d="M335.194 33.2817C332 33.6981 328.984 34.7603 326.386 36.8192C324.22 38.5352 322.434 40.9662 321.122 44.0998C319.583 41.8158 317.622 39.9689 315.263 38.7471C312.294 37.2228 308.789 36.7241 304.56 37.2753C298.546 38.0594 294.634 41.0541 292.306 45.1805L291.632 40.012L280.261 41.4944L286.337 88.1052L297.896 86.5984L294.833 63.105C294.343 59.346 294.798 56.2285 296.137 54.0468C297.477 51.8652 299.68 50.4313 302.969 50.0025C306.258 49.5738 308.766 50.4891 310.516 52.1723C312.276 53.95 313.314 56.7774 313.767 60.2543L316.891 84.2176L328.449 82.7108L325.387 59.2174C324.897 55.4586 325.351 52.341 326.691 50.1594C328.031 47.9776 330.234 46.5437 333.522 46.1149C336.811 45.6862 339.415 46.5892 341.07 48.2849C342.83 50.0624 343.867 52.8898 344.321 56.3669L347.444 80.33L359.003 78.8232L355.352 50.8191C354.629 45.2747 352.677 40.5597 349.298 37.3683C345.92 34.1771 341.139 32.6979 335.219 33.4697L335.194 33.2817Z" fill="white"/>
<path d="M359.282 31.1279L358.437 31.238L358.547 32.0839L364.403 77.0031L364.513 77.8488L365.358 77.7386L375.225 76.4524L376.072 76.342L375.962 75.4963L370.106 30.5771L369.995 29.7312L369.149 29.8416L359.282 31.1279Z" fill="white"/>
<path d="M400.772 24.7326C394.663 25.529 390.472 28.5602 388.049 32.6989L387.375 27.5304L376.004 29.0129L382.08 75.6236L393.639 74.1168L390.576 50.6234C390.086 46.8645 390.541 43.747 391.975 41.5529C393.315 39.3713 395.598 37.8314 398.981 37.3903C402.365 36.9492 405.061 37.8401 406.822 39.6173C408.582 41.395 409.715 44.21 410.156 47.5931L413.28 71.5563L424.838 70.0495L421.187 42.0454C420.464 36.501 418.512 31.786 415.039 28.607C411.566 25.4281 406.787 23.9486 400.772 24.7326Z" fill="white"/>
<path d="M458.164 64.6037L456.26 55.8682L456.125 54.8345L455.035 55.2634C453.592 55.9294 451.949 56.5257 449.694 56.8197C447.815 57.0646 446.25 56.7909 445.188 55.9737C444.126 55.1564 443.26 53.6446 442.917 51.0134L440.442 32.0308L452.94 30.4015L451.47 19.1247L438.972 20.754L437.453 9.10128L427.773 10.3632L427.871 11.115L428.071 22.1751L419.802 23.2532L421.272 34.5299L428.789 33.5499L431.337 53.0964C431.987 58.0768 433.572 62.1709 436.5 64.8473C439.431 67.5237 443.679 68.5946 449.317 67.8596C452.324 67.4675 455.554 66.5687 457.616 65.5351L458.155 65.2738L458.069 64.616L458.164 64.6037Z" fill="white"/>
</g>
</g>
<defs>
<filter id="filter0_d_284_1693" x="-1.89957" y="2.0303" width="491.585" height="346.563" filterUnits="userSpaceOnUse" color-interpolation-filters="sRGB">
<feFlood flood-opacity="0" result="BackgroundImageFix"/>
<feColorMatrix in="SourceAlpha" type="matrix" values="0 0 0 0 0 0 0 0 0 0 0 0 0 0 0 0 0 0 127 0" result="hardAlpha"/>
<feOffset dy="3.99088"/>
<feGaussianBlur stdDeviation="1.99544"/>
<feColorMatrix type="matrix" values="0 0 0 0 0 0 0 0 0 0 0 0 0 0 0 0 0 0 0.25 0"/>
<feBlend mode="normal" in2="BackgroundImageFix" result="effect1_dropShadow_284_1693"/>
<feBlend mode="normal" in="SourceGraphic" in2="effect1_dropShadow_284_1693" result="shape"/>
</filter>
<clipPath id="clip0_284_1693">
<rect x="0.286133" y="58.9226" width="454.066" height="285.893" rx="11.9726" transform="rotate(-7.42749 0.286133 58.9226)" fill="white"/>
</clipPath>
</defs>
</svg>
