<svg width="221" height="204" viewBox="0 0 221 204" fill="none" xmlns="http://www.w3.org/2000/svg">
<path d="M117.484 37.1828C113.952 34.6369 109.529 34.5745 105.728 36.1929C101.551 37.9654 98.3486 41.5155 96.318 45.9757C94.0694 50.9209 93.2895 56.5593 93.0629 62.0965C92.8374 67.634 93.1583 73.2825 93.7456 78.8349C94.9191 89.9053 97.1767 100.794 98.6924 111.812C100.149 122.404 101.181 133.672 99.0505 144.181C98.0067 149.315 96.0955 154.396 92.6606 158.026C88.708 162.211 83.2445 163.086 78.0098 163.121C76.5871 163.133 76.7261 165.643 78.1559 165.633C82.8755 165.599 87.7698 164.905 91.8056 161.958C95.2598 159.43 97.7546 155.531 99.3567 151.272C102.946 141.754 102.816 130.715 101.92 120.526C100.944 109.446 98.72 98.5498 97.0983 87.5726C96.2966 82.1548 95.6377 76.7045 95.3543 71.2281C95.0698 65.7514 95.065 59.9507 96.0801 54.474C97.0953 48.9972 99.4277 43.182 103.855 40.0329C107.614 37.3591 112.551 36.5646 116.474 39.3973C117.69 40.2756 118.687 38.0409 117.485 37.1747L117.484 37.1828Z" fill="#85D6CA"/>
<path d="M109.541 80.991L101.157 98.6381C98.5894 95.1596 91.5502 97.715 85.1904 101.057C82.6064 102.423 80.1283 103.91 78.1098 105.161C71.1312 109.529 73.4155 100.045 73.4155 100.045C73.4155 100.045 71.3453 102.773 63.8322 103.248C56.3194 103.723 63.5858 89.0852 63.5858 89.0852C63.5858 89.0852 53.4853 95.0802 50.0357 93.6173C46.648 92.1866 51.7025 82.8805 51.8853 82.5407C51.647 82.6445 47.8902 84.3944 42.4176 84.2479C36.7713 84.0943 40.5341 74.4139 40.5341 74.4139L35.0145 75.6791C27.4676 77.9096 28.6011 67.9399 28.6011 67.9399C15.5346 71.4361 19.1897 59.4501 19.1897 59.4501C9.99324 63.1013 10.2499 54.5821 10.2499 54.5821C10.6137 48.7023 13.9208 45.4869 17.4434 43.7389C21.249 41.8476 25.5447 41.4925 29.6371 42.4572C57.8501 49.1435 67.0463 38.5021 67.0463 38.5021C77.9264 24.9754 85.8467 26.984 85.8467 26.984C93.7115 28.7646 99.4519 41.0554 103.314 53.45C107.575 67.1436 109.55 80.9845 109.55 80.9845L109.541 80.991Z" fill="#E4F4F9"/>
<path d="M46.2264 50.1138C46.2264 50.1138 64.3946 54.2169 74.3193 38.1039C74.3193 38.1039 87.3728 20.3671 96.1844 46.4907L99.9143 60.3597" stroke="#BCDFF0" stroke-width="1.25873" stroke-linecap="round" stroke-linejoin="round"/>
<path d="M81.7909 43.6065C81.7909 43.6065 78.2931 52.6251 83.9947 51.8081C89.6975 50.9914 90.1546 48.4417 90.1546 48.4417C90.1546 48.4417 87.2782 59.0635 92.9361 58.7753C98.5882 58.4856 98.7562 56.0349 98.7562 56.0349" stroke="#BCDFF0" stroke-width="1.25873" stroke-linecap="round" stroke-linejoin="round"/>
<path d="M72.3512 69.5804L85.0077 65.3477C85.0077 65.3477 76.6817 70.6046 81.5473 78.1276C81.5473 78.1276 83.1734 79.9824 86.85 78.7528L92.8133 76.7592" stroke="#BCDFF0" stroke-width="1.25873" stroke-linecap="round" stroke-linejoin="round"/>
<path d="M55.9987 78.3885C55.9987 78.3885 61.0537 83.6809 67.6874 77.1002C67.6874 77.1002 64.4592 92.7904 79.895 84.1398" stroke="#BCDFF0" stroke-width="1.25873" stroke-linecap="round" stroke-linejoin="round"/>
<path d="M89.2512 91.9129C89.2512 91.9129 78.8022 100.638 77.0005 86.8491" stroke="#BCDFF0" stroke-width="1.25873" stroke-linecap="round" stroke-linejoin="round"/>
<path d="M109.543 80.9906L101.16 98.6381C98.5927 95.1596 91.5525 97.7134 85.1936 101.057C96.6947 82.0998 101.411 64.0063 103.316 53.4581C107.577 67.1518 109.551 80.9926 109.551 80.9926L109.543 80.9906Z" fill="black"/>
<path d="M157.477 108.746C157.477 108.746 190.239 90.9829 196.581 105.103C196.581 105.103 199.738 111.77 194.025 128.903C194.025 128.903 189.682 143.004 200.651 166.952C202.245 170.427 203.064 174.753 202.814 179.35C202.587 183.61 201.401 188.368 197.862 191.611C197.862 191.611 192.663 196.04 192.694 185.366C192.694 185.366 186.179 194.769 185.169 180.441C185.169 180.441 179.284 186.437 178.838 178.05L178.277 172.103C178.277 172.103 173.203 180.486 171.743 175.118C170.284 169.741 170.506 165.137 170.506 165.137C170.506 165.137 165.845 174.977 164.108 172.367C162.371 169.756 163.625 157.066 163.625 157.066C163.625 157.066 156.339 171.262 154.812 163.778C153.287 156.294 154.47 152.959 154.47 152.959C154.47 152.959 149.168 159.82 150.169 150.947C151.177 142.076 155.899 134.341 152.001 133.262L157.485 108.739L157.477 108.746Z" fill="#E4F4F9"/>
<path d="M200.412 172.169C200.412 172.169 182.721 146.547 193.385 122.044C193.385 122.044 201.175 100.736 182.902 105.062L173.432 108.268" stroke="#BCDFF0" stroke-width="1.25873" stroke-miterlimit="10"/>
<path d="M182.153 112.678C182.153 112.678 181.188 119.118 187.102 118.26C187.102 118.26 183.33 125.009 189.663 125.044C189.663 125.044 188.357 129.548 189.934 132.702" stroke="#BCDFF0" stroke-width="1.25873" stroke-miterlimit="10"/>
<path d="M170.336 115.126C170.336 115.126 165.958 130.982 176.526 124.625C176.526 124.625 171.902 136.247 181.627 132.43C181.627 132.43 172.745 147.013 184.364 142.512C184.364 142.512 183.414 147.346 184.217 149.645" stroke="#BCDFF0" stroke-width="1.25873" stroke-linecap="round" stroke-linejoin="round"/>
<path d="M155.975 120.859C155.975 120.859 158.195 125.706 162.978 123.674C162.978 123.674 158.048 135.53 166.453 133.522C166.453 133.522 160.867 144.579 169.096 143.573C169.096 143.573 165.51 149.682 168.524 151.79C171.539 153.899 176.775 151.868 176.775 151.868C176.775 151.868 170.838 158.649 173.783 162.17C176.729 165.691 182.185 162.492 182.185 162.492L180.085 169.736" stroke="#BCDFF0" stroke-width="1.25873" stroke-linecap="round" stroke-linejoin="round"/>
<path d="M123.944 29.472L170.649 74.9253C173.471 77.6708 174.664 82.0212 173.682 86.2384C166.371 117.825 152.148 148.745 129.408 178.851C127.027 182.007 122.891 182.522 120.206 180.016L75.0242 137.925C72.3057 135.394 71.9042 130.814 74.1462 127.469C91.1972 102.038 104.502 68.9016 116.04 32.1276C117.215 28.3785 121.37 26.9773 123.937 29.4702L123.944 29.472Z" fill="#443D99"/>
<path d="M75.7117 127.603C84.6322 114.296 92.5357 98.8686 99.6917 81.9422C100.489 80.0601 101.267 78.1561 102.041 76.2341C107.639 62.4217 112.783 47.6645 117.611 32.2716C118.789 28.5145 122.943 27.113 125.501 29.6124L172.213 75.0674C175.028 77.8111 176.228 82.1633 175.254 86.3825C170.579 106.551 163.099 126.454 152.366 146.04C151.454 147.731 150.503 149.419 149.531 151.104C146.712 155.984 143.695 160.839 140.461 165.675C139.289 167.42 138.084 169.183 136.856 170.94C134.974 173.638 133.011 176.316 130.986 179.005C128.595 182.167 124.468 182.676 121.776 180.168L118.352 176.99L111.438 170.548L76.6006 138.087C73.8833 135.549 73.4809 130.967 75.717 127.621L75.7117 127.603Z" fill="#735BF6"/>
<path d="M125.44 32.4589L170.402 76.2079C173.115 78.8488 174.262 83.0338 173.323 87.099C166.281 117.504 152.595 147.263 130.71 176.246C128.417 179.287 124.438 179.773 121.847 177.369L78.3573 136.858C75.7352 134.42 75.3549 130.007 77.5135 126.795C93.921 102.317 106.736 70.42 117.841 35.0195C118.976 31.406 122.97 30.0587 125.44 32.4589Z" fill="#9C8BF9"/>
<path d="M89.4075 135.007C89.9833 135.126 90.534 134.424 91.0804 134.286C91.6265 134.149 92.3944 134.538 92.8736 134.187C93.3541 133.837 93.3597 132.895 93.7318 132.389C94.0827 131.911 94.9073 131.741 95.1464 131.133C95.3724 130.564 94.9576 129.732 95.0536 129.079C95.1504 128.427 95.7905 127.816 95.7391 127.187C95.694 126.523 94.9692 126.026 94.7836 125.431C94.5799 124.806 94.8433 123.904 94.5041 123.4C94.1664 122.895 93.3207 122.931 92.8485 122.583C92.3754 122.232 92.0614 121.348 91.4866 121.23C90.9109 121.111 90.3601 121.813 89.8128 121.95C89.2664 122.088 88.4998 121.699 88.0193 122.05C87.5401 122.401 87.5344 123.342 87.1623 123.848C86.8102 124.326 85.9857 124.496 85.7465 125.104C85.5218 125.674 85.9366 126.505 85.8397 127.157C85.7437 127.811 85.1036 128.422 85.1539 129.05C85.1992 129.712 85.9249 130.211 86.1106 130.807C86.3131 131.432 86.0509 132.334 86.3888 132.838C86.7277 133.343 87.5734 133.306 88.0456 133.655C88.5176 134.005 88.833 134.888 89.4075 135.007Z" fill="#443D99"/>
<path d="M118.347 176.972C117.575 174.869 116.915 172.732 116.344 170.688C114.087 162.653 113.283 154.065 113.896 145.704C114.215 141.483 114.868 137.287 115.934 133.227C116.899 129.554 118.052 125.601 119.883 122.326C126.96 137.675 133.641 153.919 136.857 170.932C138.091 169.176 139.291 167.412 140.463 165.668C140.141 164.242 139.79 162.817 139.435 161.41C136.676 150.541 132.801 140.071 128.45 129.893C126.796 126.043 125.093 122.217 123.347 118.413C123.848 118.153 124.389 118.005 124.973 117.989C126.43 117.951 127.854 118.762 129.031 119.681C132.592 122.475 135.454 126.626 138.074 130.477C142.478 136.934 146.156 143.929 149.531 151.096C150.502 149.42 151.454 147.722 152.367 146.032C150.159 141.452 147.791 136.962 145.195 132.646C142.15 127.6 138.771 122.77 134.942 118.463C132.114 115.296 128.495 112.437 124.365 112.714C123.195 112.789 122.128 113.131 121.147 113.665C115.141 100.964 108.671 88.5337 102.042 76.226C101.275 78.1499 100.489 80.052 99.6922 81.934C105.844 93.5054 111.833 105.173 117.455 117.083C116.157 118.856 115.133 120.948 114.309 122.977C112.585 127.24 111.324 131.704 110.427 136.285C108.648 145.4 108.569 155.061 110.127 164.274C110.483 166.342 110.908 168.436 111.428 170.511L118.343 176.954L118.347 176.972Z" fill="#C2BAF5"/>
<path d="M150.638 51.5734C154.772 49.3702 159.323 46.8773 164.045 47.8282C166.216 48.2606 168.304 49.4085 169.652 51.4592C171 53.51 171.661 56.1769 171.925 58.7016C173.126 70.2843 166.756 80.6739 166.915 92.167C166.987 97.4364 168.453 102.815 171.887 106.561C172.926 107.695 174.406 105.838 173.365 104.713C170.202 101.265 169.083 96.222 169.124 91.4094C169.168 85.2955 171.113 79.4432 172.535 73.6484C173.867 68.2168 174.851 62.4497 173.888 56.803C173.447 54.2168 172.629 51.6221 171.132 49.5598C169.635 47.4974 167.757 46.3245 165.621 45.6528C160.134 43.9279 154.774 46.5867 149.929 49.1686C148.664 49.8454 149.35 52.2531 150.633 51.5633L150.638 51.5734Z" fill="#85D6CA"/>
<path d="M141.086 43.1006L137.799 42.7746C135.305 42.5273 132.884 43.7456 131.393 46.0022L129.428 48.9798L129.672 45.2457C129.856 42.4137 128.753 39.6447 126.749 37.9179L124.104 35.6453L127.391 35.9715C129.885 36.2188 132.306 35.0002 133.798 32.7439L135.763 29.7663L135.519 33.5004C135.334 36.3324 136.438 39.1015 138.442 40.8282L141.086 43.1006Z" fill="#FAEFCB"/>
<path d="M149.357 38.7126L147.937 38.2198C146.857 37.8466 145.689 38.1195 144.842 38.9526L143.727 40.0526L144.141 38.4432C144.456 37.2198 144.2 35.8879 143.457 34.9137L142.474 33.6311L143.895 34.124C144.975 34.4972 146.144 34.2244 146.991 33.3914L148.106 32.2912L147.691 33.9008C147.376 35.1241 147.632 36.4559 148.376 37.4302L149.357 38.7126Z" fill="#F6CFB0"/>
</svg>
