<svg width="489" height="318" viewBox="0 0 489 318" fill="none" xmlns="http://www.w3.org/2000/svg">
<path d="M390.187 -150.289C352.693 -138.357 306.448 -113.104 253.98 -63.0911C214.202 -25.1702 156.546 73.992 71.9208 152.278C75.8911 132.533 45.612 139.022 44.9076 139.172C86.1051 111.379 128.028 71.5372 166.291 14.6399C160.357 22.7086 97.301 104.645 -40.1129 126.674C-24.7546 92.3174 -41.3189 68.933 -51.3408 58.8364C3.53936 69.7655 66.7978 66.6063 122.34 23.6371C221.352 -52.9731 286.457 -136.702 380.304 -163.502C384.371 -162.221 392.952 -158.507 390.187 -150.289Z" fill="#A1E8DF"/>
<path d="M71.9205 152.278C33.7862 187.584 -9.8234 218.631 -59.7513 237.917C-59.1537 236.156 -58.5026 234.342 -57.8089 232.495C-50.8821 214.063 -49.0037 198.385 -51.0742 185.503C-21.094 176.153 11.6612 161.584 44.8967 139.171H44.9074C45.6118 139.022 75.8909 132.533 71.9205 152.278Z" fill="#86CEEC"/>
<path d="M359.844 -31.4891C359.844 -31.4891 355.254 -4.03832 354.593 0.583061C281.398 1.18074 216.389 78.869 178.223 131.583C172.523 120.013 161.285 122.639 157.144 124.079C246.882 -36.4093 334.464 -35.4487 359.844 -31.4891Z" fill="#FFB8D9"/>
<path d="M178.223 131.583C169.001 144.316 161.349 155.586 155.522 163.965C150.527 171.147 145.788 178.501 141.241 185.972C125.264 212.238 61.7599 317.132 -31.8523 317.132C-93.5422 317.132 -80.5743 261.707 -74.5334 243.222H-74.5227C-69.5385 241.578 -64.6182 239.806 -59.7514 237.917C-99.7645 356.301 73.1586 300.599 130.686 176.196C139.491 157.166 148.328 139.844 157.144 124.08C161.285 122.639 172.524 120.013 178.223 131.583Z" fill="#735BF6"/>
</svg>
