<svg width="377" height="139" viewBox="0 0 377 139" fill="none" xmlns="http://www.w3.org/2000/svg">
<path d="M393.313 99.3205V187.043C393.313 187.043 364.365 133.37 304.481 143.59H304.475C300.969 142.309 297.645 139.521 296 133.889C293.101 123.945 297.982 116.475 301.582 112.588C332.65 97.8463 362.001 94.5667 393.313 99.3205Z" fill="#68DACB"/>
<path d="M304.475 143.59C272.06 149.122 230.584 173.377 179.733 234.984C179.733 234.984 174.709 241.653 165.82 249.979H165.814C165.439 250.084 152.497 253.607 155.351 241.979C161.673 236.612 168.155 230.141 174.77 222.412C223.898 164.996 263.999 130.411 301.582 112.588C297.982 116.475 293.102 123.945 296 133.889C297.646 139.521 300.969 142.309 304.475 143.59Z" fill="#B4E1F3"/>
<path d="M117.393 63.0953C115.587 59.1089 108.674 61.6045 105.814 62.8468C122.533 -20.4912 16.4525 19.5325 16.4525 19.5325L0.0322266 17.4676C125.249 -29.2921 123.786 33.8492 117.393 63.0953Z" fill="#FCD164"/>
<path d="M117.392 63.0954C115.648 71.0902 113.533 76.5508 113.533 76.5508C82.763 164.461 71.2015 221.308 70.8647 257.356C68.2863 256.081 65.8459 254.689 63.538 253.237C68.8273 199.592 84.7838 133.083 102.281 76.5508C103.799 71.6479 104.964 67.0873 105.814 62.847C108.674 61.6047 115.587 59.109 117.392 63.0954Z" fill="#FF9ECB"/>
</svg>
