<svg width="32" height="32" viewBox="0 0 32 32" fill="none" xmlns="http://www.w3.org/2000/svg">
<path d="M32.2152 16C32.2152 14.9519 31.4005 14.0315 31.1949 13.0171C30.9893 12.0028 31.389 10.827 30.9817 9.87274C30.5743 8.91853 29.4473 8.3475 28.88 7.50223C28.3128 6.65696 28.1947 5.40596 27.4637 4.68842C26.7327 3.97089 25.4687 3.86194 24.6121 3.29091C23.7554 2.71989 23.1653 1.59662 22.2097 1.21719C21.254 0.837755 20.0205 1.20592 19.0229 1.00681C18.0254 0.803945 17.0584 0 15.9999 0C14.9415 0 14.0049 0.803945 12.977 1.00681C11.949 1.20967 10.7573 0.815215 9.79025 1.21719C8.82319 1.61916 8.24448 2.73116 7.38784 3.29091C6.5312 3.85067 5.26337 3.96713 4.53618 4.68842C3.80517 5.40972 3.69857 6.65696 3.11986 7.50223C2.54115 8.3475 1.40277 8.9298 1.01823 9.87274C0.633695 10.8157 1.00681 12.0329 0.805024 13.0171C0.603237 14.0014 -0.215332 14.9556 -0.215332 16C-0.215332 17.0444 0.59943 17.9685 0.805024 18.9829C1.01062 19.9972 0.610852 21.173 1.01823 22.1273C1.42561 23.0815 2.55257 23.6525 3.11986 24.4978C3.68715 25.343 3.80517 26.594 4.53618 27.3116C5.26718 28.0329 6.5312 28.1381 7.38784 28.7091C8.24448 29.2801 8.83462 30.4034 9.79025 30.7828C10.7459 31.1622 11.9794 30.7941 12.977 30.9932C13.9745 31.1961 14.9377 32 15.9999 32C17.0622 32 17.995 31.1961 19.0229 30.9932C20.0509 30.7903 21.2426 31.1848 22.2097 30.7828C23.1767 30.3808 23.7554 29.2688 24.6121 28.7091C25.4687 28.1493 26.7365 28.0329 27.4637 27.3116C28.1947 26.5903 28.3013 25.343 28.88 24.4978C29.4587 23.6525 30.5971 23.0702 30.9817 22.1273C31.3662 21.1843 30.9931 19.9671 31.1949 18.9829C31.4005 17.9986 32.2152 17.0444 32.2152 16ZM13.9516 6.33388C13.9516 5.23315 14.8578 4.33905 15.9733 4.33905C17.0888 4.33905 17.995 5.23315 17.995 6.33388V8.99366C17.995 10.0944 17.0888 10.9885 15.9733 10.9885C14.8578 10.9885 13.9516 10.0944 13.9516 8.99366V6.33388ZM7.63532 7.74642C8.42343 6.96877 9.70649 6.96877 10.4946 7.74642L12.4021 9.62855C13.1902 10.4062 13.1902 11.6722 12.4021 12.4499C11.6139 13.2275 10.3309 13.2275 9.54277 12.4499L7.63532 10.5677C6.84721 9.79009 6.84721 8.52407 7.63532 7.74642ZM4.1821 15.9737C4.1821 14.873 5.08823 13.9789 6.20377 13.9789H8.89934C10.0149 13.9789 10.921 14.873 10.921 15.9737C10.921 17.0744 10.0149 17.9685 8.89934 17.9685H6.20377C5.08823 17.9685 4.1821 17.0744 4.1821 15.9737ZM10.4946 24.201C9.70649 24.9786 8.42343 24.9786 7.63532 24.201C6.84721 23.4233 6.84721 22.1573 7.63532 21.3797L21.452 7.74642C22.2401 6.96877 23.5232 6.96877 24.3113 7.74642C25.0994 8.52407 25.0994 9.79009 24.3113 10.5677L10.4946 24.201ZM17.995 25.6135C17.995 26.7143 17.0888 27.6084 15.9733 27.6084C14.8578 27.6084 13.9516 26.7143 13.9516 25.6135V22.9537C13.9516 21.853 14.8578 20.9589 15.9733 20.9589C17.0888 20.9589 17.995 21.853 17.995 22.9537V25.6135ZM24.3113 24.201C23.5232 24.9786 22.2401 24.9786 21.452 24.201L19.5445 22.3189C18.7564 21.5412 18.7564 20.2752 19.5445 19.4975C20.3327 18.7199 21.6157 18.7199 22.4038 19.4975L24.3113 21.3797C25.0994 22.1573 25.0994 23.4233 24.3113 24.201ZM25.7428 17.9685H23.0473C21.9317 17.9685 21.0256 17.0744 21.0256 15.9737C21.0256 14.873 21.9317 13.9789 23.0473 13.9789H25.7428C26.8584 13.9789 27.7645 14.873 27.7645 15.9737C27.7645 17.0744 26.8584 17.9685 25.7428 17.9685Z" fill="#0A1D4B"/>
</svg>
