<svg width="1440" height="955" viewBox="0 0 1440 955" fill="none" xmlns="http://www.w3.org/2000/svg">
<path d="M148.318 503.5C39.3179 421 96.3179 432.5 -31.1821 357.5C-105.849 313.578 -68.0048 202.183 -61.0198 115.837L-49.7755 -23.1583C-39.2726 -152.989 69.1559 -253 199.41 -253H672.818L1365.8 -282.876C1506.92 -288.96 1625.28 -176.994 1625.56 -35.7386C1625.7 40.3915 1625.31 102.778 1623.82 114C1619.82 144 1709.32 223.5 1570.82 280C1432.32 336.5 1386.82 432.5 1372.32 432.5C1357.82 432.5 1193.32 706.5 1125.82 714C1058.32 721.5 961.318 773 912.318 795.5C863.318 818 882.318 840.5 848.818 908C815.318 975.5 833.818 949 788.818 949H725.318C704.518 949 681.651 921.667 672.818 908C640.318 868 572.318 785 560.318 773C545.318 758 466.818 702 410.818 668.5C354.818 635 373.318 653.5 148.318 503.5Z" fill="#735AF4"/>
</svg>
