<svg width="217" height="199" viewBox="0 0 217 199" fill="none" xmlns="http://www.w3.org/2000/svg">
<mask id="mask0_284_1641" style="mask-type:luminance" maskUnits="userSpaceOnUse" x="0" y="0" width="217" height="199">
<path d="M216.945 22.1708L19.0898 0.851562L0.054638 177.509L197.909 198.829L216.945 22.1708Z" fill="white"/>
</mask>
<g mask="url(#mask0_284_1641)">
<path d="M117.098 143.893C114.242 148.203 111.755 152.837 110.343 157.838C109.137 162.107 108.406 166.918 109.96 171.201C113.343 180.525 125.707 178.282 132.324 174.205C136.357 171.721 139.614 168.108 141.616 163.81C142.157 162.66 140.318 161.939 139.785 163.085C136.58 169.961 129.663 174.929 122.108 175.702C118.193 176.105 113.915 175.089 112.116 171.242C110.318 167.395 111.004 163.056 111.986 159.271C113.31 154.161 115.787 149.439 118.69 145.061C119.391 144.008 117.807 142.833 117.105 143.894L117.098 143.893Z" fill="#BCDFF0"/>
<path d="M176.246 110.779C176.229 108.365 177.238 105.983 179.264 104.596C181.133 103.318 183.819 103.284 185.666 104.592C186.704 105.326 187.872 103.741 186.835 103.008C184.313 101.217 180.865 101.267 178.279 102.891C175.692 104.516 174.258 107.585 174.281 110.561C174.284 111.089 174.58 111.584 175.156 111.645C175.638 111.698 176.242 111.307 176.24 110.772L176.246 110.779Z" fill="#BCDFF0"/>
<path d="M170.506 86.9317L170.504 86.9453C169.969 87.8058 169.061 88.5006 167.959 88.7978C159.421 91.0886 151.256 92.5547 143.43 93.27C142.561 93.3551 141.702 93.4211 140.843 93.4807C131.503 94.1456 122.649 93.7267 114.229 92.3439C112.067 91.9855 110.441 90.5283 109.985 88.5758L109.043 84.5634L102.378 56.2894C102.146 55.3133 102.574 54.3424 103.338 53.6843C103.95 53.1629 104.765 52.8411 105.638 52.8884C105.671 52.8856 105.696 52.8946 105.729 52.8918C116.811 53.788 127.525 54.1765 137.641 53.7408C139.618 53.656 141.567 53.5425 143.498 53.3868C144.372 53.3161 145.245 53.2452 146.107 53.1594C149.551 52.8305 152.916 52.3802 156.188 51.8083C157.333 51.6083 158.466 51.3931 159.588 51.1576C159.736 51.1267 159.879 51.0963 160.027 51.0655C162.029 50.6471 163.873 51.6118 164.4 53.2878C164.428 53.3898 164.457 53.4855 164.478 53.5931L166.318 62.2812L167.095 65.9779L170.998 84.4484C171.177 85.2997 170.976 86.177 170.506 86.9317Z" fill="#182E75"/>
<path d="M170.505 86.9316L170.504 86.9452C169.997 87.412 169.363 87.7798 168.642 87.9734C159.934 90.3119 151.596 91.7912 143.619 92.4913C142.752 92.5692 141.892 92.6351 141.041 92.6891C131.883 93.3078 123.19 92.8733 114.919 91.5192C112.757 91.1672 111.131 89.7035 110.674 87.7521L109.941 84.6271L103.067 55.4721C102.921 54.8553 103.042 54.2268 103.351 53.692C103.914 52.6898 105.122 51.9678 106.432 52.0749C117.238 52.9489 127.701 53.3432 137.6 52.9502C139.683 52.8704 141.743 52.7551 143.775 52.5975C144.647 52.5329 145.521 52.4557 146.382 52.3836C149.925 52.0515 153.383 51.5985 156.749 51.0165C157.927 50.8126 159.088 50.5876 160.237 50.3486C160.405 50.3136 160.568 50.2779 160.73 50.2422C162.846 49.7968 164.793 50.912 165.189 52.7642L166.935 61.0189L167.753 64.8934L171.708 83.6195C171.963 84.8098 171.473 86.0517 170.532 86.9281L170.505 86.9316Z" fill="#436FEE"/>
<path opacity="0.14" d="M104.028 55.8658L111.423 87.2442C111.872 89.1426 113.45 90.5606 115.553 90.9064C131.289 93.4946 148.567 92.6147 167.765 87.4617C169.78 86.9192 171.101 85.0199 170.725 83.2357L164.396 53.2467C164.016 51.4419 162.124 50.3592 160.07 50.7985C144.425 54.1077 126.421 54.1232 107.297 52.5711C105.345 52.4139 103.625 54.1511 104.035 55.8729L104.028 55.8658Z" fill="#6A90EB"/>
<path d="M166.909 61.0234C166.718 61.4518 166.52 61.8731 166.318 62.2811C166.317 62.2937 166.31 62.293 166.302 62.3049C166.19 62.5513 166.065 62.7815 165.947 63.0199C163.972 66.8839 161.21 70.378 157.879 73.1575C156.173 74.5791 154.325 75.846 152.374 76.9051C150.81 77.7472 149.027 78.6647 147.229 79.0454C148.69 74.0633 150.32 69.1194 152.361 64.3381C154.308 59.7645 156.6 55.1624 159.588 51.1638C159.665 51.0594 159.743 50.9486 159.826 50.8459C159.905 50.7415 159.973 50.65 160.05 50.553C160.103 50.4853 160.157 50.4123 160.211 50.3458C159.062 50.5848 157.902 50.8034 156.725 51.0064C156.606 51.1787 156.496 51.3393 156.393 51.5058C156.316 51.6103 156.252 51.7087 156.188 51.8145C155.153 53.3872 154.196 55.0352 153.311 56.691C150.558 61.8181 148.447 67.2452 146.63 72.7646C145.944 74.844 145.295 76.9412 144.673 79.0413C143.36 78.5829 142.671 77.2596 142.451 75.7496C142.077 73.272 142.333 70.6494 142.626 68.1776C143.236 63.0632 144.585 58.0828 146.113 53.1663C146.144 53.0643 146.174 52.9623 146.212 52.8599C146.263 52.6941 146.306 52.5402 146.362 52.3814C145.502 52.4537 144.629 52.5309 143.756 52.5953C143.706 52.7559 143.656 52.9154 143.605 53.0812C143.567 53.1835 143.536 53.2919 143.505 53.3949C142.345 57.1733 141.312 60.9868 140.648 64.8856C140.137 67.8498 139.852 70.8651 139.872 73.8664C139.895 76.1083 140.278 78.5678 141.937 80.2126C142.545 80.8207 143.244 81.1992 143.994 81.413C142.994 84.9321 142.064 88.4714 141.198 92.0315C141.142 92.2499 141.085 92.4694 141.035 92.6884C140.966 92.9587 140.905 93.2224 140.844 93.487C141.702 93.4274 142.561 93.3615 143.429 93.2762C143.49 93.0189 143.558 92.755 143.618 92.4977C143.676 92.2719 143.733 92.0472 143.789 91.8288C144.64 88.4129 145.543 85.0014 146.504 81.6037C147.544 81.5115 148.586 81.2205 149.529 80.8721C151.772 80.0436 153.932 78.9358 155.949 77.6339C159.983 75.0226 163.435 71.5624 166.105 67.569C166.443 67.064 166.777 66.5446 167.092 66.0104C167.092 66.0104 167.106 65.9991 167.106 65.9928C167.317 65.6389 167.528 65.2712 167.733 64.9039L166.914 61.0304L166.909 61.0234Z" fill="#7092F2"/>
<path d="M165.402 81.1433C165.245 80.8816 164.809 80.8804 164.569 80.71C164.331 80.5385 164.203 80.1215 163.909 80.0377C163.614 79.9527 163.292 80.2415 162.987 80.249C162.696 80.257 162.355 79.9883 162.061 80.0758C161.788 80.1592 161.645 80.5725 161.382 80.7368C161.12 80.9 160.691 80.8336 160.492 81.0365C160.276 81.258 160.356 81.6826 160.222 81.9395C160.074 82.2076 159.673 82.375 159.615 82.6603C159.559 82.9447 159.861 83.2613 159.91 83.5506C159.958 83.8398 159.757 84.2278 159.914 84.4894C160.071 84.75 160.507 84.7512 160.746 84.9227C160.985 85.0932 161.113 85.5101 161.407 85.595C161.702 85.6789 162.024 85.3902 162.329 85.3837C162.62 85.3757 162.961 85.6433 163.255 85.5558C163.527 85.4735 163.671 85.0591 163.933 84.8959C164.196 84.7327 164.625 84.7981 164.824 84.5951C165.041 84.3748 164.961 83.9491 165.094 83.6932C165.242 83.4251 165.643 83.2566 165.7 82.9723C165.758 82.6881 165.454 82.3713 165.406 82.081C165.358 81.7918 165.559 81.4038 165.402 81.1433Z" fill="#182E75"/>
<path d="M196.026 153.217C196.026 153.217 196.024 153.23 196.018 153.229C195.423 154.394 194.338 155.394 192.948 155.898C182.229 159.79 171.894 162.581 161.905 164.358C160.799 164.564 159.702 164.749 158.608 164.915C146.677 166.801 135.247 167.247 124.272 166.402C121.454 166.184 119.2 164.48 118.394 162.029L116.739 156.974L105.038 121.361C104.635 120.134 105.078 118.834 105.985 117.901C106.712 117.16 107.724 116.661 108.852 116.624L108.858 116.625C108.898 116.617 108.937 116.621 108.978 116.619C123.322 116.545 137.137 115.86 150.096 114.171C152.628 113.843 155.125 113.484 157.588 113.069C158.705 112.88 159.815 112.689 160.914 112.49C165.308 111.682 169.579 110.734 173.728 109.635C175.176 109.25 176.607 108.849 178.026 108.427C178.218 108.369 178.394 108.322 178.579 108.262C181.106 107.497 183.583 108.544 184.449 110.632L184.455 110.633C184.507 110.758 184.547 110.881 184.593 111.011L187.917 121.972L189.329 126.644L196.384 149.952C196.71 151.031 196.554 152.177 196.028 153.197L196.026 153.217Z" fill="#B24F24"/>
<path d="M196.026 153.217C196.026 153.217 196.024 153.23 196.018 153.229C195.418 153.891 194.64 154.422 193.733 154.753C182.794 158.728 172.242 161.549 162.068 163.332C160.963 163.53 159.867 163.71 158.774 163.869C147.07 165.674 135.848 166.083 125.063 165.252C122.245 165.041 119.99 163.337 119.185 160.879L117.892 156.94L105.828 120.223C105.574 119.443 105.662 118.626 105.992 117.901C106.606 116.554 108.081 115.491 109.774 115.482C123.761 115.41 137.249 114.755 149.934 113.162C152.599 112.829 155.236 112.453 157.831 112.032C158.948 111.848 160.059 111.657 161.156 111.465C165.678 110.645 170.075 109.684 174.333 108.558C175.821 108.163 177.293 107.754 178.747 107.315C178.959 107.252 179.164 107.189 179.375 107.132C182.046 106.323 184.668 107.544 185.382 109.88L188.54 120.296L190.022 125.186L197.18 148.822C197.639 150.325 197.151 151.976 196.04 153.211L196.026 153.217Z" fill="#FF6600"/>
<path d="M107.126 120.634L120.103 160.152C120.89 162.542 123.078 164.186 125.816 164.401C146.325 165.983 168.447 162.943 192.552 154.191C195.082 153.274 196.57 150.686 195.888 148.432L184.428 110.584C183.735 108.303 181.187 107.123 178.592 107.914C158.853 113.899 135.705 115.912 110.95 116.032C108.426 116.044 106.407 118.462 107.118 120.633L107.126 120.634Z" fill="#FF8533"/>
<path d="M188.533 120.301C188.334 120.868 188.127 121.433 187.915 121.986C187.908 121.998 187.907 122.004 187.899 122.017C187.778 122.34 187.645 122.657 187.519 122.973C185.408 128.157 182.242 132.955 178.268 136.901C176.234 138.921 173.996 140.748 171.606 142.327C169.693 143.588 167.498 144.957 165.223 145.65C166.552 139.081 168.101 132.548 170.195 126.174C172.186 120.079 174.629 113.908 178.032 108.434C178.121 108.292 178.21 108.143 178.304 108.001C178.392 107.865 178.472 107.728 178.559 107.599C178.615 107.507 178.678 107.407 178.741 107.315C177.287 107.746 175.822 108.163 174.327 108.551C174.197 108.781 174.073 108.999 173.957 109.23C173.869 109.367 173.801 109.511 173.727 109.648C172.564 111.789 171.527 114.003 170.566 116.231C167.59 123.125 165.485 130.344 163.754 137.636C163.108 140.388 162.5 143.15 161.929 145.923C160.186 145.484 159.16 143.853 158.706 141.935C157.955 138.795 157.991 135.39 158.092 132.176C158.306 125.534 159.495 118.983 160.907 112.496C160.935 112.359 160.962 112.224 160.997 112.089C161.04 111.868 161.082 111.669 161.138 111.457C160.04 111.649 158.929 111.84 157.813 112.023C157.764 112.236 157.721 112.449 157.671 112.662C157.638 112.797 157.609 112.939 157.581 113.076C156.509 118.059 155.605 123.076 155.182 128.164C154.858 132.027 154.814 135.933 155.184 139.798C155.455 142.675 156.23 145.79 158.538 147.731C159.386 148.442 160.325 148.854 161.316 149.041C160.414 153.674 159.621 158.332 158.9 162.997C158.85 163.29 158.806 163.569 158.768 163.862C158.711 164.213 158.659 164.564 158.609 164.908C159.704 164.736 160.8 164.556 161.906 164.352C161.956 164.014 162.013 163.67 162.063 163.325C162.108 163.026 162.16 162.735 162.203 162.449C162.919 157.961 163.698 153.48 164.558 149C165.885 148.76 167.199 148.281 168.369 147.72C171.167 146.402 173.817 144.738 176.261 142.842C181.163 139.036 185.211 134.207 188.201 128.781C188.579 128.089 188.952 127.39 189.294 126.667C189.301 126.66 189.31 126.648 189.311 126.642C189.548 126.159 189.771 125.673 189.996 125.176L188.515 120.287L188.533 120.301Z" fill="#FF985F"/>
<path d="M188.82 146.336C188.589 146.02 188.023 146.065 187.7 145.872C187.378 145.679 187.163 145.16 186.781 145.086C186.399 145.011 186.012 145.412 185.624 145.457C185.257 145.496 184.78 145.193 184.415 145.339C184.069 145.481 183.931 146.027 183.616 146.257C183.3 146.487 182.735 146.459 182.499 146.744C182.248 147.048 182.401 147.594 182.252 147.934C182.095 148.294 181.597 148.557 181.551 148.929C181.504 149.3 181.939 149.677 182.025 150.044C182.111 150.409 181.903 150.935 182.139 151.252C182.376 151.568 182.935 151.523 183.258 151.716C183.581 151.909 183.797 152.427 184.178 152.501C184.56 152.575 184.947 152.175 185.335 152.131C185.702 152.091 186.178 152.393 186.545 152.248C186.89 152.107 187.028 151.56 187.344 151.329C187.659 151.1 188.224 151.128 188.46 150.842C188.71 150.539 188.558 149.994 188.706 149.653C188.864 149.293 189.362 149.03 189.408 148.658C189.455 148.287 189.02 147.91 188.934 147.544C188.848 147.177 189.056 146.652 188.82 146.336Z" fill="#B24F24"/>
<path d="M141.921 74.9532C141.952 73.2585 141.853 71.5435 141.63 69.8077L141.199 66.3919L140.395 59.9901L140.04 57.1569L138.134 42.1071C135.965 24.8874 122.209 11.9628 105.68 10.1817C102.892 9.88132 100.015 9.90168 97.1166 10.2632C79.8969 12.4312 66.9781 26.1948 65.1964 42.7303C64.9655 44.8726 64.9213 47.0605 65.0785 49.284C65.126 49.9498 65.1915 50.6249 65.2778 51.2949L65.9853 56.9332L67.4319 68.3397L68.7749 78.9893C68.8291 79.4047 68.8896 79.8208 68.9518 80.2307C71.6094 96.8286 85.1119 109.164 101.236 110.901C104.024 111.202 106.9 111.188 109.8 110.827C127.019 108.659 139.937 94.8959 141.719 78.3593C141.841 77.2298 141.917 76.0954 141.929 74.9402L141.921 74.9532ZM119.596 85.5749C116.605 89.422 112.311 91.8659 107.482 92.4818C106.055 92.659 104.62 92.6756 103.216 92.5243C99.2327 92.0951 95.4229 90.2973 92.5034 87.4655C90.7203 85.7478 88.5517 82.9374 87.5475 78.8981C87.3645 78.1975 87.2267 77.4624 87.1253 76.6854L86.024 67.9588L85.2219 61.6093L84.6242 56.8478L83.6359 48.9781C83.0264 44.1494 84.3341 39.3688 87.3184 35.5273C90.3032 31.6806 94.6044 29.2237 99.4323 28.6215C100.86 28.4381 102.294 28.4277 103.698 28.579C107.689 29.009 111.499 30.8068 114.411 33.6315C116.498 35.6596 119.125 39.1727 119.783 44.4098L121.526 58.1675L121.763 60.0698L122.939 69.3927L123.285 72.1185C123.459 73.5182 123.479 74.9215 123.338 76.2935C122.991 79.6383 121.721 82.8378 119.602 85.5756L119.596 85.5749Z" fill="#62998F"/>
<path d="M110.263 27.0073C114.839 28.5568 118.908 33.4679 120.335 36.5356" stroke="#507F77" stroke-width="1.1091" stroke-miterlimit="10" stroke-linecap="round"/>
<path d="M141.922 74.9532L123.337 76.2998C123.479 74.9277 123.459 73.5245 123.285 72.1259L122.938 69.399L121.763 60.0761C127.541 59.6093 133.634 58.6668 140.041 57.1506L140.396 59.9837L141.2 66.3856L141.631 69.8014C141.854 71.5361 141.946 73.2578 141.922 74.9458L141.922 74.9532Z" fill="black"/>
<path d="M86.6409 75.9069L68.0564 77.2546C68.198 75.8815 68.1767 74.4791 68.0041 73.0796L67.6573 70.3538L66.4809 61.0307C72.2593 60.5629 78.3538 59.6206 84.76 58.1043L85.1155 60.9375L85.9182 67.3403L86.3502 70.7562C86.5728 72.4909 86.6651 74.2116 86.6416 75.9006L86.6409 75.9069Z" fill="black"/>
<path d="M69.8696 63.9849L68.2588 50.301" stroke="#507F77" stroke-width="1.1091" stroke-miterlimit="10" stroke-linecap="round"/>
<path d="M14.5371 169.039C26.0382 167.754 38.0958 166.16 47.9453 159.604C59.1258 152.167 64.6733 138.885 68.4706 126.51C72.6443 112.914 74.7518 98.8056 78.393 85.0662C81.7322 72.4711 86.3837 59.5939 95.05 49.6132C102.487 41.047 113.674 34.2126 125.389 35.1908C126.737 35.3032 128.089 35.5148 129.408 35.842C129.929 35.9706 130.467 35.8231 130.689 35.2864C130.87 34.8431 130.649 34.132 130.134 34.0042C118.616 31.1513 106.906 35.9538 98.2839 43.5741C88.463 52.2536 82.6629 64.5049 78.7492 76.7935C74.4824 90.208 72.3392 104.154 68.8712 117.767C67.1054 124.705 64.992 131.573 62.086 138.124C59.3888 144.208 55.9641 150.182 51.0031 154.715C42.1304 162.809 29.9708 165.173 18.4343 166.591C17.0285 166.763 15.6239 166.923 14.2194 167.082C12.962 167.224 13.2745 169.168 14.5385 169.026L14.5371 169.039Z" fill="#BCDFF0"/>
<path d="M146.56 156.125L119.031 156.918L117.885 156.946L116.732 156.974L105.031 121.359C104.628 120.133 105.073 118.833 105.979 117.9C106.593 116.552 108.068 115.49 109.761 115.481C123.748 115.408 137.236 114.754 149.92 113.161L150.028 113.761L150.095 114.178L155.263 145.554C156.158 150.982 152.055 155.957 146.553 156.118L146.56 156.125Z" fill="black"/>
<path d="M153.325 149.196L73.6741 151.489C66.4242 151.692 60.1268 146.56 58.8608 139.421L57.8936 133.933L49.5742 86.9228C49.4879 86.4305 49.4364 85.9303 49.416 85.4387C49.2587 79.9182 53.6357 75.1576 59.3301 75.0446L138.558 73.4799C145.842 73.3338 152.136 78.5634 153.322 85.7607L162.035 138.633C162.93 144.061 158.825 149.036 153.325 149.196Z" fill="#62998F"/>
<path d="M50.9948 79.7431L60.5581 66.4036L169.344 132.537L160.083 145.883L50.9948 79.7431Z" fill="#62998F"/>
<path d="M161.419 137.662L159.291 137.723L150.908 137.97L118.933 138.884L107.839 139.209L107.813 139.206L88.0642 139.773L81.7814 139.956C80.9397 139.977 80.1131 139.927 79.2932 139.806C73.1374 138.938 68.0787 134.198 66.9681 127.888L63.0636 105.81L60.5593 91.6611L57.6804 75.3894C56.5957 69.2732 61.2324 63.6427 67.43 63.5104L77.718 63.3115L88.7945 63.0911L117.873 62.5177L126.652 62.3402L136.616 62.1457L145.17 61.9769L146.653 61.9453C153.949 61.8005 160.236 67.0367 161.423 74.2267L162.124 78.4578L164.166 90.8934L167.253 109.638L167.629 111.911L170.134 127.099C171.029 132.527 166.932 137.503 161.419 137.662Z" fill="#68DACB"/>
<path d="M77.7119 63.3107C77.4366 63.664 77.1665 64.0179 76.8905 64.3775C70.9631 72.2415 66.0888 80.8668 61.5872 89.5971C61.236 90.2796 60.8922 90.9628 60.5466 91.6522L63.0519 105.803C65.0852 101.337 67.2216 96.9036 69.4701 92.535C70.0462 91.414 70.6359 90.2955 71.2313 89.183C71.4891 88.6959 71.7515 88.2156 72.0087 87.7348C72.1652 87.4474 72.3224 87.1537 72.4844 86.8743C72.5255 86.7989 72.5658 86.7309 72.6006 86.6549C72.6153 86.6373 72.623 86.6243 72.6332 86.5988C72.6339 86.5925 72.6409 86.5869 72.6416 86.5806C72.6501 86.5613 72.6658 86.5438 72.682 86.5115C72.6981 86.4803 72.7237 86.4309 72.755 86.3875C73.9004 84.3374 75.0706 82.3038 76.2914 80.2948C78.6699 76.3689 81.2158 72.5472 83.9946 68.8954C85.3245 67.1567 86.7107 65.4495 88.1493 63.8076C88.3606 63.5655 88.5717 63.3244 88.7957 63.0911L77.7119 63.3107ZM164.166 90.8933C164.044 91.7844 163.907 92.6815 163.773 93.5659C163.409 95.8386 163.057 98.1859 162.452 100.426L162.45 100.44C162.45 100.44 162.449 100.452 162.441 100.464L162.439 100.484C162.439 100.484 162.429 100.523 162.418 100.562C162.406 100.6 162.396 100.638 162.385 100.676L162.384 100.69C162.373 100.735 162.36 100.793 162.339 100.857C162.339 100.857 162.33 100.882 162.33 100.889C162.308 100.96 162.295 101.017 162.285 101.056C162.205 101.371 162.119 101.679 162.038 101.993C161.897 102.513 161.755 103.033 161.606 103.552C161.249 104.789 160.865 106.022 160.443 107.239C157.147 116.8 151.638 125.674 150.989 135.996C150.945 136.646 150.926 137.305 150.915 137.964L159.306 137.718C159.384 135.771 159.618 133.847 160.021 131.935C160.079 131.651 160.149 131.368 160.213 131.077C160.253 130.896 160.242 130.803 160.216 130.8C160.326 130.396 160.533 129.942 160.626 129.635C160.999 128.387 161.428 127.151 161.891 125.927C162.8 123.501 163.842 121.123 164.872 118.743C165.855 116.477 166.787 114.206 167.643 111.906L164.18 90.8873L164.166 90.8933ZM136.623 62.1463C136.502 62.8993 136.382 63.646 136.276 64.3878C135.588 69.1108 134.998 73.8432 134.123 78.5449C133.679 80.9419 133.192 83.3204 132.658 85.7013C132.518 86.3203 132.379 86.9394 132.233 87.5578C132.194 87.7323 132.061 88.2988 131.998 88.5761C131.729 89.7164 131.408 90.8585 131.102 91.9809C128.554 101.405 125.216 110.624 120.878 119.367C120.379 120.37 119.877 121.36 119.346 122.353C119.09 122.84 118.833 123.315 118.57 123.803L118.564 123.802C118.564 123.802 118.546 123.839 118.537 123.859C118.512 123.902 118.478 123.978 118.415 124.076C118.267 124.338 118.12 124.599 117.972 124.867C116.777 126.952 115.51 129.016 114.184 131.026C112.946 132.888 111.639 134.716 110.236 136.454C109.574 137.268 108.887 138.059 108.176 138.836C108.162 138.847 108.146 138.865 108.139 138.877C108.067 138.989 107.962 139.103 107.845 139.21L118.946 138.885C119.59 138.004 120.2 137.118 120.776 136.248C131.831 119.675 138.406 100.471 142.181 81.0059C143.089 76.3268 143.767 71.6167 144.41 66.8899C144.626 65.2482 144.869 63.603 145.176 61.9775L136.629 62.147L136.623 62.1463ZM126.659 62.3408L117.879 62.5183C117.607 63.2688 117.29 64.0006 116.935 64.722C116.835 64.9091 116.748 65.1051 116.649 65.2923C116.632 65.3235 116.606 65.3802 116.574 65.4427C116.545 65.5194 116.518 65.5825 116.487 65.6323C116.487 65.6386 116.479 65.6441 116.478 65.6504C116.234 66.1328 115.874 66.5961 115.596 67.0353C114.923 68.066 114.201 69.0649 113.454 70.0483C112.025 71.9093 110.498 73.6939 109.014 75.5096C105.93 79.2999 102.992 83.2048 100.195 87.2174C94.3965 95.5315 89.2305 104.297 84.6937 113.354C82.5971 117.548 80.8123 121.848 79.6867 126.41C78.6097 130.768 78.1809 135.418 79.2871 139.805C80.0996 139.925 80.9273 139.975 81.768 139.953L88.057 139.772C87.9635 139.544 87.7246 138.937 87.6087 138.601C87.6032 138.593 87.6038 138.587 87.6038 138.587C87.5853 138.513 87.5605 138.437 87.5419 138.362C87.4708 138.104 87.4137 137.834 87.3633 137.571C87.272 137.125 87.2018 136.681 87.1437 136.232C87.1067 135.963 87.0847 135.684 87.054 135.416C87.0445 135.316 87.0418 135.223 87.026 135.123C87.1411 134.785 87.0131 134.137 87.0249 133.781C87.052 133.223 87.0992 132.666 87.1467 132.097C87.2692 130.96 87.4642 129.832 87.7101 128.715C87.7227 128.657 87.7339 128.612 87.7396 128.56C87.7298 128.592 87.7185 128.637 87.7069 128.675C87.7105 128.524 87.7642 128.331 87.8358 128.16C87.8674 128.045 87.9063 127.931 87.9369 127.834C88.0661 127.366 88.2033 126.893 88.3454 126.432C88.7218 125.21 89.1538 124.015 89.6194 122.824C91.3446 118.464 93.5521 114.288 95.7857 110.176C95.9236 109.933 96.057 109.682 96.1878 109.445C96.2047 109.408 96.2288 109.371 96.2456 109.334C96.2545 109.321 96.2552 109.314 96.2628 109.302C96.2713 109.283 96.2791 109.27 96.2881 109.246C96.3039 109.227 96.3124 109.208 96.3207 109.19C96.3292 109.17 96.3292 109.17 96.3379 109.158C96.6488 108.604 96.9666 108.043 97.2838 107.489C97.918 106.382 98.5659 105.276 99.2195 104.177C100.476 102.086 101.755 100.017 103.072 97.9717C105.751 93.8409 108.577 89.8048 111.543 85.8837C114.456 82.0282 117.666 78.4175 120.567 74.5543C123.343 70.8564 125.535 66.8242 126.639 62.3451L126.659 62.3408Z" fill="#A1E8DF"/>
<path d="M124.778 118.05L119.386 118.235L107.343 118.655L108.217 101.665C103.361 100.309 100.048 95.6182 100.606 90.4397C100.941 87.331 102.608 84.6827 104.975 83.0025C106.986 81.5733 109.515 80.8427 112.167 81.1284C117.927 81.749 122.099 86.9223 121.478 92.6887C121.145 95.7775 119.495 98.4009 117.154 100.077L124.778 118.05Z" fill="#62998F"/>
<path d="M119.387 118.229L107.344 118.648L108.218 101.658C103.362 100.302 100.049 95.6119 100.608 90.4323C100.942 87.3246 102.609 84.6763 104.976 82.9952C105.787 82.8847 106.627 82.8763 107.483 82.9685C113.243 83.5892 117.416 88.7624 116.795 94.5288C116.462 97.6176 114.811 100.241 112.477 101.918L119.393 118.229L119.387 118.229Z" fill="black"/>
<path d="M63.9551 110.902L67.2255 128.496C68.531 135.515 74.8106 140.506 81.9404 140.184L96.8576 139.519" stroke="#507F77" stroke-width="1.1091" stroke-miterlimit="10" stroke-linecap="round"/>
<path d="M19.1116 139.704L14.87 98.7484C14.6145 96.2761 15.8186 93.8695 18.0323 92.5154C34.6199 82.4117 54.3351 75.7749 77.8897 73.4244C80.3613 73.1758 82.6039 74.8643 82.8902 77.174L87.7726 115.985C88.0686 118.323 86.3787 120.46 83.9052 120.854C65.0656 123.838 44.8918 131.838 24.0872 142.208C21.9648 143.268 19.3454 141.948 19.1123 139.697L19.1116 139.704Z" fill="#8C3B66"/>
<path d="M78.6993 128.888C71.923 129.968 64.9795 131.691 57.8929 133.933L49.5735 86.9231C49.4882 86.4309 49.4368 85.9307 49.4163 85.4391C56.728 83.6172 64.4695 82.2778 72.6845 81.4523C75.1562 81.2026 77.398 82.8985 77.6843 85.2082L82.5667 124.019C82.8627 126.357 81.1784 128.501 78.6993 128.888Z" fill="black"/>
<path d="M83.1958 120.084C73.3356 121.644 63.1086 124.585 52.6252 128.503C51.4612 128.938 50.2887 129.394 49.1228 129.857C40.6856 133.169 32.0912 137.092 23.3848 141.432C21.256 142.491 18.6431 141.172 18.4158 138.928L14.1554 97.965C13.8999 95.4926 15.104 93.085 17.3177 91.7319C27.9158 85.283 39.7759 80.2383 53.111 76.8387C54.2529 76.5394 55.4208 76.2557 56.5854 75.9918C59.9797 75.2074 63.4548 74.5318 67.038 73.9594C68.3345 73.7554 69.6502 73.561 70.9783 73.3796C73.0174 73.0972 75.0774 72.8574 77.1809 72.6479C79.6588 72.4 81.8945 74.0941 82.1871 76.4045L82.5576 79.3446L83.3048 85.285L87.0694 115.216C87.3592 117.552 85.6749 119.697 83.1951 120.09L83.1958 120.084Z" fill="#FF9ECB"/>
<path d="M19.6088 137.736L15.5188 98.3164C15.2738 95.9314 16.4346 93.6191 18.563 92.3218C34.5351 82.5943 53.504 76.208 76.1836 73.9408C78.5616 73.7023 80.7184 75.3284 81.0002 77.5515L85.6955 114.909C85.9755 117.159 84.3526 119.217 81.9671 119.594C63.8328 122.47 44.413 130.168 24.3898 140.147C22.3442 141.162 19.8256 139.892 19.6031 137.728L19.6088 137.736Z" fill="#FFB8D9"/>
<path d="M79.513 110.602C79.2831 110.287 78.7166 110.332 78.3938 110.138C78.071 109.945 77.8567 109.426 77.4742 109.352C77.0928 109.278 76.706 109.679 76.3182 109.723C75.95 109.763 75.4741 109.461 75.1083 109.607C74.7634 109.747 74.6247 110.294 74.3095 110.524C73.9941 110.755 73.429 110.727 73.193 111.012C72.9422 111.315 73.0952 111.86 72.9458 112.2C72.7879 112.56 72.2914 112.823 72.2439 113.195C72.1975 113.567 72.6323 113.944 72.7184 114.31C72.8046 114.676 72.5957 115.202 72.833 115.518C73.0702 115.834 73.6294 115.789 73.9522 115.982C74.275 116.176 74.4903 116.695 74.8717 116.769C75.2531 116.843 75.64 116.442 76.0278 116.398C76.3958 116.358 76.8719 116.66 77.2375 116.515C77.5836 116.374 77.7213 115.827 78.0375 115.597C78.3529 115.366 78.918 115.394 79.153 115.109C79.4037 114.806 79.2518 114.261 79.4002 113.92C79.5581 113.561 80.0556 113.297 80.1021 112.926C80.1485 112.554 79.7136 112.176 79.6275 111.811C79.5414 111.445 79.7502 110.919 79.513 110.602Z" fill="#8C3B66"/>
<path d="M82.5584 79.3383C82.0732 80.5935 81.5187 81.8094 80.9602 82.945C78.761 87.4189 75.624 91.4535 71.8807 94.7365C69.9855 96.3888 67.9417 97.8804 65.747 99.1238C63.7623 100.244 61.5704 101.402 59.3167 101.959C62.1518 92.136 65.5562 82.1246 70.9785 73.3796C69.6504 73.561 68.3347 73.7554 67.0371 73.9592C66.6133 74.7136 66.1989 75.4882 65.7935 76.2498C62.6783 82.1645 60.2734 88.4196 58.2219 94.7712C57.4465 97.1783 56.7104 99.597 56.0062 102.024C55.6568 101.901 55.3262 101.72 55.03 101.458C54.3015 100.803 53.9341 99.8 53.7312 98.8589C53.1318 96.0197 53.432 92.9274 53.7261 90.0791C54.222 85.2897 55.2881 80.6086 56.5783 75.991C55.4066 76.2605 54.2468 76.5387 53.1049 76.838C52.309 79.811 51.6207 82.8221 51.1219 85.8611C50.5396 89.4187 50.2168 93.0374 50.3223 96.6489C50.4068 99.3007 51.0125 102.2 53.1525 103.983C53.7584 104.491 54.4282 104.841 55.1247 105.062C52.8473 113.253 50.9099 121.547 49.103 129.855C50.2699 129.392 51.4414 128.936 52.6054 128.501C54.3417 120.721 56.2067 112.98 58.3426 105.302C59.7063 105.146 61.073 104.725 62.315 104.237C64.9155 103.216 67.3715 101.888 69.6972 100.348C74.3227 97.2796 78.3367 93.1927 81.3619 88.5375C82.036 87.4942 82.6889 86.4017 83.292 85.2772L82.5448 79.3368L82.5584 79.3383Z" fill="#F7D2E4"/>
<path d="M164.166 90.8935L162.123 78.4578C157.943 79.8437 154.047 83.7519 151.834 89.0892C151.575 88.9155 151.298 88.7868 150.998 88.6885C149.569 88.2834 148.016 88.9545 146.839 90.3213L122.687 87.2359L122.023 87.1516C122.023 87.1516 122.014 87.1634 122.009 87.1564L116.971 86.5146L116.017 92.3111L120.586 93.1215C120.586 93.1215 120.585 93.1278 120.593 93.1286L121.545 93.3036L145.528 97.5794C145.98 98.6058 146.73 99.3601 147.71 99.6444C148.478 99.8729 149.295 99.7758 150.066 99.429C150.473 105.333 153.403 110.154 158.047 111.507C161.096 112.391 164.356 111.632 167.257 109.659L164.17 90.9131L164.166 90.8935Z" fill="black"/>
<path d="M158.537 85.9657C163.255 85.0644 166.069 79.0449 164.822 72.5208C163.574 65.9967 158.74 61.4383 154.022 62.3396C149.304 63.242 146.491 69.2615 147.738 75.7856C148.985 82.3097 153.82 86.8681 158.537 85.9657Z" fill="black"/>
<path d="M159.843 85.1648C164.346 84.3032 167.032 78.5561 165.842 72.3275C164.651 66.0999 160.035 61.748 155.531 62.6086C151.027 63.4702 148.341 69.2172 149.532 75.4448C150.722 81.6735 155.338 86.0252 159.843 85.1648Z" fill="#62998F"/>
<path d="M168.542 71.5586C166.646 62.1645 159.625 55.7129 152.851 57.1438C146.665 58.4518 142.832 65.8881 143.666 74.3285C143.359 74.2954 143.054 74.3147 142.75 74.3744C141.296 74.6869 140.24 76.0201 139.853 77.7753L117.097 86.4484L116.471 86.6852C116.471 86.6852 116.469 86.6988 116.455 86.6974L111.709 88.5042L113.601 94.0657L118.011 92.6248L118.023 92.6262L118.948 92.33L142.111 84.7839C142.987 85.4794 144.01 85.7949 145.011 85.5783C145.801 85.4198 146.466 84.9425 146.981 84.2777C150.12 89.2939 154.977 92.1621 159.717 91.1599C166.477 89.7287 170.442 80.9596 168.547 71.5656L168.542 71.5586ZM158.661 85.9395C153.962 86.9332 149.08 82.4559 147.773 75.9466C146.46 69.4303 149.21 63.3507 153.901 62.3572C158.607 61.3641 163.483 65.8334 164.796 72.3507C166.102 78.8663 163.36 84.9457 158.661 85.9395Z" fill="#75C2A3"/>
<path d="M118.006 92.6115L113.596 94.0524L111.705 88.4909L116.451 86.683C114.703 87.8884 115.998 92.541 118.006 92.6115Z" fill="black"/>
<path d="M139.848 77.7617C139.848 77.7617 139.686 80.6051 140.896 82.6908" stroke="#507F77" stroke-width="0.739403" stroke-miterlimit="10" stroke-linecap="round"/>
<path d="M145.209 79.3896C145.209 79.3896 145.352 82.2328 146.775 84.1766" stroke="#507F77" stroke-width="0.739403" stroke-miterlimit="10" stroke-linecap="round"/>
<path d="M33.3849 89.334L30.8243 88.7602C28.8826 88.3265 26.8503 88.914 25.4435 90.321L23.5855 92.1751L24.1586 89.6144C24.5926 87.6727 24.0056 85.6402 22.5979 84.2342L20.7435 82.3758L23.3046 82.9486C25.2465 83.3823 27.2784 82.7959 28.6855 81.3879L30.5428 79.5336L29.9701 82.0944C29.5364 84.0361 30.1238 86.0686 31.5308 87.4756L33.3849 89.334Z" fill="#FAEFCB"/>
<path d="M157.885 45.0733L157.167 44.3757C156.622 43.8478 155.84 43.6316 155.101 43.8094L154.125 44.0404L154.823 43.3231C155.35 42.7788 155.567 41.9968 155.388 41.2573L155.158 40.2802L155.875 40.9788C156.419 41.5067 157.202 41.723 157.941 41.5451L158.918 41.3131L158.219 42.0315C157.691 42.5757 157.475 43.3578 157.653 44.0972L157.885 45.0733Z" fill="#F6CFB0"/>
<path d="M197.782 124.714L195.937 124.297C195.459 124.193 194.969 124.331 194.621 124.677L193.281 126.012L193.698 124.168C193.802 123.691 193.664 123.2 193.318 122.852L191.983 121.513L193.827 121.93C194.305 122.033 194.795 121.894 195.143 121.549L196.483 120.213L196.066 122.058C195.961 122.536 196.101 123.027 196.446 123.375L197.782 124.714Z" fill="#FAEFCB"/>
<path d="M189.5 114.572L186.849 113.976C186.166 113.823 185.456 114.031 184.967 114.52L183.049 116.44L183.646 113.789C183.798 113.106 183.59 112.396 183.102 111.907L181.181 109.99L183.832 110.586C184.516 110.738 185.226 110.531 185.714 110.042L187.632 108.121L187.036 110.773C186.883 111.456 187.091 112.166 187.58 112.655L189.5 114.572Z" fill="#FAEFCB"/>
</g>
</svg>
