<svg width="311" height="419" viewBox="0 0 311 419" fill="none" xmlns="http://www.w3.org/2000/svg">
<path d="M96.1843 194.284C92.7922 213.228 93.0073 236.277 99.7289 236.927C106.455 237.568 108.226 234.296 111.783 221.898C115.354 209.497 118.764 213.073 118.764 213.073C118.764 213.073 119.291 229.028 126.26 233.782C127.196 234.427 128.173 235.16 129.17 235.935C131.506 237.776 133.938 239.818 136.319 241.41C140.383 244.132 144.27 245.525 147.208 242.198L147.355 242.262L156.835 246.479L158.406 247.172C158.406 247.172 163.716 249.072 166.036 244.177C166.036 244.177 180.05 244.777 176.353 234.283C176.353 234.283 174.861 230.891 171.96 229.684L176.626 225.461C176.626 225.461 188.859 225.231 190.907 222.149C190.907 222.149 228.631 235.881 246.823 217.82L260.384 210.353L269.806 205.167L273.693 203.029L239.005 146.788L236.702 147.748L236.673 147.759L228.72 151.068C228.72 151.068 186.187 158.089 164.442 151.47C142.688 144.846 134.063 152.25 130.673 154.502C127.291 156.76 99.5869 175.34 96.1843 194.284Z" fill="#A44303"/>
<path d="M237.101 143.826C237.101 143.826 237.102 143.876 237.109 143.9C239.71 179.713 260.595 205.838 260.595 205.838L269.925 200.707L237.138 143.889L237.101 143.826Z" fill="black"/>
<path d="M157.037 246.989C156.231 245.853 155.632 244.22 155.677 241.875C155.704 240.87 155.012 239.895 154.035 239.439C151.635 238.324 148.057 237.654 147.686 242.837" fill="#F1C453"/>
<path d="M111.39 192.813C111.39 192.813 116.979 196.622 118.465 199.134" stroke="#231005" stroke-width="1.31702" stroke-miterlimit="10" stroke-linecap="round"/>
<path d="M138.431 218L139.369 226.008" stroke="#231005" stroke-width="1.31702" stroke-miterlimit="10" stroke-linecap="round"/>
<path d="M134.548 224.452C134.548 224.452 150.776 229.746 145.901 244.833" stroke="#231005" stroke-width="1.31702" stroke-miterlimit="10" stroke-linecap="round"/>
<path d="M145.235 217.907C145.235 217.907 153.92 223.291 154.173 231.094" stroke="#231005" stroke-width="1.31702" stroke-miterlimit="10" stroke-linecap="round"/>
<path d="M166.771 236.219C167.04 237.916 167.795 240.567 169.963 241.893C170.615 242.295 170.657 243.197 170.065 243.561C168.886 244.28 166.922 244.954 164.187 244.096C164.187 244.096 164.215 239.162 161.616 236.543C161.616 236.543 162.647 235.167 164.693 234.745C165.626 234.553 166.615 235.272 166.754 236.226L166.771 236.219Z" fill="#F1C453"/>
<path d="M149.194 229.787C149.194 229.787 165.57 233.066 164.223 245.771" stroke="#231005" stroke-width="1.31702" stroke-miterlimit="10" stroke-linecap="round"/>
<path d="M155.696 213.307C155.696 213.307 165.4 222.303 175.353 226.244" stroke="#231005" stroke-width="1.31702" stroke-miterlimit="10" stroke-linecap="round"/>
<path d="M156.593 219.174C156.593 219.174 155.655 223.014 151.728 223.882" stroke="#231005" stroke-width="1.31702" stroke-miterlimit="10" stroke-linecap="round"/>
<path d="M161.035 231.385C161.035 231.385 164.387 227.918 170.49 230.999" stroke="#231005" stroke-width="1.31702" stroke-miterlimit="10" stroke-linecap="round"/>
<path d="M186.523 217.479L189.725 221.99" stroke="#231005" stroke-width="1.31702" stroke-miterlimit="10" stroke-linecap="round"/>
<path d="M42.1902 276.15C55.956 274.884 68.599 272.611 80.2263 269.412C81.5187 269.07 82.7942 268.705 84.04 268.332C97.7785 264.26 110.055 258.882 121.014 252.335C123.829 250.657 125.084 247.65 124.344 244.581L122.799 238.243L122.144 235.535L119.475 224.509L111.979 193.588C111.611 192.049 110.304 190.865 108.745 190.321C107.507 189.896 106.114 189.866 104.907 190.404C104.851 190.426 104.818 190.444 104.773 190.464C89.6846 197.73 74.756 204.078 60.0683 208.895C57.2074 209.847 54.3517 210.735 51.5018 211.547C50.2078 211.909 48.921 212.275 47.6431 212.627C42.5092 214.002 37.4124 215.174 32.3553 216.103C30.5918 216.428 28.8252 216.721 27.0669 216.981C26.8286 217.015 26.6049 217.058 26.3764 217.089C23.2314 217.56 21.3112 219.958 21.7653 222.672L21.7564 222.686C21.7829 222.842 21.8193 222.994 21.8595 223.161L25.4813 236.768L27.0318 242.564L34.7436 271.494C35.0963 272.823 36.0101 273.991 37.2247 274.828L37.2319 274.832C38.6179 275.801 40.4001 276.32 42.1766 276.153L42.1902 276.15Z" fill="#B24F24"/>
<path d="M37.2934 274.908C37.2934 274.908 37.2934 274.908 37.3007 274.913C38.3627 275.323 39.5183 275.507 40.6874 275.402C54.7372 274.1 67.6297 271.762 79.4553 268.473C80.7453 268.118 82.0071 267.755 83.2619 267.368C96.7017 263.321 108.735 258.015 119.505 251.581C122.327 249.908 123.583 246.903 122.834 243.827L121.632 238.891L110.472 192.847C110.232 191.867 109.618 191.033 108.796 190.41C107.277 189.267 105.044 188.861 103.267 189.724C88.5531 196.825 73.9783 203.024 59.6464 207.794C56.634 208.798 53.6243 209.744 50.6288 210.611C49.3379 210.984 48.0526 211.352 46.7747 211.704C41.5007 213.128 36.2695 214.34 31.0699 215.306C29.2524 215.646 27.4569 215.95 25.6461 216.226C25.3829 216.263 25.1319 216.298 24.8711 216.348C21.5475 216.842 19.5826 219.508 20.355 222.419L23.7941 235.344L25.4111 241.402L33.2384 270.733C33.7325 272.6 35.3137 274.141 37.2806 274.909L37.2934 274.908Z" fill="#FF6600"/>
<path opacity="0.74" d="M109.4 193.955L121.411 243.509C122.135 246.499 120.912 249.417 118.17 251.051C97.6878 263.284 72.517 271.326 41.5638 274.192C38.3182 274.49 35.0761 272.447 34.3298 269.653L21.8062 222.693C21.051 219.864 22.9681 217.276 26.1943 216.798C50.7738 213.174 76.3564 203.484 102.391 190.92C105.05 189.638 108.732 191.232 109.393 193.95L109.4 193.955Z" fill="#FF8534"/>
<path d="M78.9226 268.757C78.6835 268.465 78.4508 268.179 78.2195 267.895C74.6269 263.486 70.978 259.12 67.2471 254.797C65.7288 255.211 64.081 255.359 62.5221 255.35C58.8099 255.355 55.0217 254.924 51.3131 254.137C43.8626 252.551 36.6269 249.464 30.108 245.211C29.2884 244.662 28.4483 244.109 27.6478 243.513C27.6478 243.513 27.6163 243.512 27.6164 243.492C27.0657 243.098 26.5322 242.696 25.9752 242.276L24.392 236.345C24.9612 236.848 25.5273 237.34 26.0973 237.826C26.113 237.836 26.1201 237.841 26.1358 237.851C26.4538 238.134 26.8056 238.401 27.1284 238.676C32.599 243.116 38.8911 246.62 45.4916 248.822C48.8614 249.934 52.3263 250.767 55.7843 251.227C58.556 251.603 61.6835 251.956 64.4594 251.558C58.9166 245.25 53.1737 239.092 46.9724 233.385C41.0429 227.912 34.6192 222.586 27.6434 218.483C27.4547 218.372 27.2811 218.269 27.0884 218.164C26.9162 218.062 26.7392 217.967 26.5742 217.87C26.4587 217.795 26.3273 217.73 26.2079 217.662C27.9816 217.393 29.7412 217.095 31.5294 216.768C31.806 216.946 32.0677 217.114 32.3309 217.295C32.5125 217.401 32.6688 217.513 32.8371 217.622C35.391 219.311 37.8641 221.144 40.266 223.025C47.7072 228.845 54.4522 235.447 60.8643 242.328C63.2757 244.925 65.6632 247.545 68.012 250.209C69.5208 248.874 69.5464 246.621 68.7934 244.36C67.57 240.648 65.3695 237.064 63.2271 233.699C58.7802 226.76 53.4016 220.392 47.8258 214.225C47.7058 214.09 47.5889 213.966 47.4721 213.842C47.2877 213.636 47.1237 213.452 46.9269 213.248C48.1791 212.903 49.4401 212.545 50.7059 212.178C50.8942 212.378 51.0691 212.579 51.2534 212.785C51.3788 212.915 51.4989 213.05 51.611 213.182C55.8783 217.938 60.0018 222.806 63.6652 227.987C66.4522 231.923 68.9765 236.047 71.0565 240.333C72.6085 243.527 73.799 247.217 72.6554 250.436C72.2349 251.608 71.5326 252.522 70.6311 253.22C74.5003 257.681 78.2799 262.22 81.99 266.82L81.9971 266.824C82.2338 267.104 82.4572 267.385 82.6885 267.67L82.697 267.675C82.9698 268.016 83.2418 268.358 83.5146 268.698C82.289 269.07 81.0398 269.426 79.7773 269.754C79.5077 269.425 79.2349 269.085 78.9652 268.755L78.9226 268.757Z" fill="#FF985F"/>
<path d="M119.424 232.726L120.667 232.279L121.897 231.834L118.896 220.924L115.07 211.927L113.983 209.378L113.129 209.811L93.975 219.448L95.2905 227.647C95.2905 227.647 103.344 239.571 119.431 232.731L119.424 232.726Z" fill="black"/>
<path d="M157.989 171.686C157.989 171.686 147.728 178.682 139.052 186.489C132.249 192.612 121.865 189.932 113.588 198.738C103.707 209.251 91.0761 202.199 90.0113 213.735C89.4138 220.137 97.4667 237.809 128.674 220.07C128.674 220.07 143.779 208.853 156.823 210.933C169.868 213.012 193.453 223.813 220.888 206.871L171.446 163.135L157.994 171.678L157.989 171.686Z" fill="#A44303"/>
<path d="M220.45 206.153C220.45 206.153 198.762 224.307 156.269 210.221C156.269 210.221 140.42 208.321 128.067 219.376C128.067 219.376 122.197 223.154 119.69 223.848" stroke="#231005" stroke-width="1.31702" stroke-miterlimit="10" stroke-linecap="round"/>
<path d="M160.032 172.112C160.032 172.112 153.534 181.404 147.049 184.336C143.16 186.1 138.708 188.976 135.781 190.989C133.67 192.44 131.301 193.531 128.764 194.243C124.257 195.507 116.908 197.994 113.495 201.538" stroke="#231005" stroke-width="1.31702" stroke-miterlimit="10" stroke-linecap="round"/>
<path d="M137.314 242.905C137.003 237.436 132.588 237.327 130.355 237.627C132.625 239.393 134.995 241.375 137.314 242.905Z" fill="#F1C453"/>
<path d="M129.729 177.439C129.729 177.439 131.012 187.334 135.987 191.012" stroke="#231005" stroke-width="1.31702" stroke-miterlimit="10" stroke-linecap="round"/>
<path d="M133.378 188.733L125.217 195.729" stroke="#231005" stroke-width="1.31702" stroke-miterlimit="10" stroke-linecap="round"/>
<path d="M139.517 165.25C139.517 165.25 143.779 180.587 147.365 183.77" stroke="#231005" stroke-width="1.31702" stroke-miterlimit="10" stroke-linecap="round"/>
<path d="M125.327 232.933C125.327 232.933 123.315 235.858 123.519 236.072" stroke="#231005" stroke-width="1.31702" stroke-miterlimit="10" stroke-linecap="round"/>
<path d="M119.346 200.596C119.346 200.596 118.448 208.674 122.529 212.385" stroke="#231005" stroke-width="1.31702" stroke-miterlimit="10" stroke-linecap="round"/>
<path d="M236.406 143.38C236.406 143.38 238.258 147.802 241.279 154.37C242.169 156.318 243.161 158.449 244.239 160.704C247.798 168.189 252.267 177.077 256.996 185.26C260.939 192.104 265.061 198.445 268.983 203.053C274.624 209.682 279.841 212.728 283.51 208.533C283.51 208.533 284.726 208.332 285.996 207.127C287.003 206.174 288.047 204.597 288.553 201.997C288.632 201.588 288.704 201.154 288.753 200.687C288.753 200.687 290.19 198.454 292.167 196.063C293.584 194.356 294.219 192.231 294.124 190.065C294.034 187.891 293.193 185.672 291.663 183.8C291.339 183.413 290.99 183.031 290.613 182.678C286.557 178.867 281.527 173.847 276.545 168.113C274.731 166.037 272.925 163.859 271.174 161.609C268.844 158.611 266.6 155.493 264.574 152.301C263.219 150.18 261.954 148.018 260.828 145.84C258.868 142.084 257.29 138.27 256.265 134.503C255.613 132.082 252.563 130.979 250.785 132.5C248.369 134.569 245.3 137.135 242.539 139.273C240.523 140.828 238.667 142.162 237.338 142.916C236.99 143.112 236.677 143.272 236.406 143.38Z" fill="#3370F8"/>
<path d="M242.479 139.628C247.408 141.454 252.298 143.401 257.22 145.048C258.363 145.427 259.511 145.799 260.679 146.156C261.798 148.321 263.058 150.47 264.406 152.578C255.202 150.323 246.316 146.394 237.304 143.25C238.626 142.499 240.473 141.173 242.479 139.628ZM257.88 159.045C262.239 160.035 266.607 160.924 270.974 161.831C272.716 164.068 274.513 166.234 276.319 168.298C271.84 167.328 267.351 166.428 262.879 165.482C256.641 164.172 250.359 162.726 244.171 160.933C243.099 158.691 242.111 156.573 241.225 154.636C246.73 156.387 252.322 157.786 257.88 159.045ZM260.061 181.271C264.088 178.307 269.574 178.478 274.681 179.407C280.325 180.44 285.848 182.125 291.363 183.892C292.885 185.753 293.722 187.959 293.812 190.12C292.233 189.595 290.644 189.083 289.051 188.578C283.345 186.755 277.385 184.836 271.524 184.208C269.159 183.944 267.325 184.042 265.323 184.762C265.286 184.787 265.08 184.878 264.955 184.924C264.947 184.937 264.926 184.934 264.923 184.941L264.915 184.936C264.772 185.01 264.639 185.069 264.51 185.141C264.217 185.302 263.927 185.475 263.65 185.664C263.493 185.779 263.346 185.897 263.194 186.003C263.166 186.014 263.146 186.03 263.137 186.044L263.12 186.053C262.851 186.317 262.577 186.569 262.319 186.848C262.392 186.818 262.226 187.07 262.195 187.05C262.171 187.142 262.153 187.276 262.137 187.355C262.152 187.471 262.154 187.852 262.163 187.925C262.163 187.925 262.247 188.4 262.269 188.521C262.632 189.855 263.409 191.127 264.199 192.29C265.628 194.354 267.651 196.45 269.506 197.613C273.468 200.087 278.229 201.036 282.556 201.5C284.44 201.707 286.355 201.826 288.269 201.984C287.766 204.568 286.726 206.136 285.724 207.083C281.716 206.748 277.671 206.331 273.751 205.1C272.017 204.562 270.365 203.874 268.796 203.033C264.892 198.453 260.791 192.149 256.862 185.354C257.343 183.629 258.557 182.37 260.061 181.271Z" fill="#988BF1"/>
<path d="M101.748 255.779L101.645 257.487C101.565 258.787 100.798 259.878 99.6168 260.385L98.0535 261.05L99.8325 261.344C101.185 261.57 102.399 262.445 103.057 263.66L103.919 265.266L104.023 263.556C104.103 262.256 104.871 261.166 106.053 260.659L107.615 259.993L105.836 259.701C104.484 259.475 103.27 258.599 102.613 257.384L101.748 255.779Z" fill="#F6CFB0"/>
<path d="M99.3985 209.025C99.3985 209.025 108.007 206.894 107.934 211.088C107.861 215.016 105.763 220.092 98.0687 222.029C97.3522 222.211 96.6011 221.535 96.7157 220.813C97.0578 218.595 97.2923 214.474 95.1411 211.536C94.6923 210.926 94.9278 210.131 95.6111 209.967L99.3912 209.021L99.3985 209.025Z" fill="#F1C453"/>
<path d="M39.0508 265.663C39.0919 265.209 39.7067 264.967 39.9173 264.591C40.1265 264.214 40.0177 263.544 40.3653 263.277C40.7128 263.01 41.3748 263.243 41.805 263.089C42.2205 262.944 42.5143 262.377 42.9876 262.349C43.4362 262.325 43.9334 262.843 44.4079 262.935C44.8839 263.027 45.451 262.705 45.8852 262.899C46.34 263.095 46.5365 263.764 46.9118 264.056C47.3095 264.361 47.9965 264.393 48.2821 264.776C48.5691 265.159 48.3645 265.775 48.5039 266.218C48.6439 266.664 49.2029 267.114 49.161 267.57C49.1192 268.026 48.5052 268.266 48.296 268.643C48.0868 269.02 48.1956 269.69 47.8466 269.956C47.499 270.223 46.8376 269.992 46.4069 270.145C45.9928 270.29 45.699 270.857 45.2257 270.885C44.7748 270.909 44.2799 270.391 43.8039 270.298C43.3286 270.208 42.7622 270.529 42.3259 270.336C41.8719 270.139 41.6745 269.471 41.3006 269.179C40.9023 268.872 40.2154 268.84 39.9298 268.458C39.6433 268.076 39.8479 267.461 39.708 267.015C39.5694 266.57 39.0104 266.12 39.0508 265.663Z" fill="#B24F24"/>
</svg>
