<svg width="373" height="426" viewBox="0 0 373 426" fill="none" xmlns="http://www.w3.org/2000/svg">
<path d="M122.524 190.5C82.8895 172.126 48.8739 152.106 20.0005 130.637" stroke="#F1C453" stroke-width="63"/>
<path d="M175.636 179.111C184.136 175.655 202.018 170.93 223.14 180.734C223.14 180.734 229.631 183.011 232.103 183.901C234.582 184.798 238.505 188.273 241.288 191.04C244.06 193.809 251.218 197.039 259.431 199.249C267.63 201.447 293.583 209.754 295.335 214.896C295.335 214.896 296.636 217.877 295.377 220.88C294.685 222.544 293.203 224.221 290.269 225.385L311.028 273.252L313.613 279.212C313.613 279.212 322.683 294.052 308.29 291.636C308.29 291.636 306.076 291.368 303.282 290.881C300.033 290.329 296.004 289.499 293.732 288.495C293.732 288.495 292.691 293.052 286.852 295.459C281.02 297.868 278.568 298.773 278.568 298.773C278.568 298.773 272.124 301.515 266.849 293.02C266.849 293.02 266.273 301.801 258.587 302.665C250.885 303.538 238.612 291.606 238.612 291.606C238.612 291.606 235.583 298.492 229.326 297.102C223.055 295.723 220.174 293.531 215.376 289.268C210.563 285.014 196.913 276.832 196.913 276.832C196.913 276.832 189.843 273.581 185.358 265.889C185.358 265.889 156.22 249.915 150.971 234.436C150.971 234.436 143.38 230.082 138.857 223.547C138.857 223.547 129.882 222.435 122.754 214.147L110.983 206.27L135.834 163.762C135.834 163.762 167.127 182.552 175.633 179.1L175.636 179.111ZM239.187 212.441L240.809 214.643L244.236 219.288L255.079 220.532L253.712 218.177C253.712 218.177 251.444 216.885 248.61 215.538C245.349 213.964 241.35 212.319 239.187 212.441Z" fill="#8C3A03"/>
<path d="M180.436 213.347L192.382 253.926C193.749 258.584 198.064 262.109 202.913 262.556L310.943 272.45L290.076 224.262C293.019 223.086 294.508 221.399 295.212 219.728L248.186 214.35C251.041 215.711 253.313 217.006 253.313 217.006L254.687 219.377L243.787 218.124L240.342 213.448L185.682 207.196C182.045 206.772 179.423 209.864 180.44 213.34L180.436 213.347Z" fill="black"/>
<path d="M333.979 233.389L356.126 276.383C357.338 278.743 355.695 281.239 353.102 281L208.132 267.726C203.293 267.28 198.988 263.767 197.618 259.127L185.701 218.647C184.678 215.174 187.302 212.096 190.923 212.514L326.168 227.976C329.439 228.352 332.433 230.435 333.963 233.399L333.979 233.389Z" fill="#62998F"/>
<path d="M356.12 268.736C356.12 268.736 357.937 271.623 355.02 275.525C354.5 276.225 353.766 276.769 352.879 276.979C352.538 277.062 352.153 277.093 351.731 277.053L350.795 272.953L356.12 268.736Z" fill="#62998F"/>
<path d="M191.181 213.737C191.181 213.737 187.958 214.142 187.091 219.032C186.939 219.909 187.022 220.856 187.46 221.711C187.624 222.039 187.85 222.375 188.154 222.692L191.658 220.783L191.181 213.737Z" fill="#62998F"/>
<path d="M335.382 229.798L357.528 272.792C358.74 275.152 357.099 277.649 354.506 277.41L209.536 264.136C204.696 263.69 200.39 260.176 199.022 255.537L187.104 215.055C186.082 211.584 188.706 208.506 192.327 208.924L327.57 224.386C330.842 224.761 333.838 226.844 335.366 229.808L335.382 229.798Z" fill="#85D6CA"/>
<path d="M192.238 212.466C191.771 213.436 191.653 214.605 192.017 215.833L203.329 254.258C204.629 258.659 208.709 261.999 213.303 262.422L350.9 275.022C351.661 275.094 352.33 274.914 352.865 274.57C354.071 273.795 354.566 272.189 353.766 270.641L332.738 229.83C331.296 227.021 328.453 225.044 325.342 224.686L196.964 210.008C194.806 209.76 193.015 210.82 192.231 212.461L192.238 212.466Z" fill="black"/>
<path d="M192.234 212.542C191.764 213.512 191.649 214.68 192.01 215.906L203.317 254.311C204.617 258.71 208.696 262.047 213.289 262.472L350.825 275.062C351.586 275.136 352.253 274.956 352.788 274.612C352.865 274.399 352.908 274.174 352.93 273.944C352.992 273.372 352.874 272.743 352.563 272.133L339.613 247.011L331.543 231.344C330.096 228.531 327.251 226.556 324.138 226.204L220.153 214.321L196.276 211.59L195.824 211.54C194.411 211.374 193.142 211.778 192.221 212.543L192.234 212.542Z" fill="#DCD7F9"/>
<path d="M197.614 211.423C202.941 216.26 208.275 221.082 213.626 225.895C221.282 232.786 229.253 239.563 238.473 244.266C246.104 248.156 254.395 250.222 262.611 250.946C270.718 251.659 278.668 251.438 286.661 251.083C293.797 250.769 300.95 250.465 308.177 251.005C308.224 251.015 308.266 251.014 308.316 251.018C313.249 251.525 318.145 252.503 322.957 254.081C322.986 254.1 323.018 254.101 323.042 254.116C328.444 256.111 333.617 258.773 338.539 261.874C343.479 265.151 348.12 268.847 352.508 272.811C352.569 272.247 352.453 271.628 352.145 271.028L339.339 246.295C337.981 245.536 336.591 244.812 335.186 244.128C331.112 242.165 326.871 240.574 322.586 239.297C315.463 237.179 308.099 236.449 300.885 236.252C288.368 235.925 276.066 237.601 263.493 236.713C263.47 236.715 263.446 236.719 263.416 236.7C258.872 236.271 254.325 235.45 249.877 234.021C246.104 232.634 242.5 230.803 239.053 228.649C239.03 228.635 238.999 228.615 238.97 228.596C235.931 226.554 233.019 224.305 230.198 221.962C227.14 219.419 224.164 216.777 221.213 214.111L197.603 211.425L197.614 211.423Z" fill="#E8E8FC"/>
<path d="M289.092 275.371C289.092 275.371 285.856 268.824 284.395 266.113C282.935 263.404 276.473 259.432 271.59 262.555C271.59 262.555 265.805 266.355 266.972 273.347L289.088 275.377L289.092 275.371Z" fill="#8C3A03"/>
<path d="M264.349 274.493C264.349 274.493 261.531 266.87 257.89 263.524C254.247 260.178 251.213 252.56 251.213 252.56C251.213 252.56 249.062 247.54 244.322 248.196C239.579 248.852 232.463 253.583 237.202 263.008C237.202 263.008 240.739 270.882 241.552 272.406L264.345 274.5L264.349 274.493Z" fill="#8C3A03"/>
<path d="M235.142 273.437C235.142 273.437 223.432 253.149 218.738 251.547C214.046 249.947 210.027 253.936 209.767 259.207C209.508 264.477 210.747 269.397 211.948 271.309L235.155 273.436L235.142 273.437Z" fill="#8C3A03"/>
<path d="M311.442 276.25C311.442 276.25 298.876 269.242 290.999 274.376L311.442 276.25Z" fill="#8C3A03"/>
<path d="M275.938 292.328C275.938 292.328 264.526 282.025 266.388 274.071" stroke="#231005" stroke-width="1.31702" stroke-miterlimit="10" stroke-linecap="round"/>
<path d="M266.435 289.313C266.435 289.313 265.132 282.749 266.856 279.932" stroke="#231005" stroke-width="1.31702" stroke-miterlimit="10" stroke-linecap="round"/>
<path d="M242.698 278.429C241.169 275.244 240.963 273.122 240.963 273.122" stroke="#231005" stroke-width="1.31702" stroke-miterlimit="10" stroke-linecap="round"/>
<path d="M263.221 273.955C263.221 273.955 264.505 277.737 264.275 284.109C264.044 290.481 264.134 292.72 264.134 292.72" stroke="#231005" stroke-width="1.31702" stroke-miterlimit="10" stroke-linecap="round"/>
<path d="M235.86 292.898C235.86 292.898 237.065 288.769 235.19 284.601C235.19 284.601 234.524 281.026 234.927 279.061C235.331 277.099 235.691 274.129 234.113 272.897" stroke="#231005" stroke-width="1.31702" stroke-miterlimit="10" stroke-linecap="round"/>
<path d="M291.247 286.456C291.247 286.456 291.997 282.907 290.525 279.906C289.051 276.903 288.47 274.864 288.47 274.864" stroke="#231005" stroke-width="1.31702" stroke-miterlimit="10" stroke-linecap="round"/>
<path d="M218.468 282.86C218.468 282.86 213.087 277.281 211.365 272.044" stroke="#231005" stroke-width="1.31702" stroke-miterlimit="10" stroke-linecap="round"/>
<path d="M215.499 289.391C215.499 289.391 212.835 284.028 214.259 278.185" stroke="#231005" stroke-width="1.31702" stroke-miterlimit="10" stroke-linecap="round"/>
<path d="M201.297 274.993L205.388 271.783" stroke="#231005" stroke-width="1.31702" stroke-miterlimit="10" stroke-linecap="round"/>
<path d="M193.233 251.293C193.233 251.293 188.856 253.664 185.24 256.447" stroke="#231005" stroke-width="1.31702" stroke-miterlimit="10" stroke-linecap="round"/>
<path d="M266.869 200.267C266.869 200.267 265.682 212.303 263.582 214.587" stroke="#231005" stroke-width="1.31702" stroke-miterlimit="10" stroke-linecap="round"/>
<path d="M247.148 198.221C247.148 198.221 247.39 205.174 245.309 208.905" stroke="#231005" stroke-width="1.31702" stroke-miterlimit="10" stroke-linecap="round"/>
<path d="M235.824 195.954C236.045 193.803 234.458 190.441 234.458 190.441" stroke="#231005" stroke-width="1.31702" stroke-miterlimit="10" stroke-linecap="round"/>
<path d="M189.914 206.968C189.914 206.968 181.018 196.276 179.081 190.944" stroke="#231005" stroke-width="1.31702" stroke-miterlimit="10" stroke-linecap="round"/>
<path d="M242.7 293.251C242.7 293.251 239.959 288.617 242.084 284.748C242.084 284.748 243.163 282.597 242.721 281.428" stroke="#231005" stroke-width="1.31702" stroke-miterlimit="10" stroke-linecap="round"/>
<path d="M261.022 278.256C261.022 278.256 257.339 280.583 253.163 278.918" stroke="#231005" stroke-width="1.31702" stroke-miterlimit="10" stroke-linecap="round"/>
<path d="M233.109 278.927C233.109 278.927 227.771 281.785 224.835 280.396" stroke="#231005" stroke-width="1.31702" stroke-miterlimit="10" stroke-linecap="round"/>
<path d="M288.12 289.815C288.12 289.815 283.207 291.994 281.007 291.589" stroke="#231005" stroke-width="1.31702" stroke-miterlimit="10" stroke-linecap="round"/>
<path d="M247.982 253.364C248.549 252.83 249.551 253.048 250.01 253.777C251.671 256.419 254.619 261.313 254.431 262.671C254.138 264.801 249.21 268.846 241.728 259.623L240.626 257.988C239.917 256.942 240.486 255.665 241.684 255.56C243.712 255.375 246.434 254.847 247.987 253.376L247.982 253.364Z" fill="#FBF4DE"/>
<path d="M279.564 266.969C278.501 267.815 276.61 268.826 273.74 268.796C272.672 268.783 271.901 269.634 272.122 270.672C272.766 273.757 274.879 279.3 281.66 279.768C281.66 279.768 287.977 278.13 281.685 267.478C281.229 266.699 280.211 266.463 279.564 266.969Z" fill="#FBF4DE"/>
<path d="M219.89 255.094C220.35 254.59 221.2 254.631 221.699 255.208C223.711 257.557 227.522 262.483 225.448 264.084C222.691 266.214 217.104 264.162 214.324 260.247L213.838 259.56C213.237 258.713 213.601 257.626 214.561 257.436C216.284 257.093 218.675 256.401 219.89 255.094Z" fill="#FBF4DE"/>
<path d="M291.001 274.989L289.208 276.196" stroke="#231005" stroke-width="1.31702" stroke-miterlimit="10" stroke-linecap="round"/>
<path d="M240.432 210.835C240.432 210.835 238.019 206.578 234.144 205.69" stroke="#231005" stroke-width="1.31702" stroke-miterlimit="10" stroke-linecap="round"/>
<path d="M104.319 202.571C95.3902 213.525 99.9141 211.509 99.9141 211.509L111.531 218.822L112.597 219.491C116.166 222.674 119.017 224.73 121.288 226.008C128.811 230.248 130.067 226.079 130.067 226.079C130.067 226.079 130.45 224.444 131.475 221.463C132.149 219.484 133.091 216.924 134.39 213.858C136.039 209.972 138.245 205.27 141.159 199.907C143.006 196.492 145.145 192.822 147.612 188.924C150.514 184.339 152.027 180.618 152.596 177.583C154.081 169.717 149.217 166.541 145.943 165.32C144.387 164.736 143.186 164.592 143.186 164.592L136.764 162.049L131.936 160.135C131.936 160.135 130.51 166.026 125.329 175.105C124.326 176.862 123.176 178.745 121.866 180.727C120.852 182.286 119.724 183.9 118.491 185.559C117.3 187.184 116.01 188.865 114.601 190.571C113.441 192.006 112.184 193.468 110.857 194.954C110.031 195.879 109.252 196.765 108.525 197.582C106.863 199.488 105.467 201.14 104.303 202.561L104.319 202.571Z" fill="#F1C453"/>
<path d="M130.651 183.82C132.656 186.768 134.549 188.96 137.271 191.143C137.334 191.184 137.64 191.391 137.81 191.531C137.827 191.542 137.846 191.564 137.858 191.562L137.874 191.573C138.08 191.726 138.27 191.87 138.483 191.996C138.945 192.295 139.407 192.594 139.886 192.864C140.158 193.019 140.432 193.155 140.686 193.301C140.731 193.339 140.766 193.353 140.782 193.363L140.815 193.384C141.358 193.623 141.903 193.876 142.447 194.097C142.348 194.021 142.791 194.137 142.788 194.175C142.912 194.175 143.076 194.161 143.171 194.151L143.188 194.162C143.285 194.094 143.705 193.971 143.773 193.935C143.773 193.935 144.206 193.681 144.317 193.613C145.425 192.736 146.053 191.39 146.56 190.063C147.426 187.662 147.737 184.537 147.211 181.919C146.063 176.331 142.485 170.259 138.788 164.885C138.133 163.938 137.476 162.98 136.789 162.032L143.221 164.578C143.221 164.578 144.425 164.721 145.983 165.305C147.962 168.278 149.778 171.295 151.24 174.348C151.772 175.437 152.244 176.517 152.646 177.583C152.068 180.617 150.553 184.342 147.654 188.937C145.182 192.842 143.036 196.522 141.191 199.934C140.33 199.559 139.452 199.122 138.571 198.633C131.447 194.733 126.314 188.039 122.372 181.56C122.209 181.284 122.04 181.013 121.882 180.729C123.186 178.74 124.336 176.854 125.35 175.101C126.967 178.063 128.704 180.978 130.664 183.817L130.651 183.82ZM118.504 185.579C120.053 188.234 121.617 190.906 123.154 193.564C127.055 200.287 130.883 207.096 134.415 213.894C133.124 216.968 132.165 219.534 131.496 221.508C128.267 214.867 124.673 208.24 120.99 201.687C118.906 197.981 116.759 194.286 114.612 190.59C116.022 188.881 117.32 187.192 118.508 185.572L118.504 185.579ZM108.522 197.617C113.507 207.048 117.249 216.581 121.288 226.065C119.014 224.785 116.158 222.727 112.584 219.54L111.516 218.87C109.858 214.906 108.179 210.959 106.376 207.032C105.705 205.57 105.007 204.101 104.293 202.602C105.45 201.174 106.858 199.524 108.522 197.617Z" fill="#FF9ECB"/>
</svg>
