<svg width="501" height="367" viewBox="0 0 501 367" fill="none" xmlns="http://www.w3.org/2000/svg">
<g clip-path="url(#clip0_284_1715)">
<mask id="mask0_284_1715" style="mask-type:luminance" maskUnits="userSpaceOnUse" x="0" y="0" width="501" height="367">
<path d="M500.233 85.4009L54.271 0L0.500058 280.791L446.462 366.192L500.233 85.4009Z" fill="white"/>
</mask>
<g mask="url(#mask0_284_1715)">
<g filter="url(#filter0_d_284_1715)">
<path d="M485.551 82.5894L68.9529 2.81155C60.8443 1.25877 53.0122 6.5733 51.4594 14.6819L3.31161 266.109C1.75883 274.218 7.07336 282.05 15.1819 283.603L431.78 363.38C439.889 364.933 447.721 359.619 449.274 351.51L497.422 100.083C498.975 91.9742 493.66 84.1421 485.551 82.5894Z" fill="#FFCF0F"/>
</g>
<path d="M425.336 316.303L420.24 315.327C418.122 314.922 416.743 312.89 417.149 310.772C417.554 308.654 419.586 307.276 421.704 307.681L426.8 308.657C428.918 309.063 430.297 311.094 429.891 313.212C429.485 315.33 427.454 316.709 425.336 316.303ZM438.554 314.907C438.942 312.879 437.721 310.804 437.719 308.775C437.697 306.743 438.906 304.612 438.471 302.613C438.034 300.613 436.11 299.109 435.345 297.269C434.581 295.429 434.811 292.962 433.694 291.316C432.562 289.647 430.195 288.99 428.772 287.582C427.351 286.157 426.634 283.786 424.961 282.703C423.289 281.62 420.782 281.884 418.957 281.125C417.129 280.366 415.576 278.469 413.565 278.083C411.555 277.699 409.462 278.917 407.433 278.918C405.401 278.938 403.269 277.731 401.27 278.166C399.274 278.585 397.766 280.528 395.927 281.292C394.087 282.057 391.62 281.826 389.973 282.943C388.308 284.057 387.648 286.442 386.24 287.865C384.815 289.286 382.444 290.004 381.361 291.676C380.277 293.348 380.541 295.855 379.783 297.681C379.024 299.508 377.126 301.061 376.741 303.07C376.356 305.082 377.574 307.176 377.576 309.204C377.596 311.236 376.388 313.368 376.824 315.367C377.242 317.363 379.185 318.871 379.95 320.711C380.714 322.55 380.484 325.017 381.601 326.664C382.718 328.311 385.1 328.989 386.523 330.398C387.943 331.823 388.661 334.194 390.334 335.277C392.006 336.36 394.513 336.094 396.338 336.855C398.166 337.614 399.718 339.511 401.728 339.896C403.739 340.281 405.833 339.063 407.862 339.061C409.894 339.04 412.026 340.249 414.025 339.814C416.021 339.395 417.529 337.452 419.368 336.687C421.208 335.923 423.675 336.154 425.322 335.036C426.972 333.901 427.647 331.538 429.055 330.114C430.48 328.694 432.851 327.976 433.934 326.304C435.018 324.631 434.752 322.124 435.512 320.299C436.271 318.471 438.169 316.919 438.554 314.907ZM407.284 289.7C407.69 287.582 409.723 286.204 411.841 286.61C413.957 287.015 415.337 289.047 414.932 291.164L413.955 296.263C413.55 298.379 411.517 299.759 409.401 299.353C407.283 298.948 405.903 296.914 406.308 294.798L407.284 289.7ZM394.812 290.122C396.588 288.917 399.01 289.381 400.234 291.16L403.149 295.458C404.354 297.232 403.89 299.655 402.111 300.878C400.337 302.083 397.913 301.619 396.692 299.84L393.775 295.541C392.571 293.768 393.035 291.343 394.812 290.122ZM385.26 304.646C385.665 302.529 387.697 301.15 389.815 301.556L394.911 302.532C397.029 302.937 398.407 304.969 398.002 307.087C397.596 309.204 395.565 310.583 393.447 310.177L388.35 309.201C386.233 308.796 384.854 306.764 385.26 304.646ZM394.192 322.711C392.416 323.916 389.993 323.452 388.77 321.673C387.567 319.9 388.031 317.475 389.808 316.254L420.966 295.111C422.742 293.906 425.164 294.37 426.387 296.149C427.59 297.924 427.126 300.347 425.35 301.569L394.192 322.711ZM407.868 328.14C407.462 330.258 405.431 331.636 403.313 331.231C401.195 330.825 399.817 328.794 400.222 326.676L401.198 321.58C401.604 319.462 403.635 318.083 405.753 318.489C407.871 318.894 409.25 320.926 408.844 323.044L407.868 328.14ZM420.342 327.719C418.566 328.924 416.144 328.46 414.921 326.681L412.003 322.384C410.8 320.608 411.264 318.186 413.041 316.962C414.817 315.757 417.239 316.221 418.463 318L421.38 322.299C422.583 324.075 422.119 326.497 420.342 327.719Z" fill="#B24F24"/>
<path d="M234.236 74.0425C224.481 82.6347 215.428 92.1154 206.344 101.432C193.398 114.71 180.211 127.976 168.605 142.54C156.951 157.164 146.463 173.503 139.309 190.927C133.769 204.418 126.074 224.142 135.367 237.406C143.784 249.421 164.198 250.811 177.192 249.034C200.202 245.883 223.03 235.923 243.599 225.083C270.972 210.658 296.205 192.78 318.696 171.134C342.921 147.817 369.302 118.796 379.583 85.5235C380.715 81.8575 383.522 75.5514 380.85 72.0114C376.727 66.5481 364.599 67.1122 358.949 67.9133C343.355 70.1225 328.173 76.8169 313.792 83.1764C284.015 96.3428 255.841 112.434 228.776 130.881C189.062 157.95 150.942 189.789 117.784 225.009C95.6822 248.485 75.4062 273.97 56.4661 300.163C43.2337 318.464 30.4217 337.528 22.0202 358.7C17.4847 370.13 11.058 384.22 10.4623 396.684C10.1571 403.071 18.5568 403.139 23.1623 404.439" stroke="#6AD9C9" stroke-width="6.841" stroke-linecap="round"/>
<path d="M412.291 68.5601C410.243 68.1679 408.257 68.4631 406.705 69.5166C405.152 70.5702 404.068 72.1959 403.676 74.2436C403.284 76.2913 403.673 78.2956 404.744 79.7551C405.815 81.2146 407.534 82.3156 409.582 82.7078C411.63 83.1 413.522 82.7869 415.074 81.7334C416.609 80.7729 417.804 79.072 418.197 77.0243C418.589 74.9766 418.2 72.9724 417.129 71.5128C416.057 70.0533 414.339 68.9523 412.291 68.5601Z" fill="#B24F24"/>
<path d="M72.6425 34.0624C79.3441 35.3457 83.6336 41.667 82.2077 49.1131C80.7817 56.5594 74.4603 60.8487 67.7588 59.5654C61.0572 58.2821 56.3777 51.9825 57.8214 44.4432C59.2652 36.9041 65.6618 32.7256 72.6425 34.0624ZM76.7857 22.5049C70.5494 21.3107 64.9489 22.8435 60.9822 26.4259L62.0695 20.7482L50.7141 18.5737L38.8076 80.7493L50.2561 82.9416L54.4091 61.2547C56.7538 66.1421 61.5028 69.5604 67.4596 70.7011C79.6527 73.0361 91.43 65.4494 94.2106 50.9294C95.6187 43.5761 94.5434 37.0983 91.4363 32.1613C88.3469 27.1311 83.301 23.7526 76.7857 22.5049Z" fill="#B24F24"/>
<path d="M132.466 71.7295L133.321 71.7969L133.349 70.6443L132.254 70.8204L132.466 71.7295Z" fill="#B24F24"/>
<path d="M109.372 49.6978C110.501 46.8262 112.139 44.8241 114.099 43.6556C116.171 42.4121 118.658 42.0199 121.264 42.519C126.756 43.5706 129.544 48.1572 129.384 53.53L109.465 49.7157L109.372 49.6978ZM137.725 41.7151C135.119 36.6809 130.366 32.7796 123.292 31.425C116.218 30.0704 110.525 31.5854 105.778 35.2114C101.049 38.7442 97.7672 44.2913 96.4661 51.0859C95.0045 58.7182 96.2659 65.2317 100.025 70.2935C103.783 75.3554 109.871 78.8369 117.876 80.3698C122.623 81.2788 127.401 81.5185 131.817 80.6274L132.429 80.455L132.554 79.8035L133.138 71.7138L132.301 71.5533L132.146 70.8484C128.843 71.4701 125.274 71.4622 121.272 70.6957C116.897 69.858 113.556 68.1568 111.418 65.721C109.505 63.6178 108.386 60.8947 108.305 57.7915L138.369 63.5487L138.511 62.8042C139.022 61.6475 139.472 59.8038 139.775 58.2215C140.844 52.6369 140.367 46.5631 137.743 41.6221L137.725 41.7151Z" fill="#B24F24"/>
<path d="M168.943 52.5036C175.644 53.7869 179.934 60.1082 178.508 67.5543C177.082 75.0006 170.76 79.2899 164.059 78.0066C157.357 76.7232 152.678 70.4237 154.121 62.8844C155.565 55.3452 161.962 51.1668 168.943 52.5036ZM173.086 40.9461C166.85 39.7519 161.249 41.2847 157.282 44.8671L158.37 39.1894L147.107 37.0327L135.201 99.2083L146.649 101.401L150.802 79.7137C153.147 84.6011 157.896 88.0194 163.853 89.1601C176.046 91.4951 187.823 83.9084 190.604 69.3884C192.012 62.0351 190.937 55.5573 187.83 50.6203C184.74 45.5901 179.694 42.2116 173.179 40.9639L173.086 40.9461Z" fill="#B24F24"/>
<path d="M221.161 62.5026C227.862 63.7859 232.151 70.1071 230.725 77.5532C229.299 84.9995 222.979 89.2889 216.277 88.0056C209.575 86.7222 204.896 80.4227 206.34 72.8834C207.783 65.3442 214.087 61.1479 221.161 62.5026ZM225.304 50.9451C219.068 49.7509 213.467 51.2837 209.5 54.8661L210.588 49.1884L199.325 47.0317L187.419 109.207L198.867 111.4L203.02 89.7126C205.365 94.6001 210.114 98.0184 216.071 99.1591C228.264 101.494 240.042 93.9075 242.822 79.3875C244.231 72.0342 243.154 65.5561 240.047 60.6192C236.958 55.589 231.912 52.2106 225.397 50.9629L225.304 50.9451Z" fill="#B24F24"/>
<path d="M280.626 109.02L281.314 108.959L281.345 108.289L280.49 108.222L280.626 109.02Z" fill="#B24F24"/>
<path d="M258.058 78.1557C259.186 75.2842 260.823 73.2819 262.784 72.1135C264.856 70.8699 267.344 70.478 269.95 70.977C275.441 72.0285 278.229 76.615 278.069 81.9879L258.152 78.1737L258.058 78.1557ZM286.41 70.1731C283.805 65.1391 279.052 61.2377 271.977 59.8829C265.277 58.5998 259.211 60.0435 254.464 63.6694C249.733 67.2021 246.453 72.7493 245.152 79.5439C243.69 87.1763 244.952 93.6899 248.711 98.7516C252.469 103.813 258.556 107.295 266.562 108.828C271.308 109.737 276.087 109.977 280.504 109.086L280.365 108.287L281.204 108.448L281.898 100.282L282.112 99.1656L280.925 99.3241C277.621 99.9459 274.054 99.9381 270.051 99.1716C265.676 98.3338 262.335 96.6327 260.197 94.1968C258.283 92.0934 257.164 89.3705 257.083 86.2673L287.148 92.0247L287.29 91.2799C287.801 90.1234 288.249 88.2795 288.552 86.6971C289.622 81.1125 289.145 75.0389 286.522 70.0979L286.41 70.1731Z" fill="#B24F24"/>
<path d="M306.047 72.6049L307.009 67.5787L295.746 65.4219L286.906 111.588L298.354 113.781L302.257 93.3965C303.202 88.4634 304.81 85.1047 307.379 83.281C309.853 81.439 313.512 80.9818 318.706 82.0729L319.545 82.2335L319.705 81.3959L322.42 70.2404L322.598 69.3096L321.759 69.149C315.244 67.9014 309.734 68.969 306.082 72.4188L306.047 72.6049Z" fill="#B24F24"/>
<path d="M380.338 80.6341C377.174 80.0282 373.977 80.0915 370.865 81.2323C368.27 82.1829 365.812 83.9315 363.584 86.496C362.838 83.8444 361.554 81.4758 359.698 79.5764C357.357 77.1983 354.184 75.6257 349.996 74.8237C344.039 73.6829 339.385 75.3005 335.881 78.4891L336.861 73.3699L325.598 71.2131L316.758 117.379L328.206 119.572L332.662 96.3023C333.375 92.5792 334.784 89.7614 336.74 88.1096C338.696 86.4581 341.237 85.7868 344.495 86.4106C347.752 87.0344 349.848 88.69 350.982 90.8368C352.096 93.0766 352.195 96.0867 351.535 99.5305L346.99 123.265L358.438 125.458L362.894 102.188C363.607 98.4653 365.016 95.6473 366.973 93.9957C368.929 92.344 371.47 91.6727 374.727 92.2965C377.985 92.9203 380.174 94.5938 381.214 96.7229C382.328 98.9625 382.427 101.973 381.767 105.417L377.222 129.151L388.671 131.343L393.982 103.606C395.034 98.1149 394.658 93.0255 392.45 88.9359C390.242 84.8466 386.166 81.9432 380.302 80.8203L380.338 80.6341Z" fill="#B24F24"/>
<path d="M403.887 86.1397L403.05 85.9795L402.889 86.8173L394.369 131.308L394.209 132.146L395.046 132.306L404.819 134.177L405.657 134.338L405.818 133.5L414.338 89.0096L414.498 88.1718L413.659 88.0112L403.887 86.1397Z" fill="#B24F24"/>
<path d="M445.29 93.072C439.239 91.9133 434.309 93.4779 430.711 96.6485L431.691 91.5293L420.428 89.3725L411.588 135.539L423.036 137.731L427.492 114.462C428.205 110.739 429.614 107.921 431.664 106.287C433.62 104.635 436.271 103.889 439.622 104.53C442.973 105.172 445.254 106.863 446.37 109.103C447.484 111.343 447.676 114.371 447.035 117.722L442.489 141.456L453.938 143.649L459.249 115.912C460.301 110.42 459.925 105.331 457.623 101.223C455.322 97.116 451.247 94.2128 445.29 93.072Z" fill="#B24F24"/>
<path d="M487.29 148.924L488.221 140.032L488.417 139.008L487.248 139.074C485.668 139.254 483.921 139.305 481.688 138.878C479.827 138.521 478.426 137.77 477.674 136.662C476.921 135.553 476.573 133.845 477.072 131.239L480.672 112.438L493.051 114.808L495.19 103.639L482.811 101.268L485.022 89.7269L475.434 87.8909L475.292 88.6355L472.015 99.201L463.824 97.6325L461.685 108.802L469.131 110.228L465.423 129.588C464.479 134.521 464.701 138.905 466.643 142.365C468.587 145.825 472.284 148.173 477.869 149.243C480.848 149.813 484.196 149.972 486.479 149.637L487.072 149.558L487.197 148.906L487.29 148.924Z" fill="#B24F24"/>
</g>
</g>
<defs>
<filter id="filter0_d_284_1715" x="-0.948887" y="2.54202" width="502.631" height="369.09" filterUnits="userSpaceOnUse" color-interpolation-filters="sRGB">
<feFlood flood-opacity="0" result="BackgroundImageFix"/>
<feColorMatrix in="SourceAlpha" type="matrix" values="0 0 0 0 0 0 0 0 0 0 0 0 0 0 0 0 0 0 127 0" result="hardAlpha"/>
<feOffset dy="3.99088"/>
<feGaussianBlur stdDeviation="1.99544"/>
<feColorMatrix type="matrix" values="0 0 0 0 0 0 0 0 0 0 0 0 0 0 0 0 0 0 0.25 0"/>
<feBlend mode="normal" in2="BackgroundImageFix" result="effect1_dropShadow_284_1715"/>
<feBlend mode="normal" in="SourceGraphic" in2="effect1_dropShadow_284_1715" result="shape"/>
</filter>
<clipPath id="clip0_284_1715">
<rect x="54.271" width="454.066" height="285.893" rx="11.9726" transform="rotate(10.8408 54.271 0)" fill="white"/>
</clipPath>
</defs>
</svg>
