<svg width="170" height="26" viewBox="0 0 170 26" fill="none" xmlns="http://www.w3.org/2000/svg">
<g clip-path="url(#clip0_679_1404)">
<path d="M142.094 0C141.447 0 140.877 0.209896 140.469 0.601325C140.06 0.99559 139.833 1.55153 139.833 2.20675C139.833 2.86197 140.069 3.42074 140.48 3.81217C140.891 4.2036 141.459 4.4135 142.094 4.4135C142.729 4.4135 143.285 4.2036 143.696 3.81217C144.111 3.42074 144.355 2.8648 144.355 2.20675C144.355 1.5487 144.119 0.992753 143.708 0.601325C143.297 0.209896 142.732 0 142.094 0Z" fill="black"/>
<path d="M38.3797 5.4628C36.4395 5.4628 34.837 6.24282 33.8357 7.54191V5.77764H30.3157V25.1931H33.8896V18.4282C34.888 19.7528 36.5076 20.5158 38.357 20.5158C42.1663 20.5158 45.2665 17.5489 45.2665 13.0276C45.2665 10.7414 44.5744 8.84667 43.3548 7.52205C42.1351 6.1946 40.4077 5.45996 38.3825 5.45996L38.3797 5.4628ZM37.801 9.19271C39.9057 9.19271 41.5565 10.8492 41.5565 13.1864C41.5565 15.5236 39.9057 17.1546 37.801 17.1546C35.6964 17.1546 33.9378 15.5151 33.9378 13.1864C33.9378 10.8577 35.6085 9.19271 37.801 9.19271Z" fill="black"/>
<path d="M57.9707 17.0752L58.2317 17.0468L58.1948 16.7036L57.8743 16.8313L57.9707 17.0752Z" fill="black"/>
<path d="M57.8383 7.72353C56.7605 6.36488 55.121 5.46289 52.9001 5.46289C50.6792 5.46289 49.0539 6.25993 47.8399 7.60156C46.6316 8.94036 45.9622 10.8067 45.9622 12.9227C45.9622 15.294 46.7308 17.2029 48.1547 18.5162C49.5758 19.8266 51.6152 20.5159 54.1056 20.5159C55.6004 20.5159 57.0555 20.3031 58.329 19.7869L58.5134 19.7132L58.4935 19.5146L58.2298 17.0441L57.9688 17.0724L57.8724 16.8285C56.908 17.2086 55.8358 17.4156 54.5793 17.4156C53.2007 17.4156 52.1059 17.0838 51.3145 16.4995C50.6026 15.9719 50.1232 15.2259 49.9076 14.2899H59.3019L59.3331 14.063C59.387 13.6772 59.4154 13.1128 59.4154 12.6079C59.4154 10.855 58.9105 9.07084 57.8383 7.72069V7.72353ZM49.7658 11.7683C49.936 10.8294 50.3218 10.1458 50.8266 9.68635C51.3854 9.18146 52.1144 8.92902 52.9256 8.92902C54.6303 8.92902 55.7507 10.143 55.9946 11.7655H49.7658V11.7683Z" fill="black"/>
<path d="M68.4762 5.4628C66.5361 5.4628 64.9335 6.24282 63.9294 7.54191V5.77764H60.4094V25.1931H63.9833V18.4282C64.9818 19.7528 66.6014 20.5158 68.4507 20.5158C72.2601 20.5158 75.3603 17.5489 75.3603 13.0276C75.3603 10.7414 74.6682 8.84667 73.4485 7.52205C72.2289 6.1946 70.5015 5.45996 68.4762 5.45996V5.4628ZM67.8976 9.19271C70.0023 9.19271 71.6559 10.8492 71.6559 13.1864C71.6559 15.5236 70.0051 17.1546 67.8976 17.1546C65.7901 17.1546 64.0344 15.5151 64.0344 13.1864C64.0344 10.8577 65.7051 9.19271 67.8976 9.19271Z" fill="black"/>
<path d="M84.7731 5.4628C82.833 5.4628 81.2304 6.24282 80.2263 7.54191V5.77764H76.7063V25.1931H80.2802V18.4282C81.2786 19.7528 82.8982 20.5158 84.7476 20.5158C88.5541 20.5158 91.6572 17.5489 91.6572 13.0276C91.6572 10.7414 90.9651 8.84667 89.7454 7.52205C88.5257 6.1946 86.7983 5.45996 84.7731 5.45996V5.4628ZM84.1945 9.19271C86.2991 9.19271 87.9528 10.8492 87.9528 13.1864C87.9528 15.5236 86.302 17.1546 84.1945 17.1546C82.087 17.1546 80.3313 15.5151 80.3313 13.1864C80.3313 10.8577 82.0019 9.19271 84.1945 9.19271Z" fill="black"/>
<path d="M104.769 19.7899L104.954 19.7161L104.934 19.5176L104.673 19.5459L104.772 19.7899H104.769Z" fill="black"/>
<path d="M104.276 7.72353C103.198 6.36771 101.559 5.46289 99.3376 5.46289C97.2301 5.46289 95.4914 6.25993 94.2774 7.60156C93.0691 8.94036 92.3997 10.8067 92.3997 12.9227C92.3997 15.294 93.1683 17.2029 94.5922 18.5162C96.0133 19.8266 98.0527 20.5159 100.543 20.5159C102.038 20.5159 103.493 20.3031 104.767 19.7869L104.667 19.543L104.928 19.5146L104.664 17.0441L104.628 16.7009L104.307 16.8285C103.343 17.2086 102.27 17.4156 101.014 17.4156C99.6354 17.4156 98.5377 17.0838 97.7492 16.4995C97.0372 15.9719 96.5579 15.2259 96.3423 14.2899H105.737L105.768 14.063C105.822 13.6772 105.85 13.1128 105.85 12.6079C105.85 10.855 105.345 9.07084 104.273 7.72069L104.276 7.72353ZM96.2033 11.7683C96.3735 10.8294 96.7564 10.1458 97.2641 9.68635C97.8229 9.18146 98.5519 8.92902 99.3631 8.92902C101.068 8.92902 102.188 10.143 102.432 11.7655H96.2033V11.7683Z" fill="black"/>
<path d="M110.326 7.34061V5.78057H106.806V20.2039H110.38V13.8446C110.38 12.293 110.686 11.2067 111.341 10.5146C111.994 9.82533 113.046 9.47078 114.683 9.51049L114.938 9.51616L114.952 9.26088L115.137 5.74086L115.151 5.46289H114.873C112.833 5.46289 111.245 6.08974 110.329 7.34061H110.326Z" fill="black"/>
<path d="M133.146 5.46261C132.15 5.46261 131.194 5.66683 130.341 6.18023C129.609 6.61988 128.968 7.27509 128.44 8.1941C128.071 7.44528 127.552 6.81276 126.872 6.34474C126.04 5.77462 124.98 5.46261 123.689 5.46261C121.828 5.46261 120.521 6.21427 119.644 7.38004V5.77746H116.124V20.2007H119.698V12.9224C119.698 11.7595 119.953 10.8405 120.444 10.2165C120.926 9.60381 121.658 9.24358 122.693 9.24358C123.729 9.24358 124.449 9.61516 124.892 10.2136C125.343 10.8263 125.555 11.7141 125.555 12.7891V20.1979H129.129V12.9196C129.129 11.7567 129.385 10.8377 129.875 10.2136C130.358 9.60097 131.089 9.24075 132.125 9.24075C133.16 9.24075 133.903 9.61232 134.346 10.2108C134.799 10.8235 135.012 11.7113 135.012 12.7863V20.1951H138.586V11.5241C138.586 9.8052 138.169 8.28487 137.267 7.19284C136.359 6.0923 134.987 5.4541 133.146 5.4541V5.46261Z" fill="black"/>
<path d="M140.568 5.77783H140.304V20.2011H143.878V5.77783H140.568Z" fill="black"/>
<path d="M153.432 5.4627C151.528 5.4627 150.153 6.21436 149.254 7.38581V5.77755H145.734V20.2008H149.308V12.9225C149.308 11.7624 149.577 10.8434 150.079 10.2194C150.575 9.6039 151.33 9.24368 152.379 9.24368C153.429 9.24368 154.2 9.61809 154.668 10.2194C155.145 10.8321 155.375 11.7199 155.375 12.7892V20.198H158.949V11.527C158.949 9.80813 158.532 8.2878 157.618 7.19293C156.699 6.09239 155.307 5.45703 153.429 5.45703L153.432 5.4627Z" fill="black"/>
<path d="M169.309 19.8667L169.074 17.1352L169.045 16.8091L168.733 16.9083C168.257 17.0587 167.732 17.1579 167.051 17.1579C166.458 17.1579 166.013 17.0161 165.712 16.7211C165.412 16.4261 165.213 15.9354 165.213 15.1356V9.27548H169.076V5.78099H165.213V2.17871H162.218L162.192 2.41414L161.849 5.77815H159.302V9.27264H161.639V15.3143C161.639 16.8544 161.954 18.162 162.743 19.0867C163.54 20.0199 164.782 20.5163 166.526 20.5163C167.462 20.5163 168.469 20.383 169.142 20.1305L169.329 20.0596L169.312 19.8611L169.309 19.8667Z" fill="black"/>
<path d="M24.2714 13.0843C24.2714 12.2929 23.6644 11.598 23.5112 10.8322C23.358 10.0663 23.6559 9.17852 23.3524 8.45807C23.0489 7.73761 22.2093 7.30647 21.7867 6.66827C21.364 6.03008 21.2761 5.08554 20.7315 4.54378C20.1869 4.00202 19.2452 3.91976 18.607 3.48863C17.9688 3.05749 17.5292 2.20939 16.8172 1.92291C16.1053 1.63643 15.1863 1.9144 14.4431 1.76407C13.7 1.6109 12.9795 1.00391 12.191 1.00391C11.4025 1.00391 10.7047 1.6109 9.93885 1.76407C9.17302 1.91724 8.28521 1.61941 7.56476 1.92291C6.8443 2.22641 6.41316 3.066 5.77496 3.48863C5.13676 3.91126 4.19223 3.99919 3.65047 4.54378C3.10587 5.08838 3.02645 6.03008 2.59532 6.66827C2.16418 7.30647 1.31608 7.74612 1.0296 8.45807C0.743121 9.17001 1.02109 10.089 0.870761 10.8322C0.72043 11.5753 0.110596 12.2958 0.110596 13.0843C0.110596 13.8728 0.717593 14.5706 0.870761 15.3364C1.02393 16.1023 0.726103 16.9901 1.0296 17.7105C1.3331 18.431 2.17269 18.8621 2.59532 19.5003C3.01794 20.1385 3.10587 21.0831 3.65047 21.6248C4.19507 22.1694 5.13676 22.2488 5.77496 22.68C6.41316 23.1111 6.85281 23.9592 7.56476 24.2457C8.2767 24.5322 9.19571 24.2542 9.93885 24.4045C10.682 24.5577 11.3996 25.1647 12.191 25.1647C12.9824 25.1647 13.6773 24.5577 14.4431 24.4045C15.209 24.2514 16.0968 24.5492 16.8172 24.2457C17.5377 23.9422 17.9688 23.1026 18.607 22.68C19.2452 22.2573 20.1897 22.1694 20.7315 21.6248C21.2761 21.0802 21.3555 20.1385 21.7867 19.5003C22.2178 18.8621 23.0659 18.4225 23.3524 17.7105C23.6388 16.9986 23.3609 16.0796 23.5112 15.3364C23.6644 14.5933 24.2714 13.8728 24.2714 13.0843ZM10.665 5.78614C10.665 4.95506 11.3401 4.27999 12.1711 4.27999C13.0022 4.27999 13.6773 4.95506 13.6773 5.78614V7.79434C13.6773 8.62542 13.0022 9.30049 12.1711 9.30049C11.3401 9.30049 10.665 8.62542 10.665 7.79434V5.78614ZM5.95933 6.85264C6.54647 6.2655 7.50235 6.2655 8.0895 6.85264L9.51055 8.2737C10.0977 8.86084 10.0977 9.81672 9.51055 10.4039C8.92341 10.991 7.96753 10.991 7.38039 10.4039L5.95933 8.98281C5.37219 8.39566 5.37219 7.43978 5.95933 6.85264ZM3.38668 13.0644C3.38668 12.2334 4.06175 11.5583 4.89283 11.5583H6.90103C7.73211 11.5583 8.40718 12.2334 8.40718 13.0644C8.40718 13.8955 7.73211 14.5706 6.90103 14.5706H4.89283C4.06175 14.5706 3.38668 13.8955 3.38668 13.0644ZM8.0895 19.2762C7.50235 19.8634 6.54647 19.8634 5.95933 19.2762C5.37219 18.6891 5.37219 17.7332 5.95933 17.1461L16.2528 6.85264C16.8399 6.2655 17.7958 6.2655 18.3829 6.85264C18.9701 7.43978 18.9701 8.39566 18.3829 8.98281L8.0895 19.2762ZM13.6773 20.3427C13.6773 21.1738 13.0022 21.8489 12.1711 21.8489C11.3401 21.8489 10.665 21.1738 10.665 20.3427V18.3345C10.665 17.5035 11.3401 16.8284 12.1711 16.8284C13.0022 16.8284 13.6773 17.5035 13.6773 18.3345V20.3427ZM18.3829 19.2762C17.7958 19.8634 16.8399 19.8634 16.2528 19.2762L14.8317 17.8552C14.2446 17.268 14.2446 16.3122 14.8317 15.725C15.4189 15.1379 16.3747 15.1379 16.9619 15.725L18.3829 17.1461C18.9701 17.7332 18.9701 18.6891 18.3829 19.2762ZM19.4494 14.5706H17.4412C16.6102 14.5706 15.9351 13.8955 15.9351 13.0644C15.9351 12.2334 16.6102 11.5583 17.4412 11.5583H19.4494C20.2805 11.5583 20.9556 12.2334 20.9556 13.0644C20.9556 13.8955 20.2805 14.5706 19.4494 14.5706Z" fill="black"/>
</g>
<defs>
<clipPath id="clip0_679_1404">
<rect width="169.219" height="25.1961" fill="white" transform="translate(0.108643)"/>
</clipPath>
</defs>
</svg>
