<svg width="170" height="26" viewBox="0 0 170 26" fill="none" xmlns="http://www.w3.org/2000/svg">
<g clip-path="url(#clip0_284_1147)">
<path d="M142.1 0C141.453 0 140.883 0.209896 140.474 0.601325C140.066 0.99559 139.839 1.55153 139.839 2.20675C139.839 2.86197 140.074 3.42074 140.486 3.81217C140.897 4.2036 141.464 4.4135 142.1 4.4135C142.735 4.4135 143.291 4.2036 143.702 3.81217C144.116 3.42074 144.36 2.8648 144.36 2.20675C144.36 1.5487 144.125 0.992753 143.713 0.601325C143.302 0.209896 142.738 0 142.1 0Z" fill="white"/>
<path d="M38.3853 5.4628C36.4452 5.4628 34.8426 6.24282 33.8413 7.54191V5.77764H30.3213V25.1931H33.8952V18.4282C34.8936 19.7528 36.5132 20.5158 38.3626 20.5158C42.1719 20.5158 45.2722 17.5489 45.2722 13.0276C45.2722 10.7414 44.5801 8.84667 43.3604 7.52205C42.1407 6.1946 40.4133 5.45996 38.3881 5.45996L38.3853 5.4628ZM37.8066 9.19271C39.9113 9.19271 41.5621 10.8492 41.5621 13.1864C41.5621 15.5236 39.9113 17.1546 37.8066 17.1546C35.702 17.1546 33.9434 15.5151 33.9434 13.1864C33.9434 10.8577 35.6141 9.19271 37.8066 9.19271Z" fill="white"/>
<path d="M57.9768 17.0752L58.2378 17.0468L58.2009 16.7036L57.8804 16.8313L57.9768 17.0752Z" fill="white"/>
<path d="M57.8435 7.72353C56.7656 6.36488 55.1261 5.46289 52.9052 5.46289C50.6843 5.46289 49.059 6.25993 47.845 7.60156C46.6367 8.94036 45.9673 10.8067 45.9673 12.9227C45.9673 15.294 46.736 17.2029 48.1599 18.5162C49.5809 19.8266 51.6203 20.5159 54.1107 20.5159C55.6055 20.5159 57.0606 20.3031 58.3342 19.7869L58.5185 19.7132L58.4987 19.5146L58.2349 17.0441L57.9739 17.0724L57.8775 16.8285C56.9131 17.2086 55.8409 17.4156 54.5844 17.4156C53.2059 17.4156 52.111 17.0838 51.3196 16.4995C50.6077 15.9719 50.1283 15.2259 49.9128 14.2899H59.3071L59.3383 14.063C59.3921 13.6772 59.4205 13.1128 59.4205 12.6079C59.4205 10.855 58.9156 9.07084 57.8435 7.72069V7.72353ZM49.7709 11.7683C49.9411 10.8294 50.3269 10.1458 50.8318 9.68635C51.3906 9.18146 52.1195 8.92902 52.9307 8.92902C54.6354 8.92902 55.7558 10.143 55.9998 11.7655H49.7709V11.7683Z" fill="white"/>
<path d="M68.4828 5.4628C66.5427 5.4628 64.9401 6.24282 63.936 7.54191V5.77764H60.416V25.1931H63.9899V18.4282C64.9884 19.7528 66.608 20.5158 68.4573 20.5158C72.2667 20.5158 75.3669 17.5489 75.3669 13.0276C75.3669 10.7414 74.6748 8.84667 73.4551 7.52205C72.2355 6.1946 70.5081 5.45996 68.4828 5.45996V5.4628ZM67.9042 9.19271C70.0088 9.19271 71.6625 10.8492 71.6625 13.1864C71.6625 15.5236 70.0117 17.1546 67.9042 17.1546C65.7967 17.1546 64.041 15.5151 64.041 13.1864C64.041 10.8577 65.7116 9.19271 67.9042 9.19271Z" fill="white"/>
<path d="M84.7783 5.4628C82.8381 5.4628 81.2355 6.24282 80.2314 7.54191V5.77764H76.7114V25.1931H80.2853V18.4282C81.2838 19.7528 82.9034 20.5158 84.7527 20.5158C88.5592 20.5158 91.6623 17.5489 91.6623 13.0276C91.6623 10.7414 90.9702 8.84667 89.7505 7.52205C88.5309 6.1946 86.8035 5.45996 84.7783 5.45996V5.4628ZM84.1996 9.19271C86.3043 9.19271 87.9579 10.8492 87.9579 13.1864C87.9579 15.5236 86.3071 17.1546 84.1996 17.1546C82.0922 17.1546 80.3364 15.5151 80.3364 13.1864C80.3364 10.8577 82.0071 9.19271 84.1996 9.19271Z" fill="white"/>
<path d="M104.775 19.7899L104.96 19.7161L104.94 19.5176L104.679 19.5459L104.778 19.7899H104.775Z" fill="white"/>
<path d="M104.281 7.72353C103.204 6.36771 101.564 5.46289 99.3432 5.46289C97.2357 5.46289 95.497 6.25993 94.283 7.60156C93.0747 8.94036 92.4053 10.8067 92.4053 12.9227C92.4053 15.294 93.1739 17.2029 94.5978 18.5162C96.0189 19.8266 98.0583 20.5159 100.549 20.5159C102.043 20.5159 103.499 20.3031 104.772 19.7869L104.673 19.543L104.934 19.5146L104.67 17.0441L104.633 16.7009L104.313 16.8285C103.348 17.2086 102.276 17.4156 101.02 17.4156C99.641 17.4156 98.5433 17.0838 97.7548 16.4995C97.0428 15.9719 96.5635 15.2259 96.3479 14.2899H105.742L105.773 14.063C105.827 13.6772 105.856 13.1128 105.856 12.6079C105.856 10.855 105.351 9.07084 104.279 7.72069L104.281 7.72353ZM96.2089 11.7683C96.3791 10.8294 96.762 10.1458 97.2698 9.68635C97.8285 9.18146 98.5575 8.92902 99.3687 8.92902C101.073 8.92902 102.194 10.143 102.438 11.7655H96.2089V11.7683Z" fill="white"/>
<path d="M110.332 7.34061V5.78057H106.812V20.2039H110.385V13.8446C110.385 12.293 110.692 11.2067 111.347 10.5146C111.999 9.82533 113.052 9.47078 114.688 9.51049L114.944 9.51616L114.958 9.26088L115.142 5.74086L115.156 5.46289H114.878C112.839 5.46289 111.251 6.08974 110.334 7.34061H110.332Z" fill="white"/>
<path d="M133.151 5.4631C132.155 5.4631 131.199 5.66732 130.346 6.18072C129.614 6.62037 128.973 7.27558 128.445 8.19459C128.076 7.44577 127.557 6.81324 126.877 6.34523C126.046 5.77511 124.985 5.4631 123.694 5.4631C121.833 5.4631 120.526 6.21476 119.649 7.38053V5.77794H116.129V20.2012H119.703V12.9229C119.703 11.76 119.959 10.841 120.449 10.217C120.931 9.6043 121.663 9.24407 122.699 9.24407C123.734 9.24407 124.454 9.61564 124.897 10.2141C125.348 10.8268 125.561 11.7146 125.561 12.7896V20.1984H129.134V12.9201C129.134 11.7572 129.39 10.8381 129.88 10.2141C130.363 9.60146 131.094 9.24124 132.13 9.24124C133.165 9.24124 133.908 9.61281 134.351 10.2113C134.805 10.824 135.017 11.7118 135.017 12.7868V20.1956H138.591V11.5246C138.591 9.80569 138.174 8.28536 137.272 7.19333C136.365 6.09279 134.992 5.45459 133.151 5.45459V5.4631Z" fill="white"/>
<path d="M140.574 5.77783H140.31V20.2011H143.884V5.77783H140.574Z" fill="white"/>
<path d="M153.437 5.46319C151.534 5.46319 150.158 6.21485 149.259 7.3863V5.77804H145.739V20.2013H149.313V12.923C149.313 11.7629 149.582 10.8439 150.084 10.2199C150.581 9.60439 151.335 9.24416 152.385 9.24416C153.434 9.24416 154.206 9.61857 154.674 10.2199C155.15 10.8326 155.38 11.7204 155.38 12.7897V20.1985H158.954V11.5275C158.954 9.80862 158.537 8.28828 157.623 7.19342C156.704 6.09288 155.312 5.45752 153.434 5.45752L153.437 5.46319Z" fill="white"/>
<path d="M169.315 19.8662L169.08 17.1348L169.051 16.8086L168.739 16.9078C168.263 17.0582 167.738 17.1575 167.057 17.1575C166.464 17.1575 166.019 17.0156 165.718 16.7206C165.418 16.4256 165.219 15.9349 165.219 15.1351V9.27499H169.082V5.7805H165.219V2.17822H162.224L162.198 2.41365L161.855 5.77766H159.308V9.27215H161.645V15.3138C161.645 16.854 161.96 18.1615 162.749 19.0862C163.546 20.0194 164.788 20.5158 166.533 20.5158C167.469 20.5158 168.475 20.3825 169.148 20.13L169.335 20.0591L169.318 19.8606L169.315 19.8662Z" fill="white"/>
<path d="M24.277 13.0843C24.277 12.2929 23.67 11.598 23.5168 10.8322C23.3637 10.0663 23.6615 9.17852 23.358 8.45807C23.0545 7.73761 22.2149 7.30647 21.7923 6.66827C21.3696 6.03008 21.2817 5.08554 20.7371 4.54378C20.1925 4.00202 19.2508 3.91976 18.6126 3.48863C17.9744 3.05749 17.5348 2.20939 16.8228 1.92291C16.1109 1.63643 15.1919 1.9144 14.4487 1.76407C13.7056 1.6109 12.9851 1.00391 12.1966 1.00391C11.4081 1.00391 10.7103 1.6109 9.94447 1.76407C9.17863 1.91724 8.29083 1.61941 7.57037 1.92291C6.84992 2.22641 6.41878 3.066 5.78058 3.48863C5.14238 3.91126 4.19785 3.99919 3.65609 4.54378C3.11149 5.08838 3.03207 6.03008 2.60093 6.66827C2.16979 7.30647 1.3217 7.74612 1.03522 8.45807C0.748737 9.17001 1.02671 10.089 0.876376 10.8322C0.726045 11.5753 0.116211 12.2958 0.116211 13.0843C0.116211 13.8728 0.723209 14.5706 0.876376 15.3364C1.02954 16.1023 0.731718 16.9901 1.03522 17.7105C1.33872 18.431 2.1783 18.8621 2.60093 19.5003C3.02356 20.1385 3.11149 21.0831 3.65609 21.6248C4.20068 22.1694 5.14238 22.2488 5.78058 22.68C6.41878 23.1111 6.85842 23.9592 7.57037 24.2457C8.28232 24.5322 9.20132 24.2542 9.94447 24.4045C10.6876 24.5577 11.4052 25.1647 12.1966 25.1647C12.988 25.1647 13.6829 24.5577 14.4487 24.4045C15.2146 24.2514 16.1024 24.5492 16.8228 24.2457C17.5433 23.9422 17.9744 23.1026 18.6126 22.68C19.2508 22.2573 20.1954 22.1694 20.7371 21.6248C21.2817 21.0802 21.3611 20.1385 21.7923 19.5003C22.2234 18.8621 23.0715 18.4225 23.358 17.7105C23.6445 16.9986 23.3665 16.0796 23.5168 15.3364C23.67 14.5933 24.277 13.8728 24.277 13.0843ZM10.6706 5.78614C10.6706 4.95506 11.3457 4.27999 12.1767 4.27999C13.0078 4.27999 13.6829 4.95506 13.6829 5.78614V7.79434C13.6829 8.62542 13.0078 9.30049 12.1767 9.30049C11.3457 9.30049 10.6706 8.62542 10.6706 7.79434V5.78614ZM5.96495 6.85264C6.55209 6.2655 7.50797 6.2655 8.09511 6.85264L9.51617 8.2737C10.1033 8.86084 10.1033 9.81672 9.51617 10.4039C8.92902 10.991 7.97314 10.991 7.386 10.4039L5.96495 8.98281C5.3778 8.39566 5.3778 7.43978 5.96495 6.85264ZM3.3923 13.0644C3.3923 12.2334 4.06737 11.5583 4.89845 11.5583H6.90664C7.73772 11.5583 8.41279 12.2334 8.41279 13.0644C8.41279 13.8955 7.73772 14.5706 6.90664 14.5706H4.89845C4.06737 14.5706 3.3923 13.8955 3.3923 13.0644ZM8.09511 19.2762C7.50797 19.8634 6.55209 19.8634 5.96495 19.2762C5.3778 18.6891 5.3778 17.7332 5.96495 17.1461L16.2584 6.85264C16.8455 6.2655 17.8014 6.2655 18.3885 6.85264C18.9757 7.43978 18.9757 8.39566 18.3885 8.98281L8.09511 19.2762ZM13.6829 20.3427C13.6829 21.1738 13.0078 21.8489 12.1767 21.8489C11.3457 21.8489 10.6706 21.1738 10.6706 20.3427V18.3345C10.6706 17.5035 11.3457 16.8284 12.1767 16.8284C13.0078 16.8284 13.6829 17.5035 13.6829 18.3345V20.3427ZM18.3885 19.2762C17.8014 19.8634 16.8455 19.8634 16.2584 19.2762L14.8373 17.8552C14.2502 17.268 14.2502 16.3122 14.8373 15.725C15.4245 15.1379 16.3803 15.1379 16.9675 15.725L18.3885 17.1461C18.9757 17.7332 18.9757 18.6891 18.3885 19.2762ZM19.455 14.5706H17.4468C16.6158 14.5706 15.9407 13.8955 15.9407 13.0644C15.9407 12.2334 16.6158 11.5583 17.4468 11.5583H19.455C20.2861 11.5583 20.9612 12.2334 20.9612 13.0644C20.9612 13.8955 20.2861 14.5706 19.455 14.5706Z" fill="white"/>
</g>
<defs>
<clipPath id="clip0_284_1147">
<rect width="169.219" height="25.1961" fill="white" transform="translate(0.113281)"/>
</clipPath>
</defs>
</svg>
