<svg width="258" height="251" viewBox="0 0 258 251" fill="none" xmlns="http://www.w3.org/2000/svg">
<path d="M77.3591 31.1646L88.2365 191.212C88.5811 196.26 92.2243 200.483 97.1842 201.549L178.066 218.879C182.5 219.828 186.592 216.238 186.229 211.706L174.029 62.6809C173.653 57.9619 170.484 53.9254 166.012 52.3959L85.3783 24.9834C81.2725 23.58 77.0565 26.8103 77.345 31.1538L77.3591 31.1646Z" fill="#6F5CEC"/>
<path d="M175.582 213.977L156.504 209.902L146.134 207.669L98.9155 197.561C94.2142 196.562 90.7612 192.55 90.4385 187.762L86.2846 126.755L85.734 118.551L80.1206 36.0783C79.8506 31.9696 83.8512 28.9051 87.7233 30.2394L164.16 56.2236C168.409 57.67 171.387 61.495 171.741 65.9547L178.919 153.549L179.582 161.751L181.421 184.279L182.277 194.613L183.298 207.211C183.643 211.51 179.764 214.909 175.561 214.005L175.582 213.977Z" fill="#735BF6"/>
<path d="M108.208 191.674C108.949 191.426 109.205 190.343 109.763 189.845C110.321 189.347 111.422 189.263 111.792 188.577C112.164 187.892 111.638 186.938 111.785 186.169C111.926 185.439 112.794 184.737 112.728 183.959C112.669 183.231 111.73 182.643 111.482 181.902C111.234 181.161 111.633 180.122 111.24 179.512C110.816 178.857 109.7 178.818 109.148 178.329C108.569 177.819 108.373 176.722 107.697 176.424C107.021 176.127 106.049 176.705 105.318 176.652C104.587 176.599 103.719 175.89 102.978 176.138C102.237 176.387 101.981 177.469 101.423 177.968C100.865 178.466 99.7648 178.549 99.394 179.235C99.0227 179.921 99.5486 180.875 99.401 181.644C99.2606 182.374 98.3921 183.076 98.458 183.853C98.5169 184.582 99.4564 185.169 99.7043 185.91C99.9522 186.651 99.5532 187.69 99.9462 188.3C100.37 188.955 101.486 188.995 102.038 189.483C102.617 189.993 102.813 191.091 103.489 191.388C104.165 191.686 105.137 191.107 105.868 191.16C106.599 191.213 107.467 191.922 108.208 191.674Z" fill="#6F5CEC"/>
<path d="M179.602 161.725C174.903 159.051 170.118 156.577 165.163 154.413C159.462 151.898 153.226 149.217 146.964 148.586C144.879 148.401 142.543 148.486 140.702 149.566C139.973 150 139.372 150.554 138.896 151.204C143.472 154.267 147.984 157.415 152.464 160.603C162.616 167.872 172.429 175.608 181.451 184.239L182.308 194.573C168.866 180.551 152.846 168.854 136.842 158.118C136.475 163.172 137.454 168.485 138.438 173.361C139.574 178.728 141.316 183.965 143.478 188.971C146.761 196.513 151.147 203.597 156.513 209.89L146.143 207.657C140.402 199.49 135.983 190.352 133.255 180.789C131.617 174.927 130.487 168.947 130.069 162.873C129.899 159.986 129.923 156.875 130.506 153.926C116.544 144.754 102.287 136.082 87.8521 127.672C87.3339 127.341 86.8328 127.045 86.2933 126.742C86.2378 126.699 86.1856 126.681 86.1191 126.653C86.0069 123.921 85.8486 121.221 85.6488 118.488C85.6766 118.509 85.7045 118.531 85.7426 118.538C86.2962 118.852 86.8601 119.152 87.3923 119.493C102.844 128.418 118.195 137.619 133.135 147.386C134.051 146.103 135.218 144.925 136.673 144.033C141.817 140.742 148.209 141.405 153.79 143.013C161.326 145.147 168.639 148.235 175.627 151.802C176.728 152.381 177.84 152.946 178.928 153.537L179.592 161.739L179.602 161.725Z" fill="#C2BAF5"/>
</svg>
