<svg width="258" height="222" viewBox="0 0 258 222" fill="none" xmlns="http://www.w3.org/2000/svg">
<path d="M96.8612 67.9098C88.1967 69.8122 79.2929 74.1032 73.6252 81.1384C71.4613 83.8272 69.8929 86.9509 69.9153 90.4686C69.9399 94.8405 72.5603 98.6018 75.648 101.477C78.9252 104.524 82.8527 106.852 86.7863 108.933C90.4229 110.859 94.1837 112.54 97.9922 114.08C106.224 117.409 114.695 120.103 123.162 122.758C131.63 125.414 140.272 128.029 148.68 131.095C156.357 133.895 163.989 137.066 170.944 141.39C177.692 145.587 186.386 152.859 183.068 161.858C181.371 166.467 177.463 169.943 173.629 172.822C169.491 175.933 165.027 178.534 160.461 180.961C156.801 182.908 153.054 185.484 150.986 189.178C149.831 191.235 149.492 193.608 150.152 195.885C151.068 199.029 153.674 201.49 156.236 203.364C158.244 204.837 160.415 206.08 162.63 207.202C163.688 207.739 164.45 206.069 163.398 205.537C159.712 203.665 155.743 201.415 153.266 197.996C151.894 196.112 151.255 193.925 151.896 191.695C152.982 187.887 156.923 185.09 160.247 183.163C160.422 183.059 160.597 182.963 160.771 182.866C160.842 182.829 160.911 182.786 160.988 182.748C161.204 182.628 160.999 182.74 161.116 182.68C162.022 182.201 162.935 181.727 163.834 181.234C166.265 179.915 168.634 178.478 170.94 176.956C174.91 174.34 178.892 171.391 181.849 167.62C184.654 164.053 186.312 159.612 185.289 155.071C184.319 150.778 181.422 147.209 178.166 144.375C175.136 141.727 171.65 139.578 168.136 137.641C164.62 135.703 161.015 134.04 157.329 132.499C149.336 129.159 141.083 126.483 132.823 123.881C124.563 121.279 115.93 118.688 107.601 115.748C99.8766 113.028 92.2015 109.99 85.0798 105.921C78.6658 102.257 69.1044 95.6149 72.3314 86.8901C73.5275 83.6542 75.9644 80.9333 78.5486 78.7207C81.9556 75.8022 85.9049 73.5397 90.0724 71.8878C92.3276 70.9961 94.6553 70.2767 97.0253 69.7549C98.1625 69.5057 98.0062 67.6772 96.8509 67.9292L96.8612 67.9098Z" fill="#C2BAF5"/>
<path d="M168.476 19.3093L166.722 19.2065C165.394 19.1307 164.118 19.7379 163.337 20.8201L162.312 22.245L162.414 20.4905C162.49 19.1624 161.883 17.8872 160.801 17.106L159.377 16.081L161.131 16.1836C162.459 16.2595 163.734 15.6523 164.515 14.5702L165.54 13.1453L165.438 14.8998C165.362 16.2279 165.968 17.503 167.051 18.2843L168.476 19.3093Z" fill="#F6CFB0"/>
<path d="M64.5074 98.5284L62.753 98.4262C61.4249 98.3504 60.1497 98.957 59.3691 100.04L58.3432 101.465L58.4465 99.7105C58.5223 98.3823 57.9146 97.1072 56.8327 96.3255L55.4077 95.3006L57.1621 95.4029C58.4903 95.4787 59.7655 94.872 60.5471 93.7901L61.572 92.3651L61.4698 94.1195C61.393 95.4478 62.0006 96.7229 63.0825 97.5035L64.5074 98.5284Z" fill="#F1C453"/>
<path d="M167.845 101.053C168.611 118.071 170.534 134.21 174 149.202C174.993 153.487 172.625 157.639 168.629 158.703L102.272 176.304C100.491 176.769 98.6618 176.52 97.0733 175.713C97.0672 175.714 97.0606 175.708 97.0536 175.709C95.1234 174.726 93.5452 172.93 92.8767 170.634C91.6183 166.331 90.4673 162.067 89.4305 157.834C88.8701 155.572 88.3478 153.324 87.8518 151.086C86.5112 145.028 85.3939 139.059 84.505 133.166C84.1828 131.084 83.893 129.01 83.6347 126.946C80.6672 103.669 81.1169 81.6323 84.5586 60.6797C85.2964 56.186 88.4167 52.6441 92.6125 51.4264L162.037 31.388C162.879 31.1478 163.725 31.1222 164.527 31.2852C167.356 31.8259 169.641 34.5932 169.397 37.8296C168.156 53.7005 167.44 69.17 167.477 84.0828C167.491 89.8255 167.614 95.4845 167.864 101.051L167.845 101.053Z" fill="#62998F"/>
<path d="M165.852 93.2756C166.371 112.916 168.324 131.491 172.265 148.562C173.252 152.848 170.884 157 166.883 158.071L115.714 171.64L105.553 174.338L100.531 175.665C99.3679 175.973 98.1826 175.976 97.0638 175.714C97.0577 175.714 97.0511 175.709 97.045 175.71C94.3437 175.077 91.9889 172.943 91.1232 169.991C90.0838 166.435 89.12 162.914 88.2395 159.423C87.6602 157.144 87.1113 154.874 86.5956 152.632C85.2481 146.758 84.1115 140.969 83.1843 135.252C83.1293 134.932 83.0803 134.611 83.0252 134.29C82.7346 132.475 82.4633 130.658 82.2289 128.856C82.1918 128.595 82.1553 128.341 82.1242 128.079C81.5673 123.924 81.1081 119.821 80.7674 115.744C80.5781 113.507 80.4224 111.292 80.2912 109.087C79.3233 92.0817 80.2273 75.7581 82.8051 60.0364C83.5495 55.5483 86.6758 52.0058 90.8666 50.7886L160.296 30.7556C161.773 30.3258 163.271 30.5758 164.513 31.2927C164.513 31.2927 164.519 31.2921 164.526 31.2976C166.482 32.4131 167.845 34.6604 167.645 37.1984C166.317 54.2204 165.59 70.7908 165.746 86.6933C165.76 88.898 165.798 91.0932 165.852 93.2756Z" fill="#68DACB"/>
<path opacity="0.3" d="M165.144 107.577C166.058 121.387 167.831 134.543 170.681 146.889C171.634 151.013 169.35 155.015 165.504 156.034L101.633 172.974C97.8275 173.982 93.7671 171.544 92.5839 167.517C87.0088 148.458 83.6806 130.21 82.4014 112.707C82.2431 110.603 82.1167 108.501 82.0213 106.416C81.777 101.088 81.7231 95.8338 81.8595 90.6419C81.9091 88.5178 81.9953 86.4024 82.1077 84.2966C82.5286 76.6139 83.3565 69.0767 84.5727 61.6806C84.8263 60.1572 85.3619 58.7484 86.1219 57.5147C87.3398 55.5305 89.1519 53.9876 91.3241 53.1221C91.6499 52.9932 91.9824 52.881 92.3232 52.7812L159.152 33.4883C162.823 32.4312 166.544 35.6941 166.232 39.6864C164.555 61.1096 163.87 81.7805 164.785 101.26C164.884 103.382 164.999 105.49 165.144 107.577Z" fill="#A1E8DF"/>
<path d="M150.695 57.4213C149.889 57.2151 149.534 56.0758 148.892 55.5963C148.25 55.1168 147.064 55.108 146.617 54.4133C146.184 53.7478 146.651 52.6472 146.426 51.8447C146.212 51.085 145.238 50.3979 145.238 49.5628C145.237 48.7766 146.202 48.0754 146.407 47.2696C146.613 46.4637 146.104 45.3818 146.48 44.695C146.878 43.9625 148.069 43.8243 148.617 43.2616C149.192 42.6669 149.319 41.4748 150.013 41.1013C150.709 40.7276 151.781 41.2703 152.574 41.1515C153.368 41.0388 154.223 40.2137 155.029 40.4132C155.834 40.6127 156.189 41.758 156.83 42.2375C157.473 42.7169 158.66 42.7268 159.107 43.4214C159.554 44.115 159.073 45.1876 159.297 45.9891C159.51 46.7488 160.485 47.4358 160.486 48.2719C160.487 49.0581 159.522 49.7583 159.316 50.5642C159.111 51.3761 159.619 52.452 159.243 53.1387C158.845 53.8713 157.655 54.0095 157.107 54.5721C156.53 55.168 156.405 56.3594 155.709 56.7334C155.014 57.1063 153.942 56.5641 153.149 56.6826C152.355 56.7952 151.5 57.6203 150.695 57.4213Z" fill="#62998F"/>
<path d="M140.662 97.7217C137.135 97.1502 133.614 96.5588 130.102 95.936C129.528 93.2756 128.445 90.6812 127.256 88.3322C124.758 83.4104 121.686 78.8377 118.218 74.5555C111.312 66.0615 102.522 58.9451 92.8102 53.8774C92.3184 53.6229 91.8223 53.376 91.3244 53.1221C89.1533 53.9875 87.3402 55.5305 86.1232 57.5146C93.699 60.9308 100.725 65.6665 106.773 71.3602C110.386 74.7752 113.699 78.5131 116.546 82.5909C119.128 86.2765 121.817 90.3693 123.335 94.6842C109.534 92.0889 95.5009 88.9882 82.1091 84.2965C81.9966 86.4022 81.9095 88.5177 81.8609 90.6418C90.8789 93.7185 100.123 96.1402 109.429 98.1811C114.304 99.2511 119.191 100.247 124.102 101.166C123.931 101.883 123.633 102.556 123.164 103.184C122.017 104.744 120.119 105.645 118.306 106.223C115.724 107.041 112.994 107.462 110.231 107.676C109.481 107.735 108.723 107.777 107.971 107.812C106.938 107.862 105.901 107.881 104.876 107.893C103.587 107.905 102.315 107.899 101.061 107.889C94.6736 107.841 88.3296 107.287 82.0226 106.415C82.118 108.501 82.2444 110.603 82.4027 112.707C86.012 113.185 89.6352 113.564 93.2774 113.812C98.7677 114.172 104.302 114.227 109.792 113.818C110.915 113.736 112.036 113.635 113.148 113.51C113.634 113.457 114.126 113.398 114.611 113.334C119.819 112.664 125.385 110.928 128.488 106.381C129.373 105.091 129.924 103.718 130.231 102.3C132.156 102.639 134.078 102.965 136.002 103.291C145.679 104.916 155.403 106.315 165.145 107.577C165 105.49 164.886 103.382 164.787 101.259C156.728 100.186 148.686 99.0194 140.662 97.7217Z" fill="#AFE5DE"/>
<path d="M116.499 32.0961C116.499 32.0961 118.031 34.6958 120.588 34.0583L121.399 31.6278C121.399 31.6278 118.893 31.4311 118.259 30.2691L116.493 32.0966L116.499 32.0961Z" fill="#F1C453"/>
<path d="M109.22 107.724C109.275 107.793 109.315 107.875 109.344 107.927C109.287 108.049 109.232 108.172 109.186 108.268C108.793 109.178 108.472 109.933 108.474 111.033C108.471 111.132 108.475 111.235 108.483 111.327C108.489 111.584 108.507 111.846 108.527 112.115C108.572 112.59 108.637 113.069 108.714 113.547C108.936 114.915 109.225 116.269 109.555 117.601C109.585 117.716 109.608 117.83 109.637 117.944C108.947 118.17 108.083 118.461 107.078 118.809C101.917 120.592 92.9878 123.854 84.0233 128.021C83.9408 128.054 83.864 128.092 83.7827 128.136C83.2648 128.376 82.7469 128.616 82.2296 128.862C82.1926 128.602 82.1561 128.348 82.1249 128.086C81.568 123.931 81.1088 119.827 80.7681 115.75C80.5788 113.514 80.4232 111.298 80.2919 109.093C80.8384 108.832 81.3854 108.578 81.956 108.314C82.002 108.284 82.0619 108.26 82.114 108.231C89.341 104.905 98.2951 101.599 109.251 98.794C108.793 100.227 108.349 101.694 108.304 103.277C108.285 103.986 108.287 104.778 108.39 105.536C108.445 105.912 108.516 106.28 108.635 106.613C108.754 106.97 108.981 107.477 109.221 107.736L109.22 107.724Z" fill="black"/>
<path d="M167.152 80.8834C167.166 86.6261 167.289 92.2841 167.539 97.8516C166.984 98.0207 166.423 98.1975 165.856 98.381C165.416 98.5209 164.975 98.6679 164.527 98.8084C155.422 101.822 145.9 105.872 139.168 108.917C136.266 110.233 133.892 111.357 132.281 112.125C132.472 111.228 132.569 110.254 132.843 109.331C133.105 108.464 133.35 107.421 133.212 106.432C133.191 106.282 133.163 106.124 133.125 105.974C132.877 105.058 132.135 104.675 132.026 103.733C131.836 102.197 132.442 100.818 132.726 99.4211C133.128 97.4526 132.791 95.5314 131.854 93.8275C131.713 93.5761 131.549 93.4014 131.372 93.29C134.042 92.2363 146.85 87.2586 164.078 81.8218C164.526 81.6813 164.972 81.5398 165.421 81.4053C165.994 81.2273 166.572 81.0488 167.151 80.8713L167.152 80.8834Z" fill="black"/>
<path d="M176.246 42.5577L172.638 42.1529C169.899 41.8432 167.198 42.9609 165.474 45.1035L163.201 47.932L163.605 44.3236C163.915 41.5849 162.797 38.8845 160.654 37.1602L157.825 34.887L161.434 35.2918C164.172 35.6015 166.874 34.4833 168.598 32.3403L170.871 29.5121L170.466 33.1202C170.156 35.8591 171.275 38.5598 173.417 40.2839L176.246 42.5577Z" fill="#FAEFCB"/>
<path d="M150.009 19.5008C145.905 20.9742 141.613 22.6683 139.225 26.5518C138.146 28.3075 137.577 30.3831 137.72 32.4521C137.881 34.7897 138.946 36.9978 140.229 38.9271C145.5 46.8214 154.975 49.609 162.132 55.2651C166.093 58.4003 169.589 62.8398 169.91 68.0623C169.979 69.2411 171.806 69.0666 171.736 67.8878C171.462 63.4715 169.1 59.5205 166.103 56.3848C163.107 53.2491 158.985 50.8045 155.084 48.5659C151.184 46.3282 147.464 44.164 144.346 41.0465C141.425 38.131 138.583 33.8501 139.856 29.551C141.296 24.689 146.341 22.7694 150.659 21.2142C151.769 20.8133 151.12 19.0998 150.003 19.5014L150.009 19.5008Z" fill="#C2BAF5"/>
<path d="M168.52 72.4582C146.535 78.9147 129.274 85.6267 126.125 86.8727C126.302 86.9852 126.466 87.1539 126.606 87.4043C127.537 89.1159 127.874 91.031 127.472 92.9984C127.189 94.4014 126.583 95.7802 126.772 97.3102C126.886 98.2515 127.625 98.6424 127.877 99.5521C128.18 100.66 127.899 101.897 127.596 102.902C127.321 103.826 127.229 104.793 127.032 105.696C138.534 100.18 189.829 76.535 186.551 95.4075L190.963 78.0552C190.963 78.0552 192.871 65.3031 168.52 72.4582Z" fill="#3370F8"/>
<path d="M237.984 102.848C237.984 102.848 217.116 80.7474 202.726 90.1762C188.343 99.6106 190.963 78.049 190.963 78.049L186.551 95.4014C182.643 116.024 201.677 107.497 201.677 107.497C201.677 107.497 219.92 97.4907 234.43 116.967C234.43 116.967 240.698 125.909 236.92 133.059L243.028 116.158C243.028 116.158 243.001 107.45 237.989 102.842L237.984 102.848Z" fill="#6694FA"/>
<path d="M251.122 158.782C251.122 158.782 231.889 156.559 236.913 133.072L243.021 116.171C243.021 116.171 238.197 141.82 251.955 144.161L251.116 158.783L251.122 158.782Z" fill="#436FEE"/>
<path d="M33.8992 174.101L30.8168 178.167L29.6935 179.657L26.6985 183.61C26.6985 183.61 20.276 178.634 16.6741 174.241C15.9441 173.352 15.3266 172.484 14.9072 171.695C14.4135 170.771 14.181 169.945 14.3269 169.287L21.102 159.694L25.1192 162.388L29.7341 165.486L33.8926 174.095L33.8992 174.101Z" fill="#A6D3EB"/>
<path d="M36.208 166.772L33.3072 179.17C32.5096 178.859 31.6665 178.522 30.8094 178.168L29.6861 179.658C24.5102 178.788 19.4187 175.975 16.6667 174.242C15.9367 173.353 15.3192 172.484 14.8998 171.696C14.6523 171.485 12.2052 169.084 16.2724 160.856L21.1918 157.818L25.85 160.598L36.2026 166.779L36.208 166.772Z" fill="black"/>
<path d="M71.5536 169.741C71.5536 169.741 71.5548 169.753 71.5493 169.76C71.4433 170.133 71.3307 170.5 71.206 170.868C68.1187 180.415 60.3025 188.301 41.4068 181.954C41.4068 181.954 37.9212 180.966 33.3146 179.176C32.5169 178.865 31.6737 178.528 30.8167 178.174C27.5531 176.808 23.9744 175.104 20.7745 173.118L25.1199 162.401L25.8512 160.604L27.7554 155.908C38.5059 166.51 57.6594 168.611 65.3306 160.039C69.1551 155.767 70.1227 148.849 65.7971 139.008L72.5567 149.765L72.6012 149.847C72.6012 149.847 74.2008 160.353 71.5426 169.755L71.5536 169.741Z" fill="#6694FA"/>
<path opacity="0.5" d="M67.5842 171.909C68.9672 169.35 71.7169 164.307 67.061 156.723" stroke="#182E75" stroke-width="0.611564" stroke-linecap="round" stroke-linejoin="round"/>
<path d="M71.5474 169.76C71.3651 162.97 66.5419 160.648 66.5419 160.648C62.7033 158.73 59.6559 156.606 57.2677 154.371C47.5779 145.289 48.618 134.249 51.2028 126.58C52.9681 121.33 55.4501 117.665 55.7034 117.297C55.5695 117.629 54.4311 120.503 54.3469 124.123C54.2726 127.46 55.0832 131.443 58.3859 134.691C60.1083 136.388 62.8859 137.106 65.8116 138.988C77.9825 146.838 71.7878 168.674 71.5468 169.754L71.5474 169.76Z" fill="#A6D3EB"/>
<path d="M57.2677 154.371C47.578 145.289 48.618 134.249 51.2028 126.58L54.3476 124.13C54.2732 127.466 55.0839 131.449 58.3865 134.697C53.9033 141.791 56.0386 150.636 57.2683 154.377L57.2677 154.371Z" fill="black"/>
<path d="M105.964 111.592C105.599 110.146 105.28 108.677 105.041 107.195C104.905 106.361 104.807 105.528 104.801 104.681C104.799 103.575 105.114 102.826 105.507 101.911C105.546 101.814 105.608 101.692 105.658 101.57C105.636 101.523 105.596 101.435 105.535 101.373C105.296 101.12 105.068 100.607 104.949 100.256C104.601 99.2514 104.59 97.9743 104.624 96.9199C104.67 95.343 105.12 93.8753 105.572 92.4368C78.4434 99.397 63.6272 109.377 56.746 115.287C52.675 118.785 49.9307 124.398 49.343 130.849C48.297 142.407 52.4385 148.523 52.4385 148.523C43.6838 132.318 95.3241 115.127 105.958 111.593L105.964 111.592Z" fill="#3370F8"/>
<path d="M27.7582 155.895L25.854 160.592L25.1225 162.388L20.7771 173.106C20.7771 173.106 13.8231 166.681 14.9304 171.711C14.9304 171.711 14.9238 171.706 14.9104 171.695C14.663 171.485 12.2158 169.083 16.283 160.856C16.4016 160.617 16.5254 160.371 16.6611 160.119C21.4838 150.861 27.7704 155.894 27.7704 155.894L27.7582 155.895Z" fill="#436FEE"/>
<path opacity="0.5" d="M189.314 84.5588L187.19 92.9268" stroke="#182E75" stroke-width="0.611564" stroke-linecap="round" stroke-linejoin="round"/>
<path opacity="0.5" d="M242.205 118.62L239.66 125.671" stroke="#182E75" stroke-width="0.611564" stroke-linecap="round" stroke-linejoin="round"/>
<path d="M47.6222 62.0181C47.6222 62.0181 50.2176 66.4204 54.544 65.344L55.9205 61.2252C55.9205 61.2252 51.6805 60.893 50.608 58.9311L47.6222 62.0181Z" fill="#436FEE"/>
<path d="M184.219 44.7767C187.505 45.5312 188.925 49.1434 188.925 49.1434L185 52.9466C185 52.9466 183.293 48.5144 181.761 48.231L184.22 44.7828L184.219 44.7767Z" fill="#F0A1C8"/>
<path d="M191.331 4.82176L190.565 8.58097L194.214 10.315L195.426 7.31174L191.331 4.82176Z" fill="#95CBE8"/>
<path d="M33.8614 104.347L33.0902 108.107L36.7448 109.834L37.9574 106.837L33.8614 104.347Z" fill="#DCD7F9"/>
<path d="M174.861 100.593L174.096 104.359L177.744 106.087L178.957 103.089L174.861 100.593Z" fill="#EC702D"/>
<path d="M80.7773 26.0316L81.7725 28.1543C81.7725 28.1543 82.0854 26.6008 83.462 25.2652L82.6374 22.8067C82.6374 22.8067 80.9227 23.2469 80.7773 26.0316Z" fill="#6F5CEC"/>
<path d="M34.0694 127.709L33.1834 129.238C33.1834 129.238 34.2748 128.765 35.6957 129.041L36.8606 127.473C36.8606 127.473 35.8494 126.599 34.0694 127.709Z" fill="#A4CEBB"/>
<path d="M205.54 59.702L204.388 57.6733C204.388 57.6733 204.199 59.2404 202.928 60.6696L203.936 63.043C203.936 63.043 205.608 62.4718 205.534 59.7026L205.54 59.702Z" fill="#A4CEBB"/>
</svg>
