<svg width="256" height="256" viewBox="0 0 256 256" fill="none" xmlns="http://www.w3.org/2000/svg">
<rect width="256" height="256" fill="#0A1D4B"/>
<g clip-path="url(#clip0_1_4195)">
<path d="M199.543 112.5C198.737 112.5 198.026 112.758 197.517 113.24C197.008 113.725 196.725 114.409 196.725 115.215C196.725 116.021 197.018 116.709 197.531 117.19C198.044 117.672 198.751 117.93 199.543 117.93C200.336 117.93 201.029 117.672 201.542 117.19C202.058 116.709 202.362 116.025 202.362 115.215C202.362 114.405 202.069 113.721 201.556 113.24C201.043 112.758 200.339 112.5 199.543 112.5Z" fill="white"/>
<path d="M70.2215 119.221C67.8024 119.221 65.8041 120.181 64.5556 121.779V119.609H60.1665V143.497H64.6228V135.173C65.8678 136.803 67.8873 137.742 70.1932 137.742C74.9431 137.742 78.8088 134.091 78.8088 128.529C78.8088 125.716 77.9458 123.385 76.425 121.755C74.9042 120.122 72.7503 119.218 70.2251 119.218L70.2215 119.221ZM69.5 123.81C72.1243 123.81 74.1827 125.849 74.1827 128.724C74.1827 131.6 72.1243 133.606 69.5 133.606C66.8758 133.606 64.683 131.589 64.683 128.724C64.683 125.859 66.7661 123.81 69.5 123.81Z" fill="white"/>
<path d="M94.65 133.509L94.9754 133.474L94.9294 133.052L94.5298 133.209L94.65 133.509Z" fill="white"/>
<path d="M94.4837 122.003C93.1398 120.331 91.0955 119.221 88.3262 119.221C85.5569 119.221 83.5304 120.202 82.0166 121.853C80.51 123.5 79.6753 125.796 79.6753 128.4C79.6753 131.317 80.6338 133.666 82.4092 135.282C84.1811 136.894 86.7241 137.742 89.8293 137.742C91.6932 137.742 93.5076 137.48 95.0956 136.845L95.3255 136.754L95.3007 136.51L94.9718 133.47L94.6464 133.505L94.5262 133.205C93.3237 133.673 91.9868 133.928 90.42 133.928C88.7011 133.928 87.3359 133.519 86.3492 132.8C85.4614 132.151 84.8637 131.233 84.5949 130.082H96.3087L96.3476 129.803C96.4148 129.328 96.4502 128.633 96.4502 128.012C96.4502 125.856 95.8206 123.66 94.4837 121.999V122.003ZM84.4181 126.979C84.6303 125.824 85.1113 124.983 85.7408 124.418C86.4376 123.797 87.3465 123.486 88.3581 123.486C90.4837 123.486 91.8807 124.98 92.1848 126.976H84.4181V126.979Z" fill="white"/>
<path d="M107.75 119.221C105.331 119.221 103.333 120.181 102.081 121.779V119.609H97.6914V143.497H102.148V135.173C103.393 136.803 105.412 137.742 107.718 137.742C112.468 137.742 116.334 134.091 116.334 128.529C116.334 125.716 115.471 123.385 113.95 121.755C112.429 120.122 110.275 119.218 107.75 119.218V119.221ZM107.028 123.81C109.653 123.81 111.715 125.849 111.715 128.724C111.715 131.6 109.656 133.606 107.028 133.606C104.401 133.606 102.211 131.589 102.211 128.724C102.211 125.859 104.295 123.81 107.028 123.81Z" fill="white"/>
<path d="M128.069 119.221C125.65 119.221 123.651 120.181 122.399 121.779V119.609H118.01V143.497H122.467V135.173C123.712 136.803 125.731 137.742 128.037 137.742C132.783 137.742 136.653 134.091 136.653 128.529C136.653 125.716 135.79 123.385 134.269 121.755C132.748 120.122 130.594 119.218 128.069 119.218V119.221ZM127.347 123.81C129.972 123.81 132.034 125.849 132.034 128.724C132.034 131.6 129.975 133.606 127.347 133.606C124.72 133.606 122.53 131.589 122.53 128.724C122.53 125.859 124.613 123.81 127.347 123.81Z" fill="white"/>
<path d="M153.003 136.848L153.233 136.758L153.208 136.513L152.883 136.548L153.007 136.848H153.003Z" fill="white"/>
<path d="M152.388 122.003C151.044 120.335 148.999 119.221 146.23 119.221C143.602 119.221 141.434 120.202 139.92 121.853C138.414 123.5 137.579 125.796 137.579 128.4C137.579 131.317 138.538 133.666 140.313 135.282C142.085 136.894 144.628 137.742 147.733 137.742C149.597 137.742 151.411 137.48 152.999 136.845L152.876 136.545L153.201 136.51L152.872 133.47L152.826 133.048L152.426 133.205C151.224 133.673 149.887 133.928 148.32 133.928C146.601 133.928 145.233 133.519 144.249 132.8C143.362 132.151 142.764 131.233 142.495 130.082H154.209L154.248 129.803C154.315 129.328 154.35 128.633 154.35 128.012C154.35 125.856 153.721 123.66 152.384 121.999L152.388 122.003ZM142.322 126.979C142.534 125.824 143.012 124.983 143.645 124.418C144.341 123.797 145.25 123.486 146.262 123.486C148.387 123.486 149.784 124.98 150.089 126.976H142.322V126.979Z" fill="white"/>
<path d="M159.932 121.532V119.612H155.542V137.358H159.999V129.534C159.999 127.625 160.381 126.288 161.198 125.437C162.011 124.589 163.323 124.153 165.364 124.201L165.682 124.208L165.7 123.894L165.93 119.563L165.948 119.221H165.601C163.058 119.221 161.078 119.993 159.935 121.532H159.932Z" fill="white"/>
<path d="M188.385 119.221C187.143 119.221 185.951 119.473 184.887 120.104C183.974 120.645 183.175 121.451 182.517 122.582C182.058 121.661 181.41 120.883 180.561 120.307C179.525 119.605 178.202 119.221 176.593 119.221C174.273 119.221 172.643 120.146 171.55 121.581V119.609H167.161V137.354H171.617V128.4C171.617 126.969 171.935 125.838 172.547 125.07C173.148 124.317 174.061 123.873 175.352 123.873C176.643 123.873 177.541 124.33 178.093 125.067C178.655 125.821 178.92 126.913 178.92 128.236V137.351H183.377V128.396C183.377 126.965 183.695 125.835 184.307 125.067C184.908 124.313 185.821 123.87 187.112 123.87C188.402 123.87 189.329 124.327 189.881 125.063C190.447 125.817 190.712 126.909 190.712 128.232V137.347H195.168V126.679C195.168 124.564 194.648 122.694 193.524 121.35C192.392 119.996 190.68 119.211 188.385 119.211V119.221Z" fill="white"/>
<path d="M197.64 119.609H197.312V137.354H201.768V119.609H197.64Z" fill="white"/>
<path d="M213.68 119.221C211.307 119.221 209.591 120.146 208.47 121.587V119.609H204.081V137.354H208.537V128.4C208.537 126.972 208.873 125.842 209.499 125.074C210.118 124.316 211.059 123.873 212.368 123.873C213.676 123.873 214.638 124.334 215.222 125.074C215.816 125.828 216.103 126.92 216.103 128.236V137.351H220.559V126.683C220.559 124.568 220.039 122.697 218.9 121.35C217.754 119.996 216.018 119.214 213.676 119.214L213.68 119.221Z" fill="white"/>
<path d="M233.479 136.943L233.185 133.582L233.15 133.181L232.761 133.303C232.167 133.488 231.512 133.61 230.663 133.61C229.924 133.61 229.369 133.435 228.994 133.072C228.619 132.709 228.372 132.106 228.372 131.122V123.912H233.189V119.612H228.372V115.18H224.637L224.605 115.47L224.177 119.609H221.001V123.908H223.915V131.341C223.915 133.236 224.308 134.845 225.291 135.983C226.285 137.131 227.834 137.742 230.009 137.742C231.176 137.742 232.432 137.578 233.27 137.267L233.503 137.18L233.482 136.936L233.479 136.943Z" fill="white"/>
<path d="M52.6296 128.598C52.6296 127.625 51.8727 126.77 51.6818 125.828C51.4908 124.885 51.8621 123.793 51.4837 122.907C51.1053 122.02 50.0584 121.49 49.5314 120.705C49.0044 119.919 48.8948 118.757 48.2157 118.091C47.5367 117.424 46.3625 117.323 45.5667 116.792C44.7709 116.262 44.2227 115.219 43.335 114.866C42.4473 114.514 41.3013 114.856 40.3747 114.671C39.4481 114.482 38.5497 113.735 37.5665 113.735C36.5833 113.735 35.7132 114.482 34.7583 114.671C33.8034 114.859 32.6964 114.493 31.798 114.866C30.8997 115.239 30.3621 116.272 29.5663 116.792C28.7706 117.312 27.5928 117.421 26.9173 118.091C26.2382 118.761 26.1392 119.919 25.6016 120.705C25.064 121.49 24.0065 122.031 23.6493 122.907C23.2921 123.783 23.6387 124.913 23.4513 125.828C23.2638 126.742 22.5034 127.628 22.5034 128.598C22.5034 129.569 23.2603 130.427 23.4513 131.369C23.6423 132.312 23.2709 133.404 23.6493 134.29C24.0278 135.177 25.0746 135.707 25.6016 136.492C26.1286 137.278 26.2382 138.44 26.9173 139.106C27.5964 139.776 28.7706 139.874 29.5663 140.404C30.3621 140.935 30.9103 141.978 31.798 142.331C32.6858 142.683 33.8317 142.341 34.7583 142.526C35.685 142.715 36.5798 143.462 37.5665 143.462C38.5533 143.462 39.4198 142.715 40.3747 142.526C41.3296 142.338 42.4366 142.704 43.335 142.331C44.2333 141.957 44.7709 140.924 45.5667 140.404C46.3625 139.885 47.5402 139.776 48.2157 139.106C48.8948 138.436 48.9938 137.278 49.5314 136.492C50.069 135.707 51.1265 135.166 51.4837 134.29C51.8409 133.414 51.4943 132.284 51.6818 131.369C51.8727 130.455 52.6296 129.569 52.6296 128.598ZM35.6637 119.619C35.6637 118.597 36.5055 117.766 37.5418 117.766C38.578 117.766 39.4198 118.597 39.4198 119.619V122.09C39.4198 123.112 38.578 123.943 37.5418 123.943C36.5055 123.943 35.6637 123.112 35.6637 122.09V119.619ZM29.7962 120.931C30.5283 120.209 31.7202 120.209 32.4523 120.931L34.2243 122.68C34.9564 123.402 34.9564 124.578 34.2243 125.301C33.4922 126.023 32.3003 126.023 31.5682 125.301L29.7962 123.552C29.0641 122.83 29.0641 121.654 29.7962 120.931ZM26.5884 128.574C26.5884 127.552 27.4301 126.721 28.4664 126.721H30.9704C32.0067 126.721 32.8485 127.552 32.8485 128.574C32.8485 129.597 32.0067 130.427 30.9704 130.427H28.4664C27.4301 130.427 26.5884 129.597 26.5884 128.574ZM32.4523 136.217C31.7202 136.939 30.5283 136.939 29.7962 136.217C29.0641 135.494 29.0641 134.318 29.7962 133.596L42.6312 120.931C43.3633 120.209 44.5552 120.209 45.2873 120.931C46.0194 121.654 46.0194 122.83 45.2873 123.552L32.4523 136.217ZM39.4198 137.529C39.4198 138.551 38.578 139.382 37.5418 139.382C36.5055 139.382 35.6637 138.551 35.6637 137.529V135.058C35.6637 134.036 36.5055 133.205 37.5418 133.205C38.578 133.205 39.4198 134.036 39.4198 135.058V137.529ZM45.2873 136.217C44.5552 136.939 43.3633 136.939 42.6312 136.217L40.8592 134.468C40.1271 133.746 40.1271 132.57 40.8592 131.847C41.5914 131.125 42.7832 131.125 43.5154 131.847L45.2873 133.596C46.0194 134.318 46.0194 135.494 45.2873 136.217ZM46.6171 130.427H44.1131C43.0768 130.427 42.235 129.597 42.235 128.574C42.235 127.552 43.0768 126.721 44.1131 126.721H46.6171C47.6534 126.721 48.4951 127.552 48.4951 128.574C48.4951 129.597 47.6534 130.427 46.6171 130.427Z" fill="white"/>
</g>
<defs>
<clipPath id="clip0_1_4195">
<rect width="211" height="31" fill="white" transform="translate(22.5 112.5)"/>
</clipPath>
</defs>
</svg>
