<svg width="108" height="108" viewBox="0 0 108 108" fill="none" xmlns="http://www.w3.org/2000/svg">
<path d="M59.9693 25.905C58.2194 24.4831 55.9592 24.1181 53.7839 24.5963C51.4548 25.1036 49.525 26.5222 48.1283 28.4228C46.5948 30.5112 45.776 33.0729 45.2992 35.5938C44.8231 38.1149 44.6038 40.9285 44.5646 43.6119C44.4825 49.1143 45.0777 54.5961 45.2311 60.0872C45.3743 65.2154 45.2328 70.6316 43.4125 75.4905C42.5501 77.7959 41.1916 80.0967 39.1398 81.5366C36.7202 83.2342 33.7756 83.3197 30.935 83.0148C30.1692 82.9339 30.1832 84.1353 30.9452 84.2151C33.4788 84.4878 36.1047 84.4493 38.4516 83.3331C40.4748 82.3708 42.0543 80.6678 43.1876 78.7588C45.7025 74.5084 46.3019 69.2852 46.4446 64.4371C46.605 59.0584 46.0526 53.6969 45.8418 48.3269C45.7384 45.6505 45.7165 42.9629 45.9146 40.2889C46.1134 37.6151 46.4721 35.0376 47.3471 32.5619C48.2221 30.0855 49.8486 27.5416 52.3761 26.3366C54.4821 25.3302 57.2371 25.2107 59.1255 26.7488C59.7214 27.2315 60.5764 26.3914 59.9779 25.9032L59.9693 25.905Z" fill="#85D6CA"/>
<path d="M52.9467 46.0811L47.357 53.9168C46.1831 52.1107 42.2321 52.8876 38.6025 54.0744C37.1259 54.558 35.7012 55.113 34.5355 55.5792C30.5078 57.2149 32.3155 52.867 32.3155 52.867C32.3155 52.867 31.0345 54.0282 26.9582 53.7895C22.8775 53.5497 27.6856 47.0671 27.6856 47.0671C27.6856 47.0671 21.8739 49.2818 20.1074 48.3732C18.3678 47.488 21.6577 43.392 21.7717 43.2441C21.638 43.2792 19.5052 43.8763 16.5651 43.4656C13.5313 43.0467 16.1439 38.6941 16.1439 38.6941L13.0904 38.9539C8.88756 39.5431 10.1011 34.8906 10.1011 34.8906C2.84398 35.74 5.539 30.2903 5.539 30.2903C0.357367 31.4552 1.0102 27.4399 1.0102 27.4399C1.56354 24.6787 3.54053 23.364 5.54465 22.7527C7.71132 22.0897 10.0474 22.1892 12.1953 22.8979C27.0025 27.8062 32.6053 23.3391 32.6053 23.3391C39.2891 17.6071 43.4404 19.0513 43.4404 19.0513C47.5728 20.3823 49.923 26.5533 51.2537 32.6627C52.7245 39.4064 52.9467 46.0811 52.9467 46.0811Z" fill="#E4F4F9"/>
<path d="M20.6846 27.5513C20.6846 27.5513 30.2293 30.6144 36.56 23.6024C36.56 23.6024 44.6738 16.0118 47.8409 28.9257L49.0126 35.7217" stroke="#BCDFF0" stroke-width="0.600516" stroke-linecap="round" stroke-linejoin="round"/>
<path d="M40.2473 26.667C40.2473 26.667 37.8184 30.7201 40.9403 30.6868C44.0617 30.6527 44.4652 29.4719 44.4652 29.4719C44.4652 29.4719 42.2742 34.3221 45.3384 34.5342C48.4028 34.7457 48.6407 33.5956 48.6407 33.5956" stroke="#BCDFF0" stroke-width="0.600516" stroke-linecap="round" stroke-linejoin="round"/>
<path d="M33.5879 38.3829L40.6666 37.1627C40.6666 37.1627 35.8609 39.1366 38.0292 43.0002C38.0292 43.0002 38.7907 43.9795 40.8507 43.6238L44.1831 43.0494" stroke="#BCDFF0" stroke-width="0.600516" stroke-linecap="round" stroke-linejoin="round"/>
<path d="M24.2378 41.5429C24.2378 41.5429 26.6416 44.3585 30.6152 41.656C30.6152 41.656 27.9235 48.8841 36.7688 45.742" stroke="#BCDFF0" stroke-width="0.600516" stroke-linecap="round" stroke-linejoin="round"/>
<path d="M41.3437 49.998C41.3437 49.998 35.1799 53.4815 35.0479 46.8438" stroke="#BCDFF0" stroke-width="0.600516" stroke-linecap="round" stroke-linejoin="round"/>
<path d="M52.9466 46.0808L47.3567 53.9171C46.183 52.1103 42.2318 52.8879 38.6022 54.0747C45.9523 45.8104 49.59 37.5389 51.2573 32.6633C52.7282 39.407 52.9503 46.0818 52.9503 46.0818L52.9466 46.0808Z" fill="black"/>
<path d="M93.8649 103.905C93.8649 103.905 90.7945 105.681 91.4564 100.628C91.4564 100.628 87.3744 104.678 87.6995 97.8351C87.6995 97.8351 84.16 100.31 84.4271 96.3115L84.4859 93.4637C84.4859 93.4637 81.2428 97.1201 80.7814 94.481C80.3173 91.8493 80.7176 89.6769 80.7176 89.6769C80.7176 89.6769 77.6093 94.0534 76.8304 92.7053C76.0463 91.3638 77.4946 85.4313 77.4946 85.4313C77.4946 85.4313 72.7106 91.7007 72.3377 88.0654C71.9696 84.4274 72.8077 82.9238 72.8077 82.9238C72.8077 82.9238 72.6981 83.0229 72.5273 83.1508C71.7554 83.7563 69.7299 85.083 70.6138 81.7061C71.6972 77.5696 74.7114 74.195 72.6736 73.4463L77.1161 62.1733C77.1161 62.1733 80.4453 61.0385 84.4925 60.2583C90.039 59.1871 96.934 58.7759 98.4192 62.8708C98.4192 62.8708 99.7184 66.2196 95.5969 73.9763C95.5969 73.9763 92.4038 80.3868 96.8647 92.3997C97.5134 94.1401 97.693 96.2395 97.2796 98.4002C96.8964 100.403 95.972 102.584 93.8669 103.898L93.8649 103.905Z" fill="#E4F4F9"/>
<path d="M96.4164 94.8608C96.4164 94.8608 88.4288 81.638 95.6672 70.6959C95.6672 70.6959 101.158 61.092 91.0445 62.0087L85.7417 62.9424" stroke="#BCDFF0" stroke-width="0.600516" stroke-linecap="round" stroke-linejoin="round"/>
<path d="M90.1732 65.5722C90.1732 65.5722 89.2647 68.562 92.504 68.5217C92.504 68.5217 90.0602 71.4853 93.4747 71.8907C93.4747 71.8907 92.498 73.9417 93.1581 75.5318" stroke="#BCDFF0" stroke-width="0.600516" stroke-linecap="round" stroke-linejoin="round"/>
<path d="M83.6561 65.9971C83.6561 65.9971 80.3338 73.2306 86.4193 70.8744C86.4193 70.8744 83.2233 76.0898 88.6986 74.8833C88.6986 74.8833 83.0253 81.2381 89.5623 79.8274C89.5623 79.8274 88.7574 82.0569 89.0537 83.1933" stroke="#BCDFF0" stroke-width="0.600516" stroke-linecap="round" stroke-linejoin="round"/>
<path d="M75.5693 67.8221C75.5693 67.8221 76.4726 70.2526 79.175 69.5878C79.175 69.5878 75.7962 74.8955 80.4546 74.4649C80.4546 74.4649 76.7743 79.3519 81.2708 79.3842C81.2708 79.3842 78.968 82.0538 80.4621 83.2374C81.96 84.4221 84.9037 83.7848 84.9037 83.7848C84.9037 83.7848 81.2904 86.6257 82.6684 88.475C84.0427 90.3227 87.1806 89.1448 87.1806 89.1448L85.6082 92.4454" stroke="#BCDFF0" stroke-width="0.600516" stroke-linecap="round" stroke-linejoin="round"/>
<g style="mix-blend-mode:overlay">
<path d="M78.5348 74.125C76.3784 77.7665 74.1321 80.9818 72.5295 83.1591C71.7576 83.7647 69.7321 85.0913 70.6162 81.7138C71.6994 77.5779 74.7135 74.2034 72.6759 73.454L77.1183 62.1817C77.1183 62.1817 80.4475 61.0469 84.4949 60.266L84.5991 60.3108C83.5599 64.8072 81.1161 69.7681 78.5386 74.126L78.5348 74.125Z" fill="black"/>
</g>
<path d="M63.8309 22.5831L86.2626 46.9875C87.6168 48.4615 87.9982 50.5946 87.2142 52.5317C81.3601 67.0321 71.8217 80.7892 57.7401 93.6365C56.2634 94.9858 54.0052 94.9688 52.7047 93.6173L30.894 70.9006C29.5823 69.5333 29.6432 67.341 31.0545 65.8951C41.7856 54.9108 50.9659 40.046 59.4136 23.352C60.2765 21.6476 62.5986 21.2419 63.8309 22.5831Z" fill="#B24F24"/>
<path d="M31.886 66.056C37.5004 60.3072 42.696 53.4932 47.5807 45.92C48.1212 45.0781 48.661 44.2238 49.1904 43.3627C53.0431 37.1669 56.7104 30.5023 60.2489 23.514C61.1118 21.8095 63.4349 21.4 64.6634 22.7402L87.0989 47.1457C88.4493 48.6186 88.8313 50.7519 88.0506 52.6892C84.3095 61.9495 79.0701 70.9071 72.0966 79.5162C71.4993 80.2598 70.8869 80.9992 70.2624 81.7355C68.4479 83.8689 66.5298 85.9827 64.4905 88.0721C63.7535 88.8275 62.9985 89.587 62.2246 90.3413C61.0436 91.5003 59.8279 92.6499 58.5726 93.7936C57.0922 95.1413 54.8339 95.1249 53.5334 93.7735L51.8808 92.054L48.5429 88.5778L31.7255 71.0615C30.4147 69.6905 30.4758 67.4975 31.8826 66.051L31.886 66.056Z" fill="#FF6600"/>
<path d="M64.4592 24.0862L86.0502 47.5773C87.3568 48.9966 87.7183 51.0501 86.9665 52.9127C81.332 66.871 72.1508 80.1149 58.5962 92.481C57.1745 93.7789 54.9989 93.7636 53.7516 92.4636L32.7566 70.5994C31.4928 69.2828 31.5527 67.1727 32.9072 65.7825C43.2382 55.2088 52.0742 40.9025 60.2066 24.8283C61.0356 23.1898 63.2746 22.7989 64.4592 24.0862Z" fill="#FF8533"/>
<path d="M38.822 70.4098C39.1241 70.5029 39.4655 70.2051 39.7678 70.1739C40.07 70.1434 40.4597 70.3762 40.7409 70.24C41.0214 70.1037 41.0783 69.6593 41.3104 69.4437C41.5313 69.2373 41.984 69.2052 42.1462 68.9378C42.302 68.6815 42.1276 68.2657 42.2219 67.9591C42.3166 67.6534 42.6937 67.4063 42.7076 67.1073C42.7212 66.7919 42.3623 66.5092 42.2952 66.2175C42.2245 65.9087 42.4182 65.4962 42.2681 65.2364C42.1181 64.9765 41.6593 64.9408 41.4253 64.7449C41.1916 64.5499 41.0731 64.1119 40.7741 64.0196C40.4759 63.9269 40.1312 64.2245 39.8284 64.2549C39.5261 64.2861 39.1363 64.0532 38.8558 64.1896C38.5748 64.3252 38.5178 64.7701 38.2856 64.9857C38.0647 65.1921 37.6129 65.2238 37.45 65.4911C37.294 65.748 37.4685 66.1637 37.3744 66.4697C37.2794 66.7761 36.9023 67.0231 36.8885 67.3222C36.8749 67.6375 37.2344 67.9204 37.3009 68.2119C37.3715 68.5208 37.1785 68.9334 37.3285 69.1932C37.4786 69.4531 37.9374 69.4888 38.171 69.6839C38.4044 69.8796 38.5229 70.3175 38.822 70.4098Z" fill="#B24F24"/>
<path d="M51.8828 92.063C51.5956 91.0162 51.3662 89.968 51.1832 88.966C50.4533 85.0235 50.537 80.905 51.3757 76.9855C51.8063 75.0077 52.4113 73.0599 53.2318 71.2035C53.9761 69.5254 54.8367 67.7211 56.021 66.2852C58.9101 73.9888 61.5268 82.0885 62.2278 90.3459C62.9979 89.5906 63.7527 88.8318 64.4937 88.0767C64.4061 87.3821 64.3025 86.6866 64.1978 85.9955C63.3676 80.6792 61.9118 75.4859 60.1833 70.3972C59.5259 68.472 58.838 66.5548 58.1273 64.6443C58.4121 64.5551 58.7127 64.5153 59.0282 64.5458C59.8169 64.6165 60.5315 65.0898 61.1125 65.5976C62.8669 67.1416 64.1533 69.2848 65.3378 71.2681C67.3183 74.5968 68.8812 78.1366 70.2666 81.7364C70.891 81.0001 71.5083 80.2578 72.1008 79.517C71.185 77.2117 70.1809 74.9408 69.0442 72.7336C67.7084 70.1542 66.1791 67.6642 64.3734 65.386C63.0392 63.714 61.261 62.1352 59.0194 62.011C58.3827 61.9735 57.785 62.0702 57.2267 62.2646C54.76 55.8799 52.0211 49.596 49.1956 43.3598C48.6662 44.2209 48.1264 45.0752 47.5859 45.9171C50.2026 51.7743 52.7215 57.6715 55.035 63.6542C54.2271 64.4116 53.5508 65.3415 52.9841 66.2508C51.7962 68.1621 50.8442 70.1988 50.0872 72.3128C48.5792 76.518 47.948 81.0859 48.2319 85.5475C48.2998 86.5477 48.4002 87.5654 48.5553 88.5809L51.8925 92.0568L51.8828 92.063Z" fill="#FF985F"/>
<path d="M76.9219 34.6835C79.2979 33.89 81.8735 33.0176 84.3774 33.7595C85.525 34.1001 86.5659 34.7933 87.1607 35.8522C87.7564 36.9107 87.9426 38.2413 87.9258 39.4642C87.8522 44.9979 83.8051 49.521 83.1977 54.9583C82.9189 57.4694 83.4089 60.0797 85.0362 62.0654C85.5263 62.6651 86.3758 61.8154 85.8884 61.2205C84.4076 59.4146 84.1089 56.9096 84.433 54.6635C84.8444 51.8141 86.1963 49.2128 87.3009 46.5912C88.4055 43.9695 89.2953 41.3599 89.0983 38.5841C89.0103 37.3339 88.7255 36.0309 88.0279 34.9694C87.3296 33.9078 86.388 33.2452 85.275 32.8057C82.4166 31.6715 79.3754 32.5969 76.6025 33.5246C75.8741 33.7688 76.1849 34.9293 76.9181 34.6824L76.9219 34.6835Z" fill="#85D6CA"/>
<path d="M72.2507 30.0913L70.498 29.7338C69.1664 29.4595 67.792 29.8874 66.85 30.8657L65.6099 32.1541L65.9673 30.4014C66.2411 29.0697 65.8138 27.6954 64.8355 26.7534L63.5473 25.5127L65.2998 25.8707C66.6315 26.1444 68.0058 25.7172 68.948 24.7383L70.188 23.4499L69.8306 25.2025C69.5569 26.5343 69.984 27.9092 70.9631 28.8507L72.2507 30.0913Z" fill="#FAEFCB"/>
<path d="M76.9763 28.527L76.2381 28.2048C75.678 27.9594 75.0323 28.0183 74.526 28.3591L73.8584 28.8101L74.1806 28.0719C74.426 27.5118 74.3665 26.866 74.0255 26.3603L73.5747 25.6921L74.3129 26.0142C74.8736 26.2598 75.5193 26.2009 76.0251 25.8593L76.6927 25.4083L76.3704 26.1472C76.125 26.7073 76.1845 27.3531 76.5254 27.8587L76.9763 28.527Z" fill="#F6CFB0"/>
<g clip-path="url(#clip0_368_454)">
<path d="M101.484 40.6874C101.236 40.5486 100.535 40.1493 100.009 39.777C99.7503 39.5954 99.5339 39.4193 99.4336 39.2848C99.6354 39.4468 99.842 39.6039 100.052 39.7537C100.514 40.0888 100.993 40.3994 101.484 40.6874H101.484Z" fill="black"/>
<path d="M75.551 103.823C75.551 103.823 75.0178 97.4284 69.5383 96.2863L65.7354 100.193C65.7354 100.193 70.3485 102.882 70.4903 105.684L75.551 103.823Z" fill="#3370F8"/>
<path d="M62.583 24.8621C63.9189 20.8469 68.603 19.5031 68.603 19.5031L72.8865 24.8621C72.8865 24.8621 67.1441 26.4677 66.6061 28.349L62.591 24.8621H62.583Z" fill="#FF9ECB"/>
<path d="M13.4971 11.2026L18.1041 12.6082L20.7069 8.25496L17.0983 6.38159L13.4971 11.2032V11.2026Z" fill="#86CEEC"/>
<path d="M98.1739 80.7612L101.097 76.9301L97.9067 72.9834L94.9004 75.7121L98.1739 80.7618V80.7612Z" fill="#C5BBFB"/>
<path d="M86.2812 50.9218L90.895 52.3275L93.4904 47.9742L89.8898 46.1008L86.2812 50.9218Z" fill="#EC702D"/>
<path d="M20.4719 72.8525L20.5037 69.9092C20.5037 69.9092 19.3035 71.4958 17.0168 72.2546L16.6084 75.4847C16.6084 75.4847 18.7881 75.9224 20.4719 72.8531V72.8525Z" fill="#6F5CEC"/>
<path d="M105.923 24.1578L107.758 22.9136C107.758 22.9136 106.266 22.8525 104.81 21.7654L102.638 22.9026C102.638 22.9026 103.304 24.4421 105.923 24.1578Z" fill="#A4CEBB"/>
<path d="M83.7822 0.000244141L81.1104 1.19739C81.1104 1.19739 83.0449 1.61988 84.681 3.3783L87.7674 2.40249C87.7674 2.40249 87.2532 0.245421 83.7822 0.00696968V0.000244141Z" fill="#99D1BB"/>
<path d="M16.0541 41.5078L15.7166 43.6887C15.4629 45.3395 16.07 47.0056 17.3289 48.1111L18.9877 49.562L16.8068 49.2238C15.156 48.9713 13.4899 49.5779 12.3844 50.8368L10.9336 52.4955L11.2711 50.3146C11.5248 48.6638 10.9177 46.9977 9.65876 45.8923L8 44.4408L10.1809 44.7776C11.8317 45.0314 13.4978 44.4255 14.6033 43.166L16.0541 41.5072V41.5078Z" fill="#FFCEAD"/>
<path d="M50.3498 69.9478L52.2776 71.0214C53.7383 71.8309 55.5114 71.8401 56.9861 71.0428L58.9224 69.9905L57.8488 71.9183C57.038 73.3784 57.0289 75.1515 57.8262 76.6262L58.8784 78.5626L56.9506 77.4889C55.4906 76.6782 53.7169 76.6702 52.244 77.4669L50.3076 78.5192L51.3813 76.5914C52.1908 75.1307 52.1999 73.3576 51.402 71.8841L50.3498 69.9478Z" fill="#FBC333"/>
<path d="M25.8282 107.991C25.8282 107.991 29.26 106.386 28.7685 103.116L25.8282 101.811C25.8282 101.811 25.2828 104.921 23.7549 105.572L25.8282 107.999V107.991Z" fill="#FBC333"/>
<path d="M46.0371 34.5732L45.1004 39.0341C44.3863 42.4213 45.4618 45.9296 47.9343 48.3398L51.1968 51.5192L46.736 50.5825C43.3506 49.8684 39.8417 50.9426 37.4302 53.4145L34.2515 56.6783L35.1882 52.2174C35.9023 48.832 34.8269 45.3219 32.3549 42.9117L29.0918 39.7323L33.5527 40.669C36.9387 41.3844 40.4476 40.3089 42.859 37.8364L46.0371 34.5726V34.5732Z" fill="#FEEFC8"/>
</g>
<defs>
<clipPath id="clip0_368_454">
<rect width="99.7582" height="107.999" fill="white" transform="translate(8)"/>
</clipPath>
</defs>
</svg>
